<svg width="460" height="514" viewBox="0 0 460 514" fill="none" xmlns="http://www.w3.org/2000/svg">
<path d="M105.177 136.404C110.687 136.404 115.153 129.273 115.153 120.477C115.153 111.68 110.687 104.549 105.177 104.549C99.6677 104.549 95.2014 111.68 95.2014 120.477C95.2014 129.273 99.6677 136.404 105.177 136.404Z" fill="#DEE5DC"/>
<path d="M104.8 109.735C108.806 109.735 112.053 104.55 112.053 98.1534C112.053 91.7572 108.806 86.5721 104.8 86.5721C100.794 86.5721 97.5463 91.7572 97.5463 98.1534C97.5463 104.55 100.794 109.735 104.8 109.735Z" fill="#DEE5DC"/>
<path d="M104.904 158.064C104.453 158.064 104.086 157.588 104.085 156.867L103.98 93.4396C103.979 92.7167 104.345 92.1068 104.798 92.1068C104.798 92.1068 104.799 92.1068 104.8 92.1068C105.252 92.1068 105.618 92.7653 105.619 93.4862L105.724 156.822C105.725 157.545 105.359 158.064 104.906 158.064C104.906 158.064 104.905 158.064 104.904 158.064Z" fill="#161616"/>
<path d="M104.905 125.241C104.613 125.241 104.33 124.991 104.182 124.55C103.968 123.913 104.119 123.12 104.518 122.778L109.908 118.171C110.306 117.83 110.803 118.07 111.017 118.707C111.23 119.344 111.08 120.138 110.681 120.479L105.291 125.086C105.168 125.191 105.036 125.241 104.905 125.241Z" fill="#161616"/>
<path d="M104.8 105.858C104.566 105.858 104.333 105.699 104.171 105.389L99.9308 97.2918C99.6403 96.737 99.6865 95.912 100.034 95.4487C100.381 94.9839 100.898 95.0587 101.188 95.6131L105.428 103.711C105.719 104.265 105.673 105.09 105.325 105.554C105.172 105.758 104.986 105.858 104.8 105.858Z" fill="#161616"/>
<path d="M50.2024 241.296V147.071C50.2024 147.071 302.044 122.003 373.564 236.195L50.2024 241.296Z" fill="#DEE5DC"/>
<path d="M50.2024 241.374C50.2024 241.374 223.967 191.471 419.697 228.88V434.745L50.2024 428.85V241.374Z" fill="#EAEFE8"/>
<path d="M36.352 245.346C35.9616 245.346 35.6153 244.899 35.5458 244.264C35.4675 243.552 35.7655 242.874 36.2114 242.748C36.716 242.607 87.5312 228.506 162.328 220.028C206.256 215.049 249.744 212.951 291.579 213.799C343.881 214.857 393.74 220.541 439.769 230.694C440.218 230.793 440.531 231.454 440.469 232.169C440.407 232.885 439.994 233.383 439.545 233.287C393.583 223.148 343.793 217.472 291.559 216.416C249.767 215.571 206.326 217.665 162.444 222.639C87.7305 231.109 36.9982 245.185 36.4947 245.327C36.4468 245.34 36.3989 245.346 36.352 245.346Z" fill="#161616"/>
<path d="M315.624 138.639L282.072 125.19C282.072 125.19 279.663 117.709 283.561 115.146L314.007 125.547C314.007 125.547 317.866 131.784 315.624 138.639Z" fill="white"/>
<path d="M315.624 139.947C315.558 139.947 315.491 139.935 315.425 139.908L281.872 126.46C281.644 126.369 281.451 126.124 281.343 125.79C281.286 125.613 279.959 121.421 280.791 117.808C281.198 116.044 282.025 114.742 283.249 113.936C283.402 113.836 283.57 113.811 283.733 113.867L314.178 124.267C314.335 124.321 314.477 124.446 314.59 124.627C314.633 124.698 315.666 126.383 316.403 128.983C317.407 132.524 317.388 136.073 316.35 139.245C316.207 139.684 315.924 139.947 315.624 139.947ZM282.658 124.076L315.16 137.103C316.319 132.264 314.185 127.857 313.578 126.738L283.651 116.515C282.985 117.029 282.551 117.751 282.33 118.711C281.888 120.629 282.392 123.037 282.658 124.076Z" fill="#161616"/>
<path d="M269.211 143V227.273L370.191 265.971V176.35L269.211 143Z" fill="#EAEFE8"/>
<path d="M370.355 267.279C370.291 267.279 370.227 267.268 370.164 267.243L269.184 228.546C268.815 228.404 268.555 227.879 268.555 227.273V143C268.555 142.607 268.666 142.234 268.857 141.986C269.048 141.737 269.299 141.638 269.541 141.719L370.521 175.068C370.901 175.194 371.174 175.73 371.174 176.35V265.971C371.174 266.371 371.059 266.75 370.862 266.998C370.716 267.182 370.537 267.279 370.355 267.279ZM270.194 226.241L369.535 264.311V177.416L270.194 144.607V226.241Z" fill="#161616"/>
<path d="M370.191 176.35L405.442 151.816L405.55 236.872L370.191 265.97V176.35Z" fill="#EAEFE8"/>
<path d="M370.355 267.279C370.207 267.279 370.059 267.215 369.928 267.088C369.684 266.851 369.535 266.427 369.535 265.97V176.35C369.535 175.829 369.728 175.359 370.027 175.151L405.196 150.617C405.448 150.441 405.739 150.478 405.972 150.72C406.203 150.961 406.343 151.371 406.343 151.813L406.493 236.869C406.494 237.36 406.322 237.81 406.049 238.035L370.731 267.134C370.612 267.23 370.484 267.279 370.355 267.279ZM371.174 177.206V263.822L404.852 236.076L404.708 153.813L371.174 177.206Z" fill="#161616"/>
<path d="M269.501 143L313.694 121.641L405.536 151.816L370.38 176.35L269.501 143Z" fill="#EAEFE8"/>
<path d="M370.38 177.658C370.325 177.658 370.269 177.649 370.214 177.631L269.335 144.281C268.968 144.16 268.7 143.657 268.683 143.059C268.666 142.46 268.905 141.921 269.264 141.747L313.457 120.388C313.587 120.325 313.727 120.314 313.86 120.359L405.702 150.534C406.051 150.649 406.314 151.112 406.351 151.679C406.388 152.246 406.192 152.786 405.865 153.015L370.708 177.548C370.604 177.621 370.492 177.658 370.38 177.658ZM272.823 142.762L370.291 174.984L402.843 152.268L313.733 122.989L272.823 142.762Z" fill="#161616"/>
<path d="M370.355 208.055C370.291 208.055 370.227 208.044 370.164 208.02L269.311 169.545C268.871 169.377 268.599 168.67 268.704 167.967C268.809 167.264 269.252 166.831 269.692 166.998L370.266 205.367L404.105 179.908C404.514 179.6 405.002 179.881 405.196 180.534C405.388 181.188 405.213 181.968 404.803 182.276L370.704 207.93C370.594 208.013 370.475 208.055 370.355 208.055Z" fill="#161616"/>
<path d="M370.355 239.48C370.294 239.48 370.233 239.469 370.173 239.447L269.193 202.819C268.752 202.658 268.475 201.957 268.576 201.253C268.675 200.548 269.114 200.103 269.556 200.267L370.253 236.792L405.174 209.35C405.58 209.03 406.071 209.298 406.272 209.947C406.471 210.595 406.304 211.379 405.898 211.699L370.716 239.345C370.603 239.434 370.479 239.48 370.355 239.48Z" fill="#161616"/>
<path d="M360.355 191.214C358.819 191.214 357.568 189.218 357.568 186.764C357.568 184.311 358.819 182.315 360.355 182.315C361.892 182.315 363.142 184.311 363.142 186.764C363.142 189.218 361.892 191.214 360.355 191.214ZM360.355 184.932C359.723 184.932 359.208 185.754 359.208 186.764C359.208 187.774 359.723 188.596 360.355 188.596C360.988 188.596 361.503 187.774 361.503 186.764C361.503 185.754 360.988 184.932 360.355 184.932Z" fill="#161616"/>
<path d="M358.388 225.763C356.851 225.763 355.601 223.767 355.601 221.313C355.601 218.86 356.851 216.864 358.388 216.864C359.925 216.864 361.175 218.86 361.175 221.313C361.175 223.767 359.925 225.763 358.388 225.763ZM358.388 219.481C357.755 219.481 357.241 220.303 357.241 221.313C357.241 222.323 357.755 223.145 358.388 223.145C359.021 223.145 359.536 222.323 359.536 221.313C359.536 220.303 359.021 219.481 358.388 219.481Z" fill="#161616"/>
<path d="M277.735 194.354C276.199 194.354 274.948 192.358 274.948 189.905C274.948 187.451 276.199 185.455 277.735 185.455C279.272 185.455 280.522 187.451 280.522 189.905C280.522 192.358 279.272 194.354 277.735 194.354ZM277.735 188.073C277.103 188.073 276.588 188.895 276.588 189.905C276.588 190.915 277.103 191.737 277.735 191.737C278.368 191.737 278.883 190.915 278.883 189.905C278.883 188.895 278.368 188.073 277.735 188.073Z" fill="#161616"/>
<path d="M277.735 221.575C276.199 221.575 274.948 219.579 274.948 217.125C274.948 214.672 276.199 212.676 277.735 212.676C279.272 212.676 280.522 214.672 280.522 217.125C280.522 219.579 279.272 221.575 277.735 221.575ZM277.735 215.293C277.103 215.293 276.588 216.115 276.588 217.125C276.588 218.136 277.103 218.958 277.735 218.958C278.368 218.958 278.883 218.136 278.883 217.125C278.883 216.115 278.368 215.293 277.735 215.293Z" fill="#161616"/>
<path d="M280.645 164.07L247.092 150.622C247.092 150.622 244.683 143.142 248.581 140.578L279.027 150.979C279.027 150.978 282.887 157.216 280.645 164.07Z" fill="white"/>
<path d="M280.645 165.379C280.579 165.379 280.511 165.367 280.445 165.34L246.893 151.892C246.664 151.8 246.471 151.556 246.364 151.221C246.307 151.044 244.98 146.852 245.812 143.239C246.219 141.475 247.045 140.173 248.269 139.368C248.422 139.267 248.591 139.243 248.753 139.298L279.199 149.7C279.355 149.753 279.498 149.878 279.61 150.06C279.654 150.13 280.687 151.815 281.424 154.415C282.427 157.956 282.409 161.505 281.371 164.677C281.227 165.116 280.944 165.379 280.645 165.379ZM247.678 149.508L280.181 162.535C281.339 157.696 279.206 153.289 278.598 152.17L248.671 141.946C248.005 142.461 247.572 143.182 247.351 144.142C246.909 146.06 247.413 148.469 247.678 149.508Z" fill="#161616"/>
<path d="M290.522 148.472C290.522 148.472 297.188 103.795 304.346 102.139C311.504 100.483 319.827 116.71 319.827 116.71L332.458 70.0067C332.458 70.0067 338.952 55.4652 350.965 60.6994C362.978 65.9335 373.564 110.963 373.564 110.963C373.564 110.963 387.064 112.995 389.283 124.799C391.501 136.602 394.112 158.207 394.112 158.207L370.379 174.78L290.522 148.472Z" fill="#8DC73F"/>
<path d="M342.317 122.95C341.957 122.95 341.627 122.569 341.527 121.988L339.73 111.561C339.69 111.329 339.691 111.083 339.732 110.851C339.747 110.768 339.763 110.685 339.777 110.601C339.773 110.612 339.77 110.624 339.766 110.635C339.551 111.271 339.053 111.508 338.656 111.165C337.849 110.471 333.799 106.849 333.265 103.741C333.136 102.988 333.191 102.262 333.424 101.641C333.689 100.936 334.115 100.497 334.623 100.406C335.65 100.223 336.969 101.572 338.027 102.953C337.998 100.873 338.156 98.4342 338.914 97.0915C339.344 96.3309 339.918 95.9629 340.574 96.0356C341.113 96.0927 341.565 96.5062 341.884 97.2323C343.171 100.16 341.804 108.741 341.371 111.218L343.107 121.294C343.227 121.99 342.971 122.711 342.535 122.902C342.462 122.935 342.388 122.95 342.317 122.95ZM334.836 102.999C334.851 103.684 336.404 106.251 339.434 108.862C339.727 109.115 339.885 109.611 339.862 110.109C340.645 105.49 341.114 100.037 340.542 98.7357C340.505 98.6519 340.495 98.6509 340.465 98.6472C340.287 98.6315 340.208 98.709 340.132 98.8441C339.532 99.9046 339.61 103.753 339.852 106.02C339.913 106.587 339.735 107.15 339.413 107.409C339.091 107.667 338.702 107.561 338.453 107.147C337.118 104.93 335.438 102.996 334.87 102.996C334.858 102.997 334.847 102.997 334.836 102.999Z" fill="#161616"/>
<path d="M310.187 140.225C309.827 140.225 309.497 139.843 309.397 139.263L307.6 128.835C307.56 128.603 307.561 128.357 307.602 128.126C307.617 128.043 307.633 127.96 307.647 127.875C307.643 127.887 307.64 127.898 307.636 127.91C307.421 128.545 306.922 128.783 306.526 128.44C305.719 127.746 301.669 124.124 301.135 121.016C301.006 120.263 301.061 119.537 301.294 118.916C301.559 118.21 301.985 117.772 302.493 117.681C303.522 117.497 304.839 118.846 305.897 120.227C305.868 118.148 306.026 115.709 306.784 114.366C307.214 113.605 307.789 113.239 308.444 113.31C308.983 113.367 309.435 113.781 309.754 114.507C311.041 117.435 309.674 126.016 309.241 128.493L310.977 138.568C311.097 139.265 310.841 139.985 310.405 140.177C310.332 140.21 310.258 140.225 310.187 140.225ZM302.706 120.274C302.721 120.958 304.274 123.526 307.304 126.137C307.597 126.389 307.755 126.886 307.732 127.384C308.515 122.765 308.984 117.312 308.412 116.01C308.375 115.927 308.365 115.925 308.335 115.922C308.157 115.906 308.078 115.984 308.002 116.119C307.402 117.179 307.48 121.028 307.722 123.295C307.783 123.861 307.605 124.425 307.283 124.683C306.962 124.942 306.572 124.836 306.323 124.421C304.96 122.157 303.229 120.175 302.706 120.274Z" fill="#161616"/>
<path d="M337.905 140.448C337.734 140.448 337.561 140.363 337.413 140.186L332 133.684C331.88 133.539 331.786 133.344 331.731 133.119C331.711 133.039 331.691 132.959 331.67 132.878C331.672 132.891 331.673 132.903 331.675 132.916C331.748 133.629 331.445 134.302 330.999 134.419C330.094 134.657 325.502 135.739 323.89 133.8C323.499 133.33 323.265 132.702 323.212 131.982C323.152 131.166 323.321 130.403 323.689 129.835C324.429 128.69 325.992 128.468 327.358 128.531C326.539 126.913 325.731 124.828 325.818 123.024C325.867 122.003 326.181 121.154 326.728 120.569C327.176 120.09 327.693 119.975 328.223 120.238C330.362 121.301 332.563 129.428 333.169 131.811L338.398 138.093C338.76 138.527 338.833 139.348 338.561 139.926C338.4 140.268 338.154 140.448 337.905 140.448ZM330.867 131.819C331.146 131.819 331.401 132.046 331.55 132.405C330.402 127.985 328.687 123.21 327.736 122.738C327.674 122.706 327.666 122.716 327.642 122.743C327.496 122.899 327.461 123.043 327.453 123.225C327.384 124.655 328.919 127.622 329.977 129.177C330.243 129.566 330.317 130.186 330.162 130.705C330.006 131.223 329.66 131.52 329.301 131.435C327.356 130.972 325.238 131.096 324.85 131.68C325.225 132.452 328.063 132.536 330.733 131.837C330.778 131.825 330.823 131.819 330.867 131.819Z" fill="#161616"/>
<path d="M353.269 91.1575C352.831 91.1575 352.468 90.6052 352.451 89.9012L352.181 79.0947C352.175 78.8539 352.211 78.6147 352.284 78.4047C352.311 78.3294 352.337 78.2545 352.363 78.1786C352.358 78.188 352.353 78.1969 352.348 78.2058C352.048 78.7471 351.53 78.7994 351.191 78.321C350.504 77.3526 347.074 72.3587 346.995 69.1378C346.976 68.3583 347.133 67.6705 347.448 67.1501C347.806 66.5602 348.28 66.288 348.792 66.3817C349.815 66.5728 350.911 68.3662 351.745 70.0947C352.012 68.0589 352.512 65.7404 353.442 64.7071C353.968 64.1224 354.58 63.9748 355.209 64.2805C355.725 64.5312 356.107 65.0981 356.315 65.92C357.152 69.2377 354.602 77.1008 353.828 79.3564L354.089 89.797C354.107 90.5194 353.755 91.1282 353.303 91.157C353.291 91.157 353.28 91.1575 353.269 91.1575ZM348.631 68.9833C348.493 69.935 350.247 73.4977 352.276 76.3585C352.525 76.7103 352.609 77.2494 352.516 77.7258C353.935 73.5103 355.166 68.3709 354.794 66.8968C354.77 66.802 354.76 66.7979 354.731 66.7832C354.563 66.7021 354.471 66.7497 354.378 66.8544C353.641 67.6736 353.172 71.4484 353.087 73.7411C353.066 74.3149 352.812 74.7991 352.463 74.9352C352.112 75.0702 351.749 74.8263 351.565 74.3332C350.559 71.6352 349.16 69.0943 348.631 68.9833Z" fill="#161616"/>
<path d="M362.294 133.461C362.289 133.461 362.284 133.461 362.279 133.461C361.827 133.461 361.466 132.733 361.474 132.011L361.594 121.139C361.596 120.897 361.641 120.633 361.722 120.43C361.751 120.357 361.78 120.269 361.809 120.195C361.804 120.205 361.798 120.206 361.793 120.216C361.474 120.729 360.955 120.728 360.633 120.22C359.982 119.191 356.738 113.89 356.774 110.667C356.783 109.887 356.964 109.214 357.298 108.723C357.677 108.167 358.162 107.938 358.667 108.078C359.682 108.363 360.711 110.253 361.482 112.055C361.822 110.047 362.405 107.778 363.37 106.832C363.916 106.296 364.532 106.205 365.149 106.567C365.656 106.865 366.017 107.466 366.194 108.305C366.911 111.695 364.082 119.311 363.229 121.491L363.113 132.057C363.106 132.772 362.74 133.461 362.294 133.461ZM358.413 110.661C358.241 111.598 359.864 115.316 361.787 118.357C362.024 118.732 362.087 119.279 361.977 119.747C363.545 115.668 364.96 110.648 364.641 109.142C364.621 109.045 364.611 109.04 364.583 109.022C364.417 108.925 364.325 108.966 364.227 109.061C363.462 109.812 362.858 113.537 362.691 115.818C362.649 116.389 362.379 116.85 362.025 116.953C361.671 117.057 361.316 116.779 361.15 116.269C360.242 113.484 358.938 110.819 358.413 110.661Z" fill="#161616"/>
<path d="M345.11 125.347C344.657 125.347 344.29 124.762 344.29 124.039V118.804C344.29 118.081 344.657 117.495 345.11 117.495C345.563 117.495 345.93 118.081 345.93 118.804V124.039C345.93 124.762 345.563 125.347 345.11 125.347Z" fill="#161616"/>
<path d="M365.499 137.388C365.41 137.388 365.321 137.365 365.233 137.316C364.805 137.081 364.577 136.337 364.724 135.653L365.973 129.85C366.121 129.166 366.587 128.802 367.015 129.037C367.443 129.272 367.671 130.017 367.524 130.7L366.274 136.504C366.157 137.047 365.84 137.388 365.499 137.388Z" fill="#161616"/>
<path d="M358.388 159.635C358.074 159.635 357.774 159.344 357.639 158.855L355.835 152.345C355.652 151.684 355.839 150.912 356.253 150.619C356.666 150.327 357.151 150.626 357.334 151.287L359.138 157.797C359.321 158.458 359.134 159.23 358.72 159.523C358.612 159.599 358.499 159.635 358.388 159.635Z" fill="#161616"/>
<path d="M361.175 158.326C360.832 158.326 360.512 157.979 360.397 157.431L359.414 152.72C359.27 152.034 359.503 151.292 359.932 151.064C360.362 150.837 360.826 151.207 360.969 151.892L361.953 156.603C362.096 157.289 361.864 158.031 361.434 158.259C361.348 158.304 361.261 158.326 361.175 158.326Z" fill="#161616"/>
<path d="M307.243 141.886C306.924 141.886 306.622 141.589 306.489 141.092L305.283 136.593C305.105 135.928 305.298 135.16 305.714 134.875C306.13 134.592 306.612 134.899 306.79 135.563L307.996 140.062C308.174 140.727 307.981 141.495 307.565 141.78C307.46 141.852 307.35 141.886 307.243 141.886Z" fill="#161616"/>
<path d="M335.765 144.309C335.618 144.309 335.47 144.246 335.335 144.114L332.876 141.69C332.491 141.311 332.372 140.505 332.61 139.89C332.847 139.275 333.353 139.084 333.738 139.464L336.196 141.887C336.582 142.267 336.701 143.073 336.463 143.688C336.309 144.088 336.04 144.309 335.765 144.309Z" fill="#161616"/>
<path d="M378.551 132.676C378.099 132.676 377.732 132.09 377.732 131.367V125.609C377.732 124.886 378.099 124.3 378.551 124.3C379.004 124.3 379.371 124.886 379.371 125.609V131.367C379.371 132.09 379.004 132.676 378.551 132.676Z" fill="#161616"/>
<path d="M381.011 132.676C380.963 132.676 380.913 132.669 380.864 132.655C380.418 132.526 380.123 131.844 380.204 131.133L380.859 125.375C380.94 124.664 381.367 124.193 381.812 124.321C382.258 124.451 382.553 125.132 382.472 125.843L381.817 131.601C381.745 132.233 381.4 132.676 381.011 132.676Z" fill="#161616"/>
<path d="M355.602 91.3218C355.577 91.3218 355.552 91.3202 355.527 91.3161C355.076 91.2506 354.744 90.6141 354.785 89.8943L355.113 84.1361C355.154 83.4164 355.556 82.8819 356.004 82.9515C356.454 83.017 356.787 83.6535 356.746 84.3733L356.418 90.1314C356.379 90.8109 356.021 91.3218 355.602 91.3218Z" fill="#161616"/>
<path d="M59.558 301.105L156.625 259.136C156.625 259.136 173.35 263.911 169.491 310.461L72.3542 365.786" fill="#161616"/>
<path d="M72.3541 367.095C72.0174 367.095 71.7017 366.762 71.5824 366.226C71.4302 365.545 71.6525 364.797 72.0791 364.554L168.743 309.498C169.757 296.562 169.681 279.186 163.878 268.185C160.817 262.381 157.425 260.785 156.646 260.483L59.772 302.369C59.3349 302.559 58.8851 302.145 58.7667 301.447C58.6484 300.749 58.9067 300.031 59.3438 299.842L156.411 257.873C156.527 257.822 156.65 257.813 156.769 257.848C156.952 257.9 161.286 259.209 165.132 266.499C171.439 278.456 171.426 297.099 170.304 310.633C170.264 311.119 170.056 311.529 169.767 311.694L72.6295 367.019C72.5387 367.071 72.4456 367.095 72.3541 367.095Z" fill="#161616"/>
<path d="M62.4684 369.633C74.3204 369.633 83.9283 354.292 83.9283 335.369C83.9283 316.446 74.3204 301.105 62.4684 301.105C50.6165 301.105 41.0085 316.446 41.0085 335.369C41.0085 354.292 50.6165 369.633 62.4684 369.633Z" fill="#DEE5DC"/>
<path d="M62.4685 370.941C50.1834 370.941 40.189 354.984 40.189 335.369C40.189 315.754 50.1834 299.797 62.4685 299.797C74.7536 299.797 84.748 315.754 84.748 335.369C84.748 354.984 74.7536 370.941 62.4685 370.941ZM62.4685 302.414C51.0876 302.414 41.8283 317.197 41.8283 335.369C41.8283 353.541 51.0876 368.324 62.4685 368.324C73.8494 368.324 83.1087 353.541 83.1087 335.369C83.1087 317.197 73.8494 302.414 62.4685 302.414Z" fill="#161616"/>
<path d="M62.4684 345.12C65.8414 345.12 68.5757 340.755 68.5757 335.369C68.5757 329.984 65.8414 325.618 62.4684 325.618C59.0954 325.618 56.3611 329.984 56.3611 335.369C56.3611 340.755 59.0954 345.12 62.4684 345.12Z" fill="#EAEFE8"/>
<path d="M62.4686 346.429C58.6491 346.429 55.5416 341.467 55.5416 335.369C55.5416 329.271 58.6491 324.309 62.4686 324.309C66.2881 324.309 69.3956 329.271 69.3956 335.369C69.3956 341.467 66.2881 346.429 62.4686 346.429ZM62.4686 326.927C59.553 326.927 57.1809 330.714 57.1809 335.369C57.1809 340.024 59.553 343.812 62.4686 343.812C65.3842 343.812 67.7563 340.024 67.7563 335.369C67.7563 330.714 65.3842 326.927 62.4686 326.927Z" fill="#161616"/>
<path d="M101.292 322.556L198.359 280.586C198.359 280.586 215.084 285.362 211.225 331.912L114.088 387.237" fill="#161616"/>
<path d="M114.088 388.546C113.752 388.546 113.436 388.212 113.317 387.677C113.164 386.996 113.387 386.248 113.813 386.005L210.477 330.949C211.491 318.013 211.415 300.637 205.613 289.636C202.551 283.831 199.159 282.235 198.38 281.934L101.506 323.819C101.07 324.009 100.619 323.596 100.501 322.898C100.383 322.2 100.641 321.482 101.078 321.293L198.145 279.324C198.262 279.273 198.384 279.264 198.503 279.299C198.686 279.351 203.021 280.66 206.866 287.95C213.173 299.907 213.16 318.55 212.038 332.084C211.998 332.57 211.79 332.98 211.501 333.144L114.364 388.469C114.273 388.522 114.18 388.546 114.088 388.546Z" fill="#161616"/>
<path d="M104.203 391.083C116.055 391.083 125.662 375.743 125.662 356.819C125.662 337.896 116.055 322.556 104.203 322.556C92.3506 322.556 82.7427 337.896 82.7427 356.819C82.7427 375.743 92.3506 391.083 104.203 391.083Z" fill="#DEE5DC"/>
<path d="M104.203 392.392C91.9174 392.392 81.923 376.435 81.923 356.82C81.923 337.205 91.9174 321.247 104.203 321.247C116.488 321.247 126.482 337.205 126.482 356.82C126.482 376.435 116.488 392.392 104.203 392.392ZM104.203 323.864C92.8216 323.864 83.5623 338.648 83.5623 356.819C83.5623 374.991 92.8216 389.774 104.203 389.774C115.583 389.774 124.843 374.991 124.843 356.819C124.843 338.648 115.583 323.864 104.203 323.864Z" fill="#161616"/>
<path d="M104.203 366.57C107.576 366.57 110.31 362.205 110.31 356.819C110.31 351.434 107.576 347.068 104.203 347.068C100.83 347.068 98.0952 351.434 98.0952 356.819C98.0952 362.205 100.83 366.57 104.203 366.57Z" fill="#EAEFE8"/>
<path d="M104.203 367.879C100.383 367.879 97.2756 362.918 97.2756 356.819C97.2756 350.721 100.383 345.759 104.203 345.759C108.022 345.759 111.13 350.721 111.13 356.819C111.13 362.918 108.022 367.879 104.203 367.879ZM104.203 348.377C101.287 348.377 98.9149 352.165 98.9149 356.82C98.9149 361.475 101.287 365.262 104.203 365.262C107.118 365.262 109.49 361.475 109.49 356.82C109.49 352.165 107.118 348.377 104.203 348.377Z" fill="#161616"/>
<path d="M143.884 331.227L240.951 289.258C240.951 289.258 257.676 294.033 253.817 340.583L156.68 395.908" fill="#161616"/>
<path d="M156.68 397.218C156.343 397.218 156.028 396.884 155.908 396.348C155.756 395.667 155.978 394.919 156.405 394.676L253.069 339.62C254.496 321.445 252.843 307.221 248.279 298.451C245.219 292.57 241.759 290.918 240.97 290.606L144.098 332.491C143.661 332.682 143.211 332.268 143.093 331.57C142.975 330.872 143.233 330.154 143.67 329.965L240.737 287.996C240.854 287.945 240.976 287.936 241.096 287.971C241.278 288.023 245.613 289.332 249.459 296.622C255.766 308.579 255.752 327.222 254.63 340.756C254.59 341.242 254.382 341.652 254.093 341.816L156.955 397.141C156.864 397.193 156.771 397.218 156.68 397.218Z" fill="#161616"/>
<path d="M146.794 399.755C158.646 399.755 168.254 384.414 168.254 365.491C168.254 346.568 158.646 331.227 146.794 331.227C134.942 331.227 125.334 346.568 125.334 365.491C125.334 384.414 134.942 399.755 146.794 399.755Z" fill="#DEE5DC"/>
<path d="M146.794 401.063C134.509 401.063 124.515 385.106 124.515 365.491C124.515 345.876 134.509 329.919 146.794 329.919C159.079 329.919 169.074 345.876 169.074 365.491C169.074 385.106 159.079 401.063 146.794 401.063ZM146.794 332.536C135.413 332.536 126.154 347.319 126.154 365.491C126.154 383.663 135.413 398.446 146.794 398.446C158.175 398.446 167.435 383.663 167.435 365.491C167.435 347.319 158.175 332.536 146.794 332.536Z" fill="#161616"/>
<path d="M146.794 375.242C150.167 375.242 152.902 370.876 152.902 365.491C152.902 360.106 150.167 355.74 146.794 355.74C143.421 355.74 140.687 360.106 140.687 365.491C140.687 370.876 143.421 375.242 146.794 375.242Z" fill="#EAEFE8"/>
<path d="M146.794 376.551C142.975 376.551 139.867 371.589 139.867 365.491C139.867 359.393 142.975 354.431 146.794 354.431C150.614 354.431 153.721 359.393 153.721 365.491C153.721 371.589 150.614 376.551 146.794 376.551ZM146.794 357.048C143.879 357.048 141.507 360.836 141.507 365.491C141.507 370.146 143.879 373.934 146.794 373.934C149.71 373.934 152.082 370.146 152.082 365.491C152.082 360.836 149.71 357.048 146.794 357.048Z" fill="#161616"/>
<path d="M93.8822 247.863L192.842 219.308C192.842 219.308 209.25 226.351 202.911 272.203L103.165 314.055" fill="#161616"/>
<path d="M103.165 315.364C102.802 315.364 102.47 314.976 102.373 314.388C102.258 313.689 102.519 312.973 102.957 312.79L202.217 271.141C204.612 253.228 203.728 238.83 199.651 229.468C196.917 223.19 193.558 221.072 192.789 220.654L94.0282 249.151C93.5836 249.281 93.1564 248.807 93.0757 248.096C92.9951 247.385 93.2911 246.704 93.7364 246.575L192.696 218.02C192.816 217.986 192.938 217.993 193.055 218.044C193.234 218.121 197.483 220.018 200.923 227.806C206.567 240.581 205.554 259.154 203.711 272.485C203.645 272.964 203.417 273.344 203.119 273.469L103.374 315.321C103.304 315.35 103.234 315.364 103.165 315.364Z" fill="#161616"/>
<path d="M94.9465 316.663C106.798 316.663 116.406 301.322 116.406 282.399C116.406 263.476 106.798 248.135 94.9465 248.135C83.0945 248.135 73.4866 263.476 73.4866 282.399C73.4866 301.322 83.0945 316.663 94.9465 316.663Z" fill="#DEE5DC"/>
<path d="M94.9709 317.973C94.3309 317.973 93.6814 317.929 93.0404 317.841C80.8005 316.162 71.6979 298.898 72.7487 279.355C73.229 270.424 75.7751 262.179 79.9183 256.137C84.0371 250.131 89.3655 246.823 94.9223 246.823C95.5623 246.823 96.2118 246.868 96.8528 246.956C109.093 248.635 118.196 265.899 117.144 285.442C116.664 294.373 114.118 302.618 109.975 308.66C105.856 314.666 100.527 317.973 94.9709 317.973ZM94.9223 249.442C89.776 249.442 84.8401 252.506 81.0238 258.071C77.1856 263.667 74.827 271.306 74.3818 279.58C73.408 297.684 81.8412 313.678 93.1804 315.233C93.7748 315.315 94.3771 315.356 94.9705 315.356C100.117 315.356 105.053 312.292 108.869 306.727C112.707 301.131 115.066 293.492 115.511 285.218C116.485 267.114 108.052 251.12 96.7124 249.565C96.118 249.483 95.5158 249.442 94.9223 249.442Z" fill="#161616"/>
<path d="M94.9466 292.15C98.3195 292.15 101.054 287.784 101.054 282.399C101.054 277.014 98.3195 272.648 94.9466 272.648C91.5736 272.648 88.8392 277.014 88.8392 282.399C88.8392 287.784 91.5736 292.15 94.9466 292.15Z" fill="#EAEFE8"/>
<path d="M94.9538 293.459C94.7548 293.459 94.5529 293.445 94.3538 293.418C92.5103 293.165 90.8389 291.782 89.6475 289.522C88.456 287.262 87.8865 284.397 88.0449 281.453C88.3498 275.782 91.3782 271.339 94.9394 271.339C95.1384 271.339 95.3404 271.353 95.5394 271.38C97.3829 271.633 99.054 273.017 100.246 275.277C101.438 277.536 102.007 280.402 101.848 283.345C101.543 289.016 98.5147 293.459 94.9538 293.459ZM94.9394 273.956C92.2221 273.956 89.9111 277.348 89.6783 281.677C89.5576 283.924 89.992 286.111 90.9015 287.836C91.8113 289.562 93.0873 290.617 94.4942 290.811C94.647 290.832 94.8017 290.843 94.9538 290.843C97.6711 290.843 99.9818 287.451 100.215 283.122C100.336 280.875 99.9012 278.688 98.9917 276.963C98.0819 275.237 96.8062 274.182 95.3991 273.988C95.2463 273.967 95.0915 273.956 94.9394 273.956Z" fill="#161616"/>
<path d="M124.214 201.238L224.127 183.007C224.127 183.007 240.214 191.737 232.023 236.833L130.785 268.253" fill="#161616"/>
<path d="M130.784 269.562C130.4 269.562 130.056 269.128 129.98 268.503C129.894 267.794 130.184 267.106 130.628 266.968L231.373 235.702C234.492 218.076 234.195 203.616 230.508 193.852C228.036 187.304 224.77 184.842 224.019 184.344L124.307 202.538C123.858 202.627 123.451 202.105 123.4 201.387C123.348 200.669 123.671 200.02 124.121 199.938L224.034 181.708C224.154 181.686 224.277 181.706 224.391 181.768C224.567 181.864 228.729 184.197 231.845 192.326C236.957 205.66 235.191 224.087 232.81 237.199C232.724 237.67 232.481 238.025 232.179 238.119L130.941 269.538C130.888 269.554 130.836 269.562 130.784 269.562Z" fill="#161616"/>
<path d="M123.871 270.075C135.723 270.075 145.331 254.735 145.331 235.811C145.331 216.888 135.723 201.548 123.871 201.548C112.019 201.548 102.411 216.888 102.411 235.811C102.411 254.735 112.019 270.075 123.871 270.075Z" fill="#DEE5DC"/>
<path d="M123.897 271.388C122.777 271.388 121.643 271.251 120.527 270.981C114.643 269.555 109.459 264.556 105.93 256.905C102.401 249.253 100.95 239.866 101.844 230.472C102.649 222.009 105.336 214.294 109.412 208.747C113.446 203.257 118.572 200.234 123.844 200.234C124.965 200.234 126.099 200.371 127.215 200.641C139.361 203.586 147.742 221.758 145.897 241.15C145.093 249.613 142.405 257.328 138.33 262.875C134.295 268.365 129.17 271.388 123.897 271.388ZM123.844 202.852C118.961 202.852 114.213 205.653 110.475 210.739C106.7 215.877 104.21 223.025 103.464 230.865C102.637 239.568 103.981 248.264 107.25 255.352C110.519 262.441 115.322 267.072 120.772 268.393C121.808 268.643 122.859 268.771 123.897 268.771C128.78 268.771 133.528 265.969 137.266 260.883C141.042 255.746 143.531 248.598 144.277 240.758C145.985 222.793 138.221 205.957 126.969 203.23C125.934 202.978 124.883 202.852 123.844 202.852Z" fill="#161616"/>
<path d="M123.871 245.563C127.244 245.563 129.978 241.197 129.978 235.811C129.978 230.426 127.244 226.06 123.871 226.06C120.498 226.06 117.763 230.426 117.763 235.811C117.763 241.197 120.498 245.563 123.871 245.563Z" fill="#EAEFE8"/>
<path d="M123.879 246.872C123.531 246.872 123.178 246.829 122.831 246.745C119.055 245.83 116.449 240.18 117.022 234.151C117.532 228.792 120.474 224.75 123.864 224.75C124.212 224.75 124.564 224.793 124.911 224.877C128.687 225.793 131.293 231.443 130.719 237.472C130.21 242.831 127.269 246.872 123.879 246.872ZM123.864 227.368C121.277 227.368 119.032 230.454 118.643 234.545C118.205 239.146 120.195 243.459 123.077 244.158C123.343 244.222 123.613 244.255 123.879 244.255C126.466 244.255 128.71 241.17 129.099 237.08C129.536 232.477 127.547 228.165 124.664 227.465C124.399 227.4 124.13 227.368 123.864 227.368Z" fill="#161616"/>
<path d="M135.33 264.75L234.29 236.195C234.29 236.195 250.699 243.237 244.36 289.09L144.614 330.943" fill="#161616"/>
<path d="M144.614 332.252C144.25 332.252 143.918 331.863 143.821 331.275C143.706 330.576 143.968 329.861 144.406 329.677L243.665 288.028C245.368 275.278 246.224 257.955 241.032 246.202C238.293 240 234.999 237.947 234.239 237.54L135.476 266.038C135.031 266.168 134.604 265.694 134.523 264.982C134.443 264.271 134.739 263.59 135.184 263.462L234.145 234.907C234.263 234.874 234.386 234.881 234.503 234.931C234.682 235.008 238.931 236.904 242.372 244.693C248.015 257.468 247.003 276.041 245.16 289.372C245.094 289.851 244.865 290.231 244.568 290.355L144.822 332.208C144.753 332.238 144.682 332.252 144.614 332.252Z" fill="#161616"/>
<path d="M136.395 333.549C148.247 333.549 157.854 318.209 157.854 299.286C157.854 280.362 148.247 265.022 136.395 265.022C124.543 265.022 114.935 280.362 114.935 299.286C114.935 318.209 124.543 333.549 136.395 333.549Z" fill="#DEE5DC"/>
<path d="M136.419 334.86C135.779 334.86 135.129 334.816 134.488 334.728C128.559 333.914 123.183 329.464 119.35 322.196C115.518 314.926 113.687 305.709 114.197 296.242C114.677 287.311 117.223 279.066 121.366 273.024C125.485 267.019 130.813 263.711 136.37 263.711C137.01 263.711 137.659 263.756 138.3 263.844C144.23 264.657 149.606 269.108 153.438 276.377C157.271 283.646 159.101 292.862 158.592 302.329C158.111 311.261 155.565 319.505 151.422 325.547C147.304 331.553 141.976 334.86 136.419 334.86ZM136.37 266.329C131.224 266.329 126.288 269.393 122.472 274.957C118.633 280.554 116.275 288.192 115.83 296.466C115.358 305.237 117.054 313.775 120.604 320.509C124.155 327.244 129.135 331.367 134.628 332.12C135.223 332.202 135.825 332.243 136.419 332.243C141.565 332.243 146.501 329.179 150.317 323.615C154.155 318.019 156.514 310.38 156.959 302.106C157.431 293.335 155.735 284.797 152.185 278.062C148.634 271.328 143.654 267.205 138.161 266.452C137.566 266.37 136.964 266.329 136.37 266.329Z" fill="#161616"/>
<path d="M136.395 309.037C139.768 309.037 142.502 304.671 142.502 299.286C142.502 293.9 139.768 289.535 136.395 289.535C133.022 289.535 130.287 293.9 130.287 299.286C130.287 304.671 133.022 309.037 136.395 309.037Z" fill="#EAEFE8"/>
<path d="M136.402 310.346C136.203 310.346 136.001 310.332 135.802 310.305C133.958 310.052 132.287 308.669 131.095 306.409C129.904 304.149 129.335 301.283 129.493 298.34C129.798 292.668 132.826 288.226 136.387 288.226C136.586 288.226 136.788 288.24 136.987 288.267C140.793 288.789 143.623 294.157 143.296 300.232C142.991 305.904 139.963 310.346 136.402 310.346ZM136.387 290.843C133.67 290.843 131.359 294.234 131.126 298.563C131.006 300.81 131.44 302.998 132.35 304.723C133.259 306.448 134.535 307.504 135.942 307.697C136.095 307.718 136.25 307.729 136.402 307.729C139.119 307.729 141.43 304.337 141.663 300.009C141.912 295.371 139.752 291.273 136.847 290.875C136.694 290.854 136.54 290.843 136.387 290.843Z" fill="#161616"/>
<path d="M162.723 337.463C162.437 337.463 162.173 337.161 162.092 336.698C161.995 336.142 162.198 335.564 162.547 335.408L245.639 298.277C245.988 298.121 246.35 298.446 246.447 299.003C246.545 299.56 246.341 300.137 245.993 300.293L162.901 337.424C162.841 337.451 162.782 337.463 162.723 337.463Z" fill="#AFB7AC"/>
<path d="M166.986 346.886C166.699 346.886 166.435 346.583 166.354 346.121C166.257 345.564 166.46 344.986 166.809 344.83L249.901 307.7C250.251 307.543 250.612 307.869 250.709 308.426C250.807 308.982 250.604 309.56 250.255 309.716L167.163 346.847C167.104 346.873 167.044 346.886 166.986 346.886Z" fill="#AFB7AC"/>
<path d="M171.248 359.973C170.965 359.973 170.704 359.678 170.62 359.223C170.516 358.669 170.714 358.086 171.061 357.922L251.531 319.744C251.877 319.579 252.243 319.895 252.346 320.45C252.449 321.004 252.251 321.587 251.904 321.751L171.435 359.929C171.373 359.958 171.31 359.973 171.248 359.973Z" fill="#AFB7AC"/>
<path d="M170.265 375.153C169.99 375.153 169.734 374.875 169.643 374.436C169.528 373.888 169.714 373.295 170.058 373.113L251.839 329.701C252.182 329.516 252.554 329.815 252.668 330.364C252.782 330.912 252.596 331.505 252.252 331.687L170.471 375.099C170.403 375.136 170.333 375.153 170.265 375.153Z" fill="#AFB7AC"/>
<path d="M154.583 270.318C154.275 270.318 154 269.971 153.94 269.47C153.871 268.902 154.103 268.353 154.459 268.243L235.964 243.009C236.32 242.901 236.663 243.27 236.733 243.838C236.801 244.406 236.569 244.955 236.214 245.065L154.709 270.299C154.666 270.312 154.624 270.318 154.583 270.318Z" fill="#AFB7AC"/>
<path d="M158.208 279.887C157.901 279.887 157.627 279.54 157.566 279.039C157.497 278.471 157.729 277.922 158.085 277.812L239.59 252.578C239.946 252.469 240.289 252.839 240.358 253.407C240.427 253.974 240.195 254.524 239.839 254.634L158.334 279.868C158.292 279.88 158.25 279.887 158.208 279.887Z" fill="#AFB7AC"/>
<path d="M161.655 292.969C161.351 292.969 161.079 292.631 161.014 292.138C160.939 291.572 161.166 291.016 161.521 290.897L240.561 264.332C240.914 264.213 241.263 264.576 241.338 265.141C241.412 265.707 241.186 266.262 240.831 266.381L161.791 292.946C161.745 292.962 161.7 292.969 161.655 292.969Z" fill="#AFB7AC"/>
<path d="M159.968 307.404C159.673 307.404 159.405 307.084 159.332 306.606C159.246 306.044 159.461 305.478 159.813 305.34L240.368 273.92C240.719 273.783 241.074 274.127 241.16 274.688C241.246 275.25 241.031 275.816 240.679 275.953L160.124 307.375C160.072 307.395 160.02 307.404 159.968 307.404Z" fill="#AFB7AC"/>
<path d="M147.694 211.397C147.367 211.397 147.084 211.006 147.044 210.473C147.001 209.899 147.258 209.378 147.618 209.31L223.814 194.817C224.172 194.754 224.5 195.159 224.543 195.733C224.586 196.308 224.329 196.829 223.969 196.897L147.773 211.389C147.746 211.394 147.72 211.397 147.694 211.397Z" fill="#AFB7AC"/>
<path d="M175.998 217.053C175.675 217.053 175.394 216.671 175.35 216.146C175.301 215.573 175.553 215.045 175.912 214.968L226.743 204.03C227.101 203.957 227.432 204.355 227.48 204.928C227.528 205.501 227.277 206.029 226.918 206.106L176.087 217.044C176.057 217.05 176.028 217.053 175.998 217.053Z" fill="#AFB7AC"/>
<path d="M153.258 233.037C152.935 233.037 152.653 232.656 152.609 232.131C152.56 231.558 152.812 231.03 153.171 230.953L227.152 214.969C227.51 214.89 227.841 215.292 227.89 215.865C227.939 216.439 227.687 216.966 227.328 217.044L153.346 233.028C153.317 233.034 153.287 233.037 153.258 233.037Z" fill="#AFB7AC"/>
<path d="M151.093 246.162C150.779 246.162 150.501 245.801 150.448 245.289C150.388 244.719 150.628 244.179 150.986 244.083L226.568 223.785C226.922 223.688 227.263 224.074 227.323 224.644C227.383 225.214 227.142 225.754 226.785 225.85L151.203 246.148C151.166 246.158 151.13 246.162 151.093 246.162Z" fill="#AFB7AC"/>
<path d="M219.57 180.396C218.721 180.396 217.808 180.172 216.855 179.73C216.798 179.703 216.742 179.667 216.69 179.621L202.062 166.83C201.574 166.433 189.613 156.27 189.506 118.996C189.505 118.5 189.679 118.046 189.956 117.822C190.234 117.598 190.566 117.644 190.815 117.94L209.869 140.574V95.2572C209.869 94.7144 210.079 94.2275 210.397 94.0344C210.715 93.8412 211.074 93.981 211.3 94.3867C213.711 98.7037 220.823 109.908 224.729 109.908C225.333 109.908 225.811 109.631 226.192 109.06C226.43 108.702 226.779 108.605 227.079 108.813C227.379 109.02 227.573 109.492 227.573 110.014V162.348C227.504 168.606 225.742 180.396 219.57 180.396ZM217.397 177.256C218.17 177.603 218.9 177.779 219.57 177.779C225.692 177.779 225.934 162.479 225.934 162.325V112.251C225.606 112.434 225.159 112.525 224.729 112.525C220.529 112.525 214.299 103.143 211.508 98.5629V143.179C211.508 143.673 211.333 144.126 211.057 144.348C210.779 144.57 210.448 144.524 210.199 144.228L191.175 121.63C191.374 131.668 192.621 144.841 197.038 155.275C199.907 162.051 202.801 164.493 202.83 164.517L217.397 177.256Z" fill="#161616"/>
<path d="M213.639 100.744C213.186 100.744 212.819 100.158 212.819 99.4356V80.0484C212.088 77.6818 208.643 65.8623 211.24 61.261C213.812 56.7037 217.61 55.2485 217.77 55.1883C218.046 55.0857 218.336 55.2181 218.536 55.538C218.736 55.8578 218.819 56.3205 218.754 56.7613C218.733 56.9063 218.312 59.7142 217.317 62.1337C218.31 62.9649 219.529 64.8944 219.819 69.3712C219.866 70.0899 219.539 70.7332 219.088 70.807C218.637 70.8835 218.235 70.3595 218.189 69.6402C217.839 64.2385 215.941 64.1213 215.922 64.1208C215.594 64.1108 215.302 63.7915 215.178 63.3073C215.054 62.8231 215.122 62.2682 215.352 61.895C215.91 60.9878 216.347 59.6974 216.654 58.539C215.45 59.3179 213.749 60.7255 212.458 63.0136C210.964 65.6603 212.838 74.3148 214.371 79.148C214.429 79.3317 214.459 79.5338 214.459 79.7395V99.4356C214.459 100.158 214.092 100.744 213.639 100.744Z" fill="#161616"/>
<path d="M223.803 107.549C223.35 107.549 222.983 106.964 222.983 106.241V86.5849C222.983 86.2436 223.067 85.9159 223.216 85.6714L228.361 77.2436C228.677 76.7259 229.196 76.7159 229.52 77.22C229.844 77.7246 229.851 78.5533 229.535 79.0705L224.622 87.1173V106.241C224.622 106.964 224.255 107.549 223.803 107.549Z" fill="#161616"/>
<path d="M245.223 84.3932C240.794 84.3932 235.336 79.9484 234.855 79.5485L218.584 67.9269C218.171 67.6317 217.986 66.8575 218.171 66.1979C218.356 65.5383 218.841 65.2426 219.254 65.5373L235.547 77.1751C235.563 77.186 235.578 77.1981 235.593 77.2106C235.668 77.2724 243.094 83.4232 247.071 81.3722C247.936 80.9262 248.539 80.1264 248.915 78.9255C249.099 78.3351 249.104 77.6446 248.93 76.8149C247.434 69.7114 234.545 58.2558 229.704 54.4418C221.852 47.7561 209.894 40.1192 207.824 44.0122C207.247 45.0979 207.017 46.2731 207.12 47.6053C207.475 52.1553 211.444 56.72 211.484 56.7655C211.853 57.1848 211.939 58.0019 211.676 58.5903C211.414 59.1792 210.903 59.3164 210.534 58.8986C210.347 58.6861 205.94 53.6268 205.494 47.934C205.331 45.8611 205.694 43.9719 206.574 42.3177C208.272 39.1251 212.736 39.8637 220.22 44.5797C225.49 47.9011 230.403 52.0716 230.452 52.1129C231.165 52.6735 248.465 66.4 250.483 75.9805C250.799 77.4834 250.765 78.8679 250.38 80.096C249.805 81.9329 248.86 83.2002 247.573 83.8634C246.853 84.2356 246.056 84.3927 245.223 84.3932Z" fill="#161616"/>
<path d="M249.878 77.6258C249.568 77.6258 249.271 77.3432 249.133 76.8642C244.658 61.3543 236.685 50.9299 225.435 45.88C216.988 42.0885 209.765 42.9266 209.693 42.935C209.236 42.99 208.847 42.4524 208.812 41.7321C208.777 41.0118 209.114 40.382 209.565 40.3255C209.869 40.2878 217.107 39.4398 225.826 43.3365C233.912 46.9505 244.776 55.5108 250.621 75.7691C250.811 76.4255 250.631 77.2029 250.22 77.5049C250.109 77.5871 249.993 77.6258 249.878 77.6258Z" fill="#161616"/>
<path d="M244.711 64.4432C244.553 64.4432 244.393 64.3705 244.253 64.2187C243.877 63.814 243.779 63 244.033 62.4012C244.058 62.3415 246.614 56.1536 245.634 49.3631C245.003 44.9927 243.047 41.2588 239.821 38.2645C235.069 33.8527 230.628 33.2675 226.623 36.525C223.629 38.9602 222.022 42.6905 222.006 42.7281C221.752 43.3265 221.242 43.4819 220.867 43.0768C220.493 42.6711 220.395 41.8571 220.649 41.2588C220.722 41.0881 228.05 24.312 240.645 36.0021C244.285 39.38 246.502 43.6877 247.235 48.803C248.368 56.7142 245.512 63.5795 245.39 63.8674C245.232 64.2422 244.974 64.4432 244.711 64.4432Z" fill="#161616"/>
<path d="M246.247 58.8206C245.974 58.8206 245.707 58.6034 245.551 58.2066C239.527 42.8464 223.555 39.6464 223.394 39.6156C222.944 39.5302 222.623 38.8796 222.677 38.1619C222.73 37.4447 223.139 36.9328 223.587 37.0165C223.758 37.049 227.847 37.8431 232.777 40.6484C239.364 44.3959 244.262 49.9871 246.941 56.8168C247.181 57.4292 247.065 58.2369 246.682 58.6206C246.546 58.7562 246.396 58.8206 246.247 58.8206Z" fill="#161616"/>
<path d="M226.637 111.323C226.423 111.323 226.21 111.19 226.049 110.925C225.734 110.407 225.742 109.578 226.066 109.075C226.601 108.245 226.833 107.365 226.776 106.383C226.612 103.588 224.231 100.499 223.327 99.5445C222.95 99.1456 222.846 98.3342 223.095 97.7312C223.344 97.1287 223.852 96.9627 224.23 97.359C224.629 97.7794 228.14 101.595 228.408 106.135C228.513 107.907 228.098 109.573 227.208 110.953C227.049 111.2 226.843 111.323 226.637 111.323Z" fill="#161616"/>
<path d="M177.426 92.1342C176.356 92.1342 175.47 91.2359 175.354 91.1134C174.976 90.714 174.873 89.9021 175.123 89.2996C175.373 88.6986 175.879 88.5338 176.256 88.9285C176.477 89.1556 177.17 89.6927 177.73 89.4572C178.049 89.3232 178.309 88.9384 178.524 88.2814C178.734 87.6407 179.229 87.3936 179.63 87.7276C180.031 88.0626 180.187 88.8531 179.977 89.4938C179.432 91.1584 178.673 91.7725 178.133 91.9939C177.893 92.0933 177.655 92.1342 177.426 92.1342Z" fill="#161616"/>
<path d="M189.432 88.939C188.361 88.939 187.475 88.0407 187.359 87.9182C186.982 87.5188 186.879 86.7069 187.129 86.1044C187.379 85.5035 187.885 85.3386 188.262 85.7333C188.483 85.9615 189.176 86.498 189.736 86.262C190.055 86.1279 190.315 85.7432 190.53 85.0862C190.74 84.4455 191.235 84.1979 191.636 84.5324C192.037 84.8674 192.192 85.6579 191.983 86.2986C191.438 87.9632 190.679 88.5773 190.139 88.7992C189.898 88.8981 189.661 88.939 189.432 88.939Z" fill="#161616"/>
<path d="M182.915 114.497C181.052 114.497 179.014 114.139 176.807 113.423C172.915 112.16 169.99 110.239 169.868 110.158C169.45 109.881 169.251 109.116 169.424 108.448C169.597 107.781 170.077 107.463 170.495 107.739C170.609 107.815 181.973 115.212 188.988 110.019C194.489 105.948 190.56 86.2295 188.582 78.9748C188.401 78.3121 188.591 77.541 189.006 77.2526C189.421 76.9626 189.904 77.2667 190.085 77.9299C190.401 79.0905 197.744 106.424 189.678 112.394C187.786 113.796 185.523 114.497 182.915 114.497Z" fill="#161616"/>
<path d="M166.465 116.647C166.062 116.647 165.711 116.174 165.654 115.518L164.327 100.213C162.546 100.19 160.969 99.2005 160.008 97.4637C159.312 96.2047 158.587 93.9229 159.09 90.2016C159.396 87.9433 160.217 86.8974 160.853 86.4185C163.115 84.7135 166.467 87.3691 166.842 87.6779C167.244 88.0093 167.402 88.7982 167.195 89.4405C166.987 90.0822 166.494 90.3335 166.091 90.0048C165.27 89.3321 162.853 87.802 161.552 88.7861C161.268 89.0002 160.871 89.4373 160.693 90.7533C160.405 92.8828 160.588 94.5579 161.237 95.7305C161.993 97.0978 163.388 97.7793 164.964 97.5548C165.398 97.4878 165.789 97.9871 165.849 98.6786L167.278 115.159C167.34 115.874 167.027 116.535 166.578 116.634C166.54 116.643 166.502 116.647 166.465 116.647Z" fill="#161616"/>
<path d="M170.182 94.7245H171.611L170.182 78.5294L157.318 62.7933C157.318 62.7933 150.744 72.4226 154.174 87.7283C157.604 103.035 165.329 102.241 165.329 102.241C165.329 102.241 166.871 99.0405 165.036 98.8562C163.162 98.6693 159.741 97.7286 159.891 90.5587C160.033 83.7928 168.181 87.3959 170.182 94.7245Z" fill="#161616"/>
<path d="M158.462 61.0271L171.611 78.4534C171.611 78.4534 185.76 78.1419 190.334 74.7189L191.906 81.1089C191.906 81.1089 198.623 64.2218 190.334 53.04C182.044 41.8587 167.037 35.2404 158.462 61.0271Z" fill="#161616"/>
<path d="M149.6 227.43C149.399 227.43 149.203 227.311 149.051 227.093C148.863 226.822 148.764 226.428 148.783 226.025L152.584 143.114C152.606 141.873 153.229 117.706 166.429 116.769C166.543 116.76 166.652 116.791 166.752 116.849C166.968 116.721 167.215 116.742 167.428 116.926L178.276 126.307L186.223 115.264C186.457 114.939 186.786 114.852 187.073 115.041L189.847 116.866C189.873 116.884 189.9 116.904 189.926 116.926C190.308 117.257 199.282 125.24 199.871 143.11C200.438 160.3 199.878 211.602 199.872 212.118C199.865 212.743 199.582 213.273 199.196 213.383L149.744 227.409C149.696 227.423 149.648 227.43 149.6 227.43ZM166.548 119.379C166.533 119.381 166.517 119.383 166.502 119.384C161.524 119.738 157.95 123.787 155.882 131.419C154.294 137.274 154.222 143.139 154.222 143.198C154.222 143.223 154.221 143.249 154.22 143.275L150.495 224.538L198.244 210.995C198.322 203.49 198.752 158.963 198.234 143.248C197.712 127.4 189.761 119.793 189.175 119.256L186.917 117.77L186.854 117.858C187.032 118.157 187.12 118.587 187.064 119.023L184.706 137.508C184.647 137.969 184.438 138.344 184.158 138.49C183.878 138.637 183.57 138.532 183.352 138.216L178.546 131.256L174.943 140.018C174.784 140.403 174.507 140.62 174.223 140.608C173.935 140.588 173.675 140.329 173.537 139.924L166.548 119.379ZM169.076 121.328L174.324 136.753L177.627 128.721L169.076 121.328ZM179.138 128.58L183.386 134.733L185.256 120.078L179.138 128.58Z" fill="#161616"/>
<path d="M169.87 217.74H163.313V118.804H167.348L169.87 126.48V217.74Z" fill="#946D42"/>
<path d="M179.897 187.998C179.46 187.998 179.097 187.448 179.079 186.743L177.567 129.313C177.548 128.591 177.899 127.981 178.351 127.951C178.799 127.942 179.186 128.481 179.205 129.204L180.717 186.634C180.736 187.356 180.384 187.966 179.932 187.997C179.92 187.997 179.909 187.998 179.897 187.998Z" fill="#161616"/>
<path d="M193.148 217.74H186.263V118.99L187.755 116.251L193.148 122.641V217.74Z" fill="#946D42"/>
<path d="M149.543 226.243V254.084C149.543 254.084 151.73 272.796 162.549 268.232C173.369 263.668 186.282 254.996 186.282 254.996C186.282 254.996 193.918 249.519 197.062 237.653C200.207 225.787 199.1 212.095 199.1 212.095L149.543 226.243Z" fill="#946D42"/>
<path d="M154.315 134.506L142.312 202.967C142.312 202.967 141.168 214.833 146.742 217.571C152.316 220.309 154.317 218.483 155.175 217.571C156.032 216.659 191.478 182.96 191.478 182.96L183.902 159.838L158.891 179.462" fill="#DEE5DC"/>
<path d="M151.792 220.327C150.458 220.327 148.741 219.923 146.501 218.822C141.556 216.393 141.069 207.259 141.501 202.768C141.506 202.716 141.513 202.665 141.522 202.614L153.525 134.153C153.647 133.457 154.101 133.051 154.535 133.246C154.971 133.441 155.226 134.163 155.104 134.859L143.115 203.238C143.027 204.258 142.313 214.027 146.983 216.321C152.38 218.972 154.141 217.098 154.72 216.483C155.529 215.621 185.369 187.245 190.391 182.469L183.546 161.575L159.252 180.637C158.845 180.954 158.354 180.688 158.155 180.039C157.955 179.391 158.123 178.607 158.529 178.287L183.541 158.662C183.941 158.349 184.422 158.602 184.629 159.23L192.204 182.353C192.405 182.969 192.271 183.729 191.897 184.085C179.651 195.727 156.311 217.936 155.629 218.66C154.869 219.47 153.736 220.327 151.792 220.327Z" fill="#161616"/>
<path d="M187.761 96.2947H184.624C184.171 96.2947 183.804 95.7089 183.804 94.986C183.804 94.2631 184.171 93.6773 184.624 93.6773H186.39L185.042 89.6728C184.827 89.0363 184.977 88.2432 185.376 87.9003C185.774 87.5585 186.271 87.7962 186.486 88.4337L188.484 94.3667C188.62 94.7719 188.613 95.2624 188.465 95.6576C188.317 96.0528 188.05 96.2947 187.761 96.2947Z" fill="#161616"/>
<path d="M187.755 208.383L205.411 172.419C205.411 172.419 214.425 162.727 219.027 169.209C224.536 176.967 224.295 191.1 224.295 191.1V264.124C224.295 264.124 231.398 275.078 231.398 283.749C231.398 283.749 227.875 287.857 219.092 283.749C210.309 279.642 202.656 263.668 202.656 263.668V230.351L187.756 253.639" fill="#946D42"/>
<path d="M159.594 226.119L177.324 190.186C177.324 190.186 186.447 180.512 191.049 186.992C196.559 194.751 196.426 208.9 196.426 208.9V281.924C196.426 281.924 203.456 292.878 203.456 301.549C203.456 301.549 199.806 305.656 191.023 301.549C182.241 297.441 174.46 281.467 174.46 281.467V226.115" fill="#946D42"/>
<path d="M174.624 242.081C174.171 242.081 173.805 241.495 173.805 240.772V226.115C173.805 225.392 174.171 224.807 174.624 224.807C175.077 224.807 175.444 225.392 175.444 226.115V240.772C175.444 241.495 175.077 242.081 174.624 242.081Z" fill="#161616"/>
<path d="M196.263 242.081C195.81 242.081 195.443 241.495 195.443 240.772V208.9C195.445 208.738 195.551 195.263 190.4 188.009C188.322 185.082 185.042 186.087 182.656 187.444C180.282 188.795 178.308 190.748 177.836 191.231L156.977 234.309C156.7 234.88 156.186 234.986 155.827 234.543C155.469 234.101 155.404 233.279 155.68 232.707L176.624 189.455C176.678 189.344 176.742 189.247 176.816 189.169C177.207 188.749 186.465 178.979 191.484 186.046C197.213 194.114 197.082 208.327 197.082 208.928V240.772C197.082 241.495 196.716 242.081 196.263 242.081Z" fill="#161616"/>
<path d="M196.427 281.924V240.772H174.46V281.467C174.46 281.467 182.29 297.441 191.073 301.549C199.856 305.656 203.418 301.549 203.418 301.549C203.419 292.877 196.427 281.924 196.427 281.924Z" fill="#FBFCFA"/>
<path d="M198.27 304.683C196.06 304.683 193.589 304.051 190.925 302.805C187.159 301.044 183.159 297.047 179.038 290.926C175.989 286.399 174.057 282.435 173.976 282.269C173.865 282.039 173.805 281.757 173.805 281.468V240.511C173.805 239.788 174.172 239.202 174.624 239.202H196.591C197.044 239.202 197.411 239.788 197.411 240.511V281.387C198.688 283.489 204.361 293.286 204.361 301.549C204.361 301.972 204.234 302.368 204.018 302.614C203.943 302.699 202.158 304.683 198.27 304.683ZM175.444 281.009C176.621 283.327 183.665 296.682 191.385 300.293C193.9 301.469 196.216 302.066 198.27 302.066C200.656 302.066 202.085 301.254 202.703 300.793C202.316 292.872 196.08 282.958 196.015 282.855C195.859 282.609 195.771 282.274 195.771 281.924V241.819H175.444V281.009Z" fill="#161616"/>
<path d="M196.623 283.233C196.395 283.233 196.168 283.081 196.006 282.786C194.129 279.361 188.514 281.245 186.508 282.259C186.077 282.479 185.616 282.095 185.48 281.406C185.343 280.717 185.582 279.982 186.013 279.764C186.095 279.722 188.05 278.742 190.367 278.359C193.647 277.815 195.959 278.725 197.239 281.061C197.537 281.605 197.503 282.432 197.162 282.908C197.007 283.126 196.815 283.233 196.623 283.233Z" fill="#161616"/>
<path d="M202.656 230.351V263.668C202.656 263.668 210.395 279.642 219.177 283.749C227.96 287.857 231.405 283.749 231.405 283.749C231.405 275.078 224.294 264.124 224.294 264.124V222.451H202.483L202.656 230.351Z" fill="#FBFCFA"/>
<path d="M226.344 286.884C224.154 286.884 221.694 286.252 219.028 285.006C215.262 283.244 211.277 279.246 207.185 273.123C204.159 268.595 202.248 264.63 202.169 264.464C202.059 264.235 202 263.955 202 263.668V230.394L201.664 222.275C201.65 221.914 201.729 221.559 201.884 221.295C202.039 221.03 202.256 220.88 202.483 220.88H224.458C224.911 220.88 225.278 221.466 225.278 222.189V263.58C226.579 265.685 232.347 275.481 232.347 283.749C232.347 284.165 232.224 284.555 232.014 284.802C231.942 284.887 230.204 286.884 226.344 286.884ZM203.639 263.213C204.801 265.527 211.771 278.884 219.489 282.493C222.005 283.67 224.311 284.266 226.343 284.266C228.684 284.266 230.082 283.461 230.689 283.001C230.298 275.084 223.953 265.165 223.887 265.063C223.728 264.816 223.638 264.478 223.638 264.124V223.498H203.358L203.638 230.265C203.638 230.294 203.639 230.322 203.639 230.351V263.213H203.639Z" fill="#161616"/>
<path d="M202.82 223.76C202.367 223.76 202 223.174 202 222.451V203.083C202 202.36 202.367 201.774 202.82 201.774C203.273 201.774 203.64 202.36 203.64 203.083V222.451C203.64 223.174 203.273 223.76 202.82 223.76Z" fill="#161616"/>
<path d="M213.917 266.834C213.592 266.834 213.285 266.524 213.156 266.015C212.988 265.345 213.19 264.583 213.61 264.312C213.854 264.155 219.648 260.487 224.861 262.865C225.296 263.064 225.548 263.789 225.424 264.483C225.3 265.179 224.847 265.581 224.411 265.383C219.747 263.254 214.277 266.704 214.223 266.74C214.123 266.804 214.019 266.834 213.917 266.834Z" fill="#161616"/>
<path d="M155.117 62.2693H152.494C152.041 62.2693 151.674 61.6836 151.674 60.9607C151.674 60.2377 152.041 59.652 152.494 59.652H155.117C155.569 59.652 155.936 60.2377 155.936 60.9607C155.936 61.6836 155.569 62.2693 155.117 62.2693Z" fill="#161616"/>
<path d="M155.032 57.7716C154.817 57.7716 154.602 57.6376 154.442 57.3712L153.155 55.2417C152.841 54.7214 152.851 53.8932 153.176 53.3912C153.502 52.8897 154.021 52.9049 154.335 53.4247L155.622 55.5542C155.936 56.0745 155.926 56.9027 155.601 57.4047C155.442 57.6502 155.237 57.7716 155.032 57.7716Z" fill="#161616"/>
<path d="M182.615 120.299C182.191 120.299 181.832 119.777 181.799 119.09L181.513 113.156C181.478 112.436 181.816 111.807 182.267 111.751C182.72 111.686 183.113 112.235 183.148 112.956L183.434 118.889C183.468 119.61 183.131 120.239 182.679 120.294C182.658 120.298 182.636 120.299 182.615 120.299Z" fill="#161616"/>
<path d="M186.017 164.546L198.481 152.992C198.481 152.992 203.34 149.568 206.199 152.992C209.057 156.415 212.488 164.546 212.488 164.546C212.488 164.546 209.966 165.375 209.011 164.546L207.628 160.066C207.628 160.066 210.823 170.096 209.583 171.927C208.343 173.757 204.769 166.911 204.769 166.911C204.769 166.911 208.485 177.116 207.056 179.088C205.627 181.06 202.483 171.186 202.483 171.186C202.483 171.186 199.625 178.132 195.622 175.811L191.192 179.349" fill="#DEE5DC"/>
<path d="M191.192 180.658C190.892 180.658 190.602 180.392 190.459 179.934C190.256 179.287 190.42 178.502 190.825 178.178L195.256 174.641C195.457 174.48 195.691 174.459 195.902 174.582C199.238 176.513 201.696 170.713 201.799 170.466C201.96 170.078 202.237 169.853 202.53 169.882C202.821 169.908 203.081 170.178 203.214 170.593C204.361 174.194 205.902 177.595 206.552 178.003C206.834 176.893 205.687 172.035 204.061 167.569C203.847 166.982 203.951 166.23 204.299 165.839C204.649 165.45 205.127 165.551 205.399 166.073C206.737 168.633 208.459 170.932 209.025 170.934C209.26 169.928 208.447 165.805 207.235 161.75L206.893 160.644C206.694 159.999 206.858 159.217 207.261 158.895C207.664 158.574 208.154 158.831 208.359 159.472C208.505 159.931 208.66 160.43 208.817 160.955L209.605 163.509C209.929 163.627 210.467 163.631 211.045 163.553C209.892 161.022 207.638 156.35 205.707 154.038C203.391 151.263 199.284 153.874 198.849 154.164L186.428 165.678C186.037 166.041 185.535 165.828 185.308 165.203C185.081 164.578 185.214 163.777 185.605 163.414L198.07 151.86C198.096 151.835 198.123 151.813 198.15 151.794C198.367 151.642 203.485 148.105 206.691 151.944C209.626 155.459 213.024 163.475 213.167 163.815C213.32 164.177 213.35 164.636 213.246 165.04C213.143 165.445 212.92 165.74 212.653 165.828C212.347 165.928 211.223 166.269 210.16 166.216C210.729 169.049 210.941 171.704 210.139 172.888C209.818 173.363 209.4 173.587 208.933 173.54C208.466 173.491 207.948 173.135 207.429 172.617C208.415 176.56 208.462 178.879 207.593 180.078C207.239 180.566 206.787 180.754 206.32 180.608C204.903 180.164 203.282 176.187 202.35 173.555C200.948 175.974 198.509 178.551 195.688 177.223L191.559 180.519C191.441 180.613 191.315 180.658 191.192 180.658Z" fill="#161616"/>
<path d="M214.345 148.595C214.174 148.595 214.001 148.509 213.854 148.333L210.424 144.226C210.062 143.792 209.988 142.972 210.26 142.394C210.532 141.816 211.045 141.7 211.407 142.132L214.837 146.239C215.199 146.672 215.273 147.493 215.001 148.071C214.84 148.414 214.594 148.595 214.345 148.595Z" fill="#161616"/>
<path d="M218.919 46.4227C218.919 46.4227 213.821 45.0035 212.63 48.147C211.44 51.2909 228.038 65.1346 228.038 65.1346C228.038 65.1346 244.218 78.1423 246.246 75.0596C247.973 72.4359 243.836 66.4181 243.836 66.4181C243.836 66.4181 223.069 46.5342 218.919 46.4227Z" fill="#161616"/>
<path d="M176.011 99.1146C175.769 101.164 179.321 107.292 183.56 104.744C185.846 103.371 184.469 99.9725 181.81 99.9725C180.323 99.972 176.74 92.9334 176.011 99.1146Z" fill="#161616"/>
<path d="M313.436 287.905C313.239 287.905 313.045 287.791 312.893 287.578L308.666 281.622C308.327 281.144 308.294 280.317 308.593 279.775C308.893 279.234 309.411 279.182 309.75 279.659L312.992 284.226L315.826 267.69C315.946 266.993 316.394 266.582 316.833 266.773C317.27 266.963 317.527 267.683 317.407 268.381L314.226 286.942C314.151 287.377 313.941 287.721 313.67 287.85C313.593 287.887 313.514 287.905 313.436 287.905Z" fill="#161616"/>
<path d="M313.437 287.905C313.38 287.905 313.323 287.895 313.266 287.877L308.297 286.2C307.854 286.05 307.571 285.356 307.664 284.649C307.758 283.941 308.196 283.493 308.636 283.638L313.605 285.315C314.048 285.465 314.331 286.159 314.238 286.866C314.156 287.482 313.816 287.905 313.437 287.905Z" fill="#161616"/>
<path d="M298.988 229.957C298.988 229.957 306.931 251.662 308.052 256.465C309.172 261.268 321.923 288.931 336.567 274.091C336.567 274.091 344.525 269.134 344.746 251.134L317.556 231.582C317.556 231.582 305.841 210.545 298.988 229.957Z" fill="#EAEFE8"/>
<path d="M327.774 279.509C327.773 279.509 327.773 279.509 327.772 279.509C316.555 279.509 308.222 260.836 307.283 256.811C306.2 252.168 298.36 230.779 298.281 230.562C298.134 230.161 298.131 229.693 298.274 229.287C300.357 223.387 303.095 220.409 306.411 220.409C311.963 220.409 317.173 228.983 318.048 230.493L345.082 249.937C345.382 250.152 345.572 250.634 345.566 251.158C345.346 269.062 337.856 274.533 336.944 275.146C333.993 278.114 330.908 279.509 327.774 279.509ZM299.937 229.958C301.301 233.7 307.785 251.465 308.82 255.897C309.655 259.477 317.564 276.892 327.772 276.892C327.773 276.892 327.774 276.892 327.774 276.892C330.615 276.892 333.425 275.614 336.128 272.875C336.173 272.829 336.22 272.846 336.27 272.816C336.566 272.628 343.476 268.089 343.91 251.94L317.22 232.761C317.116 232.686 317.021 232.583 316.945 232.445C316.892 232.351 311.631 223.037 306.412 223.037C303.847 223.037 301.671 225.366 299.937 229.958Z" fill="#161616"/>
<path d="M344.746 251.133L361.546 234.192C361.546 234.192 356.02 264.898 344.746 251.133Z" fill="#161616"/>
<path d="M344.428 252.327L364.26 250.377C364.26 250.377 350.165 273.053 344.428 252.327Z" fill="#161616"/>
<path d="M344.76 254.757L363.856 263.522C363.856 263.522 345.819 277.354 344.76 254.757Z" fill="#161616"/>
<path d="M303.912 222.442C303.912 222.442 300.878 210.545 303.912 210.898C306.946 211.25 308.467 215.133 308.467 215.133C308.467 215.133 311.806 210.158 312.913 212.116C314.021 214.074 310.952 223.574 310.952 223.574" fill="#946D42"/>
<path d="M332.809 292.596H327.242C326.789 292.596 326.422 292.01 326.422 291.287C326.422 290.564 326.789 289.979 327.242 289.979H331.498L326.801 274.582C326.603 273.933 326.772 273.149 327.179 272.833C327.587 272.516 328.077 272.786 328.275 273.436L333.546 290.714C333.67 291.119 333.654 291.598 333.504 291.981C333.355 292.363 333.092 292.596 332.809 292.596Z" fill="#161616"/>
<path d="M328.389 296.934C328.104 296.934 327.826 296.696 327.675 296.27C327.452 295.641 327.591 294.842 327.985 294.487L332.406 290.494C332.799 290.139 333.3 290.359 333.522 290.989C333.745 291.618 333.607 292.416 333.213 292.772L328.792 296.764C328.665 296.88 328.526 296.934 328.389 296.934Z" fill="#161616"/>
<path d="M309.49 245.384C309.49 245.384 312.839 247.315 314.547 244.249C316.255 241.182 314.735 235.844 314.735 235.844C314.735 235.844 318.375 236.998 320.472 233.678L317.556 231.582C317.556 231.582 305.841 210.545 298.988 229.957C298.988 229.957 304.251 244.34 306.813 252.281C307.828 251.569 309.795 249.627 309.49 245.384Z" fill="#EAEFE8"/>
<path d="M306.813 253.589C306.515 253.589 306.229 253.328 306.084 252.88C303.562 245.061 298.333 230.761 298.28 230.618C298.134 230.216 298.131 229.72 298.274 229.315C300.357 223.415 303.094 220.424 306.411 220.424C311.963 220.424 317.172 228.991 318.047 230.501L320.808 232.486C321.054 232.663 321.229 233.022 321.278 233.446C321.326 233.87 321.24 234.305 321.048 234.609C319.514 237.038 317.33 237.408 315.914 237.341C316.255 239.449 316.477 242.753 315.159 245.119C314.366 246.542 313.186 247.293 311.747 247.293C311.222 247.293 310.728 247.194 310.317 247.072C310.074 250.976 308.081 252.821 307.142 253.479C307.036 253.554 306.924 253.589 306.813 253.589ZM299.937 229.958C300.942 232.718 304.852 243.502 307.16 250.511C308.062 249.596 308.857 248.064 308.675 245.533C308.643 245.084 308.758 244.639 308.981 244.358C309.203 244.077 309.502 244 309.768 244.153C309.775 244.158 310.699 244.675 311.747 244.675C312.719 244.675 313.455 244.239 313.934 243.379C315.251 241.014 314.002 236.431 313.989 236.385C313.862 235.938 313.902 235.415 314.093 235.031C314.283 234.647 314.592 234.464 314.894 234.56C314.902 234.562 317.082 235.206 318.818 233.925L317.22 232.775C317.115 232.7 317.021 232.59 316.944 232.452C316.892 232.358 311.63 223.041 306.411 223.041C303.847 223.04 301.671 225.367 299.937 229.958Z" fill="#161616"/>
<path d="M320.472 233.678C320.472 233.678 318.882 256.159 327.172 261.235C335.462 266.31 338.557 246.927 338.557 246.927L320.472 233.678Z" fill="#EAEFE8"/>
<path d="M329.846 263.282H329.845C328.888 263.282 327.89 263.022 326.878 262.402C323.201 260.151 320.789 254.406 319.904 245.737C319.254 239.377 319.64 233.754 319.657 233.518C319.687 233.1 319.84 232.739 320.068 232.532C320.298 232.325 320.574 232.309 320.813 232.485L338.899 245.735C339.258 245.999 339.449 246.636 339.351 247.249C339.325 247.411 338.701 251.208 337.268 255.112C335.292 260.492 332.726 263.282 329.846 263.282ZM321.207 235.657C321.055 240.958 321.189 256.171 327.466 260.013C328.289 260.518 329.09 260.773 329.845 260.773C334.522 260.775 336.906 250.914 337.568 247.642L321.207 235.657Z" fill="#161616"/>
<path d="M298.988 229.958C298.988 229.958 296.115 231.702 295.452 237.006L300.739 234.79L298.988 229.958Z" fill="#161616"/>
<path d="M306.635 230.094C307.311 230.094 307.858 229.22 307.858 228.142C307.858 227.063 307.311 226.189 306.635 226.189C305.96 226.189 305.413 227.063 305.413 228.142C305.413 229.22 305.96 230.094 306.635 230.094Z" fill="#161616"/>
<path d="M282.009 290.034C282.009 290.034 288.255 300.713 293.877 295.706C299.499 290.699 299.499 276.268 293.877 275.672C288.255 275.075 292.42 294.356 282.009 290.034Z" fill="#8DC73F"/>
<path d="M291.341 303.327C290.888 303.327 290.522 302.741 290.522 302.018V297.307C290.522 296.584 290.888 295.998 291.341 295.998C291.794 295.998 292.161 296.584 292.161 297.307V302.018C292.161 302.741 291.794 303.327 291.341 303.327Z" fill="#161616"/>
<path d="M293.964 301.233C293.511 301.233 293.144 300.647 293.144 299.924V295.737C293.144 295.014 293.511 294.428 293.964 294.428C294.417 294.428 294.784 295.014 294.784 295.737V299.924C294.784 300.647 294.417 301.233 293.964 301.233Z" fill="#161616"/>
<path d="M297.364 279.502C297.364 279.502 301.258 281.542 301.467 285.622L297.676 284.751L297.364 279.502Z" fill="#161616"/>
<path d="M293.969 282.665C294.605 282.665 295.121 281.841 295.121 280.825C295.121 279.809 294.605 278.986 293.969 278.986C293.332 278.986 292.817 279.809 292.817 280.825C292.817 281.841 293.332 282.665 293.969 282.665Z" fill="#161616"/>
<path d="M268.579 257.622C268.579 257.622 274.826 268.301 280.448 263.294C286.069 258.287 286.069 243.855 280.448 243.259C274.826 242.662 278.99 261.944 268.579 257.622Z" fill="#8DC73F"/>
<path d="M277.899 270.872C277.446 270.872 277.079 270.286 277.079 269.563V264.852C277.079 264.129 277.446 263.543 277.899 263.543C278.352 263.543 278.719 264.129 278.719 264.852V269.563C278.719 270.286 278.352 270.872 277.899 270.872Z" fill="#161616"/>
<path d="M280.522 269.301C280.069 269.301 279.702 268.716 279.702 267.993V263.282C279.702 262.559 280.069 261.973 280.522 261.973C280.975 261.973 281.342 262.559 281.342 263.282V267.993C281.342 268.716 280.975 269.301 280.522 269.301Z" fill="#161616"/>
<path d="M283.934 247.089C283.934 247.089 287.828 249.129 288.037 253.209L284.247 252.337L283.934 247.089Z" fill="#161616"/>
<path d="M280.526 250.733C281.163 250.733 281.679 249.909 281.679 248.893C281.679 247.878 281.163 247.054 280.526 247.054C279.89 247.054 279.374 247.878 279.374 248.893C279.374 249.909 279.89 250.733 280.526 250.733Z" fill="#161616"/>
<path d="M407.474 213.82C407.644 215.45 406.953 216.991 405.933 217.261C404.912 217.532 403.947 216.429 403.777 214.799L389.308 75.5831C389.139 73.953 389.829 72.4119 390.85 72.1418C391.871 71.8712 392.836 72.9736 393.005 74.6037L407.474 213.82Z" fill="#DEE5DC"/>
<path d="M405.624 218.611C404.302 218.611 403.185 217.097 402.969 215.013L388.5 75.7973C388.382 74.6645 388.547 73.5254 388.966 72.591C389.384 71.6566 390.006 71.0384 390.716 70.851C390.862 70.8122 391.011 70.7924 391.159 70.7924C392.48 70.7924 393.597 72.3057 393.814 74.3896L408.283 213.606C408.526 215.945 407.532 218.164 406.067 218.552C405.92 218.591 405.771 218.611 405.624 218.611ZM391.159 73.4092C391.101 73.4092 391.042 73.417 390.984 73.4322C390.706 73.506 390.463 73.7484 390.299 74.1138C390.136 74.4792 390.071 74.9251 390.117 75.368L404.586 214.585C404.68 215.492 405.225 216.124 405.798 215.97C406.372 215.817 406.761 214.949 406.666 214.033L392.197 74.8173C392.112 74.0017 391.675 73.4092 391.159 73.4092Z" fill="#161616"/>
<path d="M390.855 98.8336L396.145 97.1695C396.145 97.1695 396.343 57.502 389.229 56.4436C382.113 55.3856 390.855 98.8336 390.855 98.8336Z" fill="#946D42"/>
<path d="M406.196 203.038C406.196 203.038 409.139 218.017 415.225 218.338C420.796 218.631 424.005 260.172 424.005 260.172C424.005 260.172 422.052 265.745 421.387 260.866C420.722 255.987 416.917 231.166 414.85 231.074C412.783 230.983 416.591 261.93 416.591 261.93C416.591 261.93 415.496 269.677 413.824 264.254C412.152 258.832 410.033 232.35 407.697 232.716C405.361 233.083 408.894 265.76 408.894 265.76C408.894 265.76 407.753 271.325 406.421 267.656C405.09 263.988 402.81 232.917 399.841 234.798C397.629 236.197 400.435 266.416 400.435 266.416C400.435 266.416 399.607 276.722 397.815 267.096C396.983 262.627 392.255 235.566 394.915 225.488C396.278 220.324 403.209 221.521 402.652 203.977L406.196 203.038Z" fill="white"/>
<path d="M399.238 272.514C398.185 272.514 397.593 270.497 397.03 267.469C396.434 264.266 391.288 235.861 394.16 224.98C394.686 222.986 395.808 221.843 396.995 220.631C399.431 218.146 402.193 215.329 401.834 204.044C401.813 203.379 402.108 202.795 402.519 202.686L406.062 201.747C406.465 201.639 406.855 202.024 406.978 202.645C407.006 202.787 409.822 216.744 415.253 217.029C418.939 217.224 421.157 229.702 422.504 239.072C423.995 249.439 424.812 259.907 424.819 260.011C424.84 260.287 424.806 260.644 424.721 260.887C424.366 261.899 423.416 264.329 422.262 264.329C422.261 264.329 422.261 264.329 422.261 264.329C421.685 264.329 420.928 263.727 420.586 261.22C418.643 246.972 416.225 235.972 415.078 233.083C414.808 236.998 415.982 250.213 417.395 261.696C417.417 261.875 417.469 262.05 417.444 262.227C417.22 263.812 416.419 267.493 415.107 267.494V267.492C413.796 267.492 413.346 265.491 413.143 264.834C412.456 262.604 411.737 257.53 410.936 251.655C410.203 246.276 408.874 236.628 407.888 234.389C407.301 237.816 408.316 252.657 409.709 265.538C409.732 265.748 409.719 265.965 409.677 266.168C409.482 267.118 408.738 270.216 407.364 270.216C406.728 270.216 406.172 269.576 405.714 268.312C405.215 266.94 404.736 263.291 403.931 256.96C403.35 252.38 402.69 247.189 401.966 243.04C401.045 237.768 400.399 236.444 400.158 236.117C399.51 238.181 399.729 249.882 401.246 266.224C401.257 266.343 401.258 266.463 401.248 266.583C400.932 270.519 400.256 272.514 399.238 272.514ZM403.498 205.08C403.662 216.935 400.33 220.335 397.877 222.837C396.828 223.908 395.999 224.753 395.671 225.996C394.625 229.956 394.692 237.623 395.863 248.167C396.893 257.439 398.429 265.801 398.601 266.724C398.843 268.023 399.045 268.819 399.193 269.3C399.352 268.58 399.516 267.479 399.608 266.424C399.498 265.215 398.878 258.261 398.493 251.246C397.659 236.085 398.595 234.179 399.539 233.581C399.721 233.466 399.91 233.408 400.1 233.408C402.263 233.408 403.475 240.198 405.538 256.44C406.131 261.107 406.743 265.932 407.131 267.001C407.236 267.291 407.319 267.451 407.372 267.535C407.568 267.26 407.86 266.445 408.05 265.647C407.258 258.272 405.021 235.809 406.719 232.25C407.015 231.629 407.37 231.453 407.617 231.414C407.66 231.407 407.702 231.404 407.745 231.404C409.525 231.404 410.496 236.321 412.51 251.098C413.223 256.327 413.96 261.734 414.559 263.676C414.754 264.309 414.905 264.623 414.994 264.772C415.232 264.338 415.561 263.101 415.752 261.9C415.584 260.519 414.84 254.275 414.241 247.837C412.827 232.631 413.582 231.165 413.946 230.461C414.177 230.012 414.495 229.765 414.84 229.765C415.799 229.807 416.992 230.929 419.428 243.796C420.797 251.026 421.907 258.529 422.187 260.587C422.246 261.013 422.306 261.279 422.353 261.438C422.571 261.168 422.899 260.538 423.156 259.89C422.985 257.803 422.203 248.678 420.903 239.64C418.254 221.226 415.867 219.68 415.198 219.646C409.546 219.348 406.486 208.115 405.649 204.51L403.498 205.08Z" fill="#161616"/>
<path d="M67.046 127.831C74.8747 127.831 81.2212 117.698 81.2212 105.199C81.2212 92.6988 74.8747 82.5658 67.046 82.5658C59.2172 82.5658 52.8707 92.6988 52.8707 105.199C52.8707 117.698 59.2172 127.831 67.046 127.831Z" fill="#DEE5DC"/>
<path d="M67.582 89.933C73.2744 89.933 77.8891 82.565 77.8891 73.4761C77.8891 64.3873 73.2744 57.0193 67.582 57.0193C61.8895 57.0193 57.2748 64.3873 57.2748 73.4761C57.2748 82.565 61.8895 89.933 67.582 89.933Z" fill="#DEE5DC"/>
<path d="M67.4332 158.588C67.4325 158.588 67.4319 158.588 67.4312 158.588C66.9784 158.588 66.6125 157.886 66.6135 157.163L66.7624 66.8894C66.7634 66.168 67.1302 65.41 67.582 65.41C67.5827 65.41 67.5833 65.41 67.584 65.41C68.0368 65.41 68.4026 66.1178 68.4017 66.8402L68.2528 157.111C68.2518 157.833 67.885 158.588 67.4332 158.588Z" fill="#161616"/>
<path d="M67.4325 111.417C67.302 111.417 67.1696 111.367 67.0463 111.262L59.3869 104.715C58.9879 104.374 58.8378 103.58 59.0512 102.943C59.2653 102.306 59.7617 102.067 60.1607 102.407L67.8201 108.954C68.2191 109.295 68.3692 110.089 68.1558 110.726C68.0082 111.166 67.725 111.417 67.4325 111.417Z" fill="#161616"/>
<path d="M67.5814 83.8733C67.3962 83.8733 67.2096 83.7739 67.0562 83.5687C66.7087 83.1049 66.6628 82.2799 66.9532 81.7255L72.9786 70.2197C73.2691 69.6648 73.7858 69.5905 74.133 70.0553C74.4805 70.5191 74.5264 71.3441 74.2359 71.8985L68.2106 83.4043C68.0486 83.7142 67.8158 83.8733 67.5814 83.8733Z" fill="#161616"/>
<path d="M141.284 472.109C141.22 472.109 141.155 472.097 141.091 472.072C140.651 471.903 140.38 471.195 140.487 470.492C140.546 470.1 141.988 460.755 146.037 448.869C149.777 437.89 156.537 422.655 167.505 412.421C167.896 412.055 168.398 412.266 168.626 412.89C168.855 413.514 168.723 414.316 168.332 414.68C147.953 433.696 142.136 470.736 142.08 471.108C141.989 471.707 141.654 472.109 141.284 472.109Z" fill="#161616"/>
<path d="M128.971 467.241C128.945 467.241 128.918 467.239 128.892 467.235C128.441 467.166 128.111 466.526 128.154 465.807C128.205 464.97 133.028 381.824 118.865 356.851C118.561 356.316 118.586 355.488 118.922 355.003C119.258 354.518 119.776 354.56 120.08 355.095C126.257 365.986 129.764 388.005 130.505 420.54C131.054 444.627 129.799 465.846 129.786 466.057C129.745 466.734 129.388 467.241 128.971 467.241Z" fill="#161616"/>
<path d="M168 409.573C168 409.573 174.41 391.875 168.897 387.585C164.417 384.101 162.92 405.117 168 409.573Z" fill="#8DC73F"/>
<path d="M167.778 410.9C167.328 410.9 166.961 410.309 166.959 409.588L166.905 391.845C166.903 391.123 167.268 390.485 167.721 390.485C167.722 390.485 167.724 390.485 167.725 390.485C168.176 390.485 168.543 391.107 168.545 391.828L168.598 409.555C168.601 410.278 168.236 410.899 167.783 410.899C167.781 410.9 167.78 410.9 167.778 410.9Z" fill="#161616"/>
<path d="M155.078 427.605C155.078 427.605 159.382 408.35 153.473 405.72C148.673 403.584 149.578 424.687 155.078 427.605Z" fill="#8DC73F"/>
<path d="M154.86 428.978C154.474 428.978 154.129 428.54 154.055 427.912L152.001 410.519C151.917 409.81 152.209 409.125 152.654 408.991C153.099 408.859 153.528 409.324 153.612 410.035L155.666 427.427C155.75 428.137 155.458 428.821 155.013 428.955C154.961 428.971 154.91 428.978 154.86 428.978Z" fill="#161616"/>
<path d="M144.358 451.745C144.358 451.745 147.88 432.089 141.878 430.07C137.002 428.43 138.753 449.396 144.358 451.745Z" fill="#8DC73F"/>
<path d="M144.143 453.14C143.778 453.14 143.445 452.747 143.35 452.156L140.601 435.01C140.489 434.309 140.754 433.597 141.192 433.417C141.631 433.236 142.077 433.66 142.19 434.361L144.938 451.507C145.05 452.207 144.786 452.919 144.347 453.099C144.279 453.127 144.211 453.14 144.143 453.14Z" fill="#161616"/>
<path d="M172.502 410.728C172.502 410.728 185.243 412.761 185.419 402.972C185.562 395.019 172.952 401.503 172.502 410.728Z" fill="#8DC73F"/>
<path d="M172.411 411.716C172.1 411.716 171.803 411.432 171.666 410.951C171.477 410.294 171.658 409.518 172.07 409.217L182.147 401.847C182.558 401.544 183.045 401.834 183.233 402.491C183.422 403.148 183.241 403.925 182.83 404.225L172.752 411.596C172.642 411.677 172.526 411.716 172.411 411.716Z" fill="#161616"/>
<path d="M162.235 422.537C162.235 422.537 171.899 435.949 175.585 428.121C178.579 421.762 165.94 415.422 162.235 422.537Z" fill="#8DC73F"/>
<path d="M173.171 426.779C173.12 426.779 173.069 426.772 173.018 426.757L162.125 423.477C161.68 423.343 161.388 422.658 161.472 421.948C161.555 421.238 161.984 420.773 162.429 420.904L173.322 424.184C173.767 424.318 174.059 425.003 173.975 425.713C173.901 426.341 173.557 426.779 173.171 426.779Z" fill="#161616"/>
<path d="M149.653 447.207C149.653 447.207 161.271 455.803 163.449 446.648C165.218 439.211 151.974 438.728 149.653 447.207Z" fill="#8DC73F"/>
<path d="M149.632 448.164C149.215 448.164 148.858 447.657 148.817 446.98C148.774 446.26 149.104 445.621 149.555 445.553L160.59 443.87C161.042 443.804 161.44 444.329 161.484 445.049C161.527 445.768 161.196 446.407 160.746 446.476L149.711 448.158C149.685 448.162 149.659 448.164 149.632 448.164Z" fill="#161616"/>
<path d="M120.223 349.504C120.223 349.504 131.081 328.322 124.373 320.757C118.924 314.613 114.112 341.87 120.223 349.504Z" fill="#8DC73F"/>
<path d="M119.932 350.736C119.89 350.736 119.846 350.731 119.803 350.721C119.356 350.608 119.051 349.938 119.121 349.224L121.438 325.819C121.508 325.105 121.926 324.621 122.375 324.731C122.822 324.844 123.128 325.514 123.057 326.228L120.74 349.632C120.677 350.277 120.328 350.736 119.932 350.736Z" fill="#161616"/>
<path d="M129.734 385.542C129.734 385.542 144.408 375.876 141.017 365.01C138.262 356.183 126.849 375.036 129.734 385.542Z" fill="#8DC73F"/>
<path d="M129.516 386.583C129.343 386.583 129.169 386.496 129.021 386.315C128.66 385.878 128.591 385.057 128.865 384.482L137.184 367.022C137.458 366.446 137.972 366.335 138.332 366.773C138.693 367.21 138.763 368.031 138.489 368.606L130.169 386.066C130.008 386.405 129.764 386.583 129.516 386.583Z" fill="#161616"/>
<path d="M132.179 433.684C132.179 433.684 146.852 424.017 143.462 413.151C140.706 404.324 129.294 423.178 132.179 433.684Z" fill="#8DC73F"/>
<path d="M131.961 434.725C131.788 434.725 131.614 434.638 131.466 434.458C131.105 434.02 131.035 433.199 131.309 432.624L139.629 415.164C139.903 414.588 140.417 414.477 140.777 414.915C141.138 415.352 141.207 416.173 140.933 416.749L132.614 434.208C132.453 434.547 132.208 434.725 131.961 434.725Z" fill="#161616"/>
<path d="M117.307 353.136C117.307 353.136 101.536 350.267 102.929 338.333C104.063 328.638 118.277 341.77 117.307 353.136Z" fill="#8DC73F"/>
<path d="M117.469 354.092C117.298 354.092 117.126 354.008 116.979 353.831L105.979 340.685C105.617 340.252 105.543 339.432 105.814 338.853C106.085 338.275 106.599 338.156 106.961 338.59L117.961 351.736C118.324 352.169 118.398 352.99 118.126 353.568C117.965 353.911 117.719 354.092 117.469 354.092Z" fill="#161616"/>
<path d="M123.491 375.964C123.491 375.964 107.838 380.176 107.109 368.092C106.517 358.275 122.452 364.612 123.491 375.964Z" fill="#8DC73F"/>
<path d="M123.586 376.862C123.489 376.862 123.391 376.834 123.296 376.776L110.446 369.005C110.023 368.749 109.81 367.993 109.97 367.317C110.131 366.642 110.603 366.301 111.027 366.557L123.877 374.328C124.3 374.584 124.513 375.34 124.353 376.016C124.228 376.539 123.917 376.862 123.586 376.862Z" fill="#161616"/>
<path d="M127.565 408.492C127.565 408.492 111.913 412.704 111.183 400.62C110.591 390.803 126.526 397.141 127.565 408.492Z" fill="#8DC73F"/>
<path d="M127.661 409.389C127.564 409.389 127.466 409.362 127.37 409.304L114.521 401.533C114.098 401.277 113.885 400.521 114.045 399.845C114.206 399.17 114.679 398.83 115.102 399.085L127.951 406.856C128.375 407.112 128.588 407.868 128.427 408.544C128.303 409.067 127.991 409.389 127.661 409.389Z" fill="#161616"/>
<path d="M126.705 445.103C126.705 445.103 116.134 447.949 115.641 439.787C115.241 433.157 126.003 437.437 126.705 445.103Z" fill="#8DC73F"/>
<path d="M126.769 446.135C126.673 446.135 126.574 446.108 126.479 446.05L117.801 440.801C117.378 440.545 117.165 439.789 117.325 439.114C117.485 438.438 117.959 438.099 118.382 438.354L127.06 443.602C127.483 443.858 127.696 444.614 127.536 445.29C127.411 445.812 127.1 446.135 126.769 446.135Z" fill="#161616"/>
<path d="M368.159 327.254L411.259 328.251L414.557 393.587C414.557 393.587 415.026 404.557 409.404 404.557C403.782 404.557 368.159 404.807 368.159 404.807C368.159 404.807 361.153 401.066 362.09 392.84C363.027 384.612 368.159 327.254 368.159 327.254Z" fill="#EAEFE8"/>
<path d="M368.159 406.189C368.07 406.189 367.983 406.129 367.899 406.084C367.822 406.044 366.001 405.04 364.28 402.973C361.878 400.086 360.842 396.499 361.284 392.615C362.207 384.506 367.296 327.724 367.347 327.15C367.405 326.505 367.751 326.098 368.158 326.098C368.163 326.098 368.167 326.098 368.171 326.098L411.27 327.019C411.693 327.029 412.042 327.512 412.076 328.185L415.374 393.501C415.385 393.767 415.611 399.649 413.516 403.23C412.489 404.986 411.105 405.908 409.404 405.908C403.849 405.908 368.519 406.189 368.162 406.189C368.161 406.189 368.16 406.189 368.159 406.189ZM368.868 328.579C368.139 336.704 363.752 385.561 362.897 393.074C362.157 399.561 367.432 402.981 368.299 403.497C370.783 403.48 404.026 403.249 409.404 403.249C410.648 403.249 411.599 402.657 412.314 401.441C413.923 398.699 413.741 393.724 413.739 393.674L410.501 329.542L368.868 328.579Z" fill="#161616"/>
<path d="M362.09 392.84C361.153 401.067 368.159 404.807 368.159 404.807C368.159 404.807 403.782 404.557 409.404 404.557C415.025 404.557 414.557 393.587 414.557 393.587C388.209 365.924 362.09 392.84 362.09 392.84Z" fill="#B2BCAF"/>
<path d="M368.159 406.189C368.07 406.189 367.983 406.129 367.899 406.084C367.822 406.044 366.001 405.04 364.28 402.973C361.878 400.086 360.842 396.499 361.284 392.615C361.365 391.904 361.791 391.426 362.237 391.557C362.682 391.686 362.978 392.365 362.897 393.077C362.16 399.542 367.433 402.98 368.3 403.499C370.791 403.481 404.027 403.25 409.403 403.25C410.647 403.25 411.599 402.658 412.313 401.442C413.923 398.7 413.741 393.725 413.739 393.675C413.71 392.954 414.051 392.331 414.502 392.283C414.957 392.238 415.344 392.778 415.374 393.499C415.385 393.748 415.611 399.639 413.515 403.221C412.488 404.976 411.105 405.903 409.403 405.903C403.848 405.903 368.518 406.189 368.162 406.189C368.161 406.189 368.16 406.189 368.159 406.189Z" fill="#161616"/>
<path d="M427.187 384.203H414.069C413.644 384.203 413.289 383.684 413.253 383.007L412.743 373.584C412.723 373.219 412.8 372.857 412.956 372.587C413.111 372.317 413.33 372.163 413.559 372.163H420.426L412.005 356.217C411.895 356.009 411.828 355.751 411.814 355.48L411.045 340.37C411.016 339.799 411.223 339.264 411.556 339.05C411.89 338.835 412.271 338.993 412.498 339.437L427.816 369.454C427.836 369.494 427.855 369.536 427.873 369.58C427.971 369.829 430.273 375.711 429.515 380.228C429.231 381.921 428.576 383.208 427.568 384.054C427.45 384.151 427.319 384.203 427.187 384.203ZM414.821 381.586H426.971C427.469 381.098 427.784 380.431 427.931 379.554C428.401 376.768 427.09 372.531 426.513 371.043L412.893 344.355L413.428 354.85L422.817 372.628C423.022 373.017 423.068 373.562 422.933 374.023C422.799 374.485 422.509 374.78 422.19 374.78H414.453L414.821 381.586Z" fill="#161616"/>
<path d="M395.638 369.122C395.387 369.122 395.139 368.938 394.978 368.589C394.709 368.008 394.787 367.188 395.152 366.76C403.527 356.91 406.381 332.959 404.593 321.44C404.266 319.331 403.477 315.735 401.871 315.349C395.907 313.921 390.024 327.838 389.965 327.979C389.714 328.58 389.205 328.743 388.829 328.342C388.452 327.942 388.35 327.131 388.6 326.529C388.863 325.897 395.123 311.089 402.115 312.76C403.451 313.081 405.242 314.737 406.184 320.81C408.123 333.3 405.167 358.23 396.124 368.867C395.977 369.04 395.807 369.122 395.638 369.122Z" fill="#161616"/>
<path d="M344.195 345.139C342.096 345.139 339.628 344.228 336.639 342.068C336.227 341.77 336.044 340.995 336.231 340.336C336.418 339.678 336.904 339.387 337.316 339.684C346.874 346.592 350.185 339.716 354.375 331.013C356.298 327.02 358.286 322.89 361.067 319.686C363.56 316.813 366.198 315.721 368.908 316.44C374.432 317.903 378.243 326.36 378.402 326.719C378.664 327.309 378.577 328.126 378.208 328.543C377.838 328.962 377.327 328.822 377.065 328.234C377.03 328.155 373.477 320.296 368.631 319.019C366.371 318.425 364.149 319.362 362.026 321.808C359.44 324.788 357.526 328.764 355.675 332.608C352.596 339.001 349.641 345.139 344.195 345.139Z" fill="#161616"/>
<path d="M399.462 359.049C399.462 359.049 389.064 370.629 393.59 389.273C393.59 389.273 405.521 383.127 399.462 359.049Z" fill="#8DC73F"/>
<path d="M334.294 323.883C334.294 323.883 341.344 340.706 353.106 333.844C353.106 333.844 349.49 314.679 334.294 323.883Z" fill="#8DC73F"/>
<path d="M359.532 324.269C359.532 324.269 349.587 336.821 354.803 354.999C354.803 354.999 366.483 347.724 359.532 324.269Z" fill="#8DC73F"/>
<path d="M384.101 345.588C384.101 345.588 394.76 356.546 403.842 342.779C403.842 342.779 395.749 327.492 384.101 345.588Z" fill="#8DC73F"/>
<path d="M405.195 333.918C405.195 333.918 400.039 352.409 409.946 364.64C409.946 364.641 418.173 349.538 405.195 333.918Z" fill="#8DC73F"/>
<path d="M369.501 317.354C369.501 317.354 364.907 303.189 355.318 306.912C355.318 306.912 357.095 322.428 369.501 317.354Z" fill="#8DC73F"/>
<path d="M413.519 322.925C413.519 322.925 410.671 312.164 403.536 314.009C403.536 314.009 404.279 325.5 413.519 322.925Z" fill="#8DC73F"/>
<path d="M390.629 323.718C393.436 323.718 395.711 320.084 395.711 315.603C395.711 311.121 393.436 307.488 390.629 307.488C387.822 307.488 385.546 311.121 385.546 315.603C385.546 320.084 387.822 323.718 390.629 323.718Z" fill="#946D42"/>
<path d="M401.12 307.582C403.959 307.582 406.26 303.908 406.26 299.375C406.26 294.843 403.959 291.169 401.12 291.169C398.282 291.169 395.98 294.843 395.98 299.375C395.98 303.908 398.282 307.582 401.12 307.582Z" fill="#946D42"/>
</svg>
