<svg width="236" height="162" viewBox="0 0 236 162" fill="none" xmlns="http://www.w3.org/2000/svg">
<path d="M40.5963 38.9696C43.8006 38.9696 46.3982 36.372 46.3982 33.1677C46.3982 29.9634 43.8006 27.3658 40.5963 27.3658C37.392 27.3658 34.7944 29.9634 34.7944 33.1677C34.7944 36.372 37.392 38.9696 40.5963 38.9696Z" fill="#DEE5DC"/>
<path d="M40.3768 29.2547C42.7067 29.2547 44.5955 27.3659 44.5955 25.036C44.5955 22.7061 42.7067 20.8174 40.3768 20.8174C38.0469 20.8174 36.1582 22.7061 36.1582 25.036C36.1582 27.3659 38.0469 29.2547 40.3768 29.2547Z" fill="#DEE5DC"/>
<path d="M40.4376 46.8596C40.1749 46.8596 39.9615 46.6861 39.9609 46.4235L39.9001 23.3191C39.8995 23.0558 40.1123 22.8336 40.3757 22.8336C40.3761 22.8336 40.3764 22.8336 40.3768 22.8336C40.6396 22.8336 40.853 23.0735 40.8535 23.3361L40.9144 46.4073C40.9149 46.6706 40.7021 46.8596 40.4388 46.8596C40.4386 46.8596 40.438 46.8596 40.4376 46.8596Z" fill="#161616"/>
<path d="M40.4381 34.9033C40.268 34.9033 40.1034 34.8119 40.0174 34.6514C39.8933 34.4193 39.9806 34.1304 40.2127 34.0061L43.3475 32.3279C43.5794 32.2036 43.8684 32.2911 43.9928 32.5232C44.1169 32.7552 44.0296 33.0441 43.7975 33.1684L40.6627 34.8466C40.591 34.885 40.5141 34.9033 40.4381 34.9033Z" fill="#161616"/>
<path d="M40.377 27.8428C40.2407 27.8428 40.1053 27.7846 40.0111 27.672L37.545 24.7223C37.3761 24.5202 37.403 24.2196 37.6049 24.0509C37.807 23.8816 38.1073 23.9088 38.2763 24.1108L40.7424 27.0604C40.9113 27.2626 40.8844 27.5631 40.6825 27.7318C40.5935 27.8064 40.485 27.8428 40.377 27.8428Z" fill="#161616"/>
<path d="M8.62292 77.1781V42.8553C8.62292 42.8553 155.095 33.7237 196.691 75.3201L8.62292 77.1781Z" fill="#DEE5DC"/>
<path d="M8.62292 77.2067C8.62292 77.2067 109.685 59.0286 223.522 72.6554V147.645L8.62292 145.498V77.2067Z" fill="#EAEFE8"/>
<path d="M0.567531 78.6534C0.340428 78.6534 0.139068 78.4906 0.098643 78.2593C0.0530699 77.9999 0.2264 77.7528 0.485728 77.7072C0.779188 77.6556 30.3334 72.5193 73.8351 69.431C99.3839 67.6171 124.677 66.8532 149.008 67.1619C179.427 67.5473 208.425 69.6177 235.196 73.3162C235.457 73.3522 235.639 73.5929 235.603 73.8535C235.567 74.1144 235.326 74.2955 235.066 74.2606C208.334 70.5675 179.376 68.4999 148.996 68.1151C124.69 67.8076 99.4249 68.5701 73.9026 70.3822C30.4494 73.4672 0.943366 78.5949 0.650478 78.6463C0.622639 78.6513 0.594798 78.6534 0.567531 78.6534Z" fill="#161616"/>
<path d="M162.993 39.7836L143.479 34.8848C143.479 34.8848 142.077 32.1597 144.345 31.226L162.052 35.0146C162.052 35.0146 164.297 37.2866 162.993 39.7836Z" fill="white"/>
<path d="M162.993 40.2603C162.954 40.2603 162.915 40.2557 162.877 40.246L143.363 35.3474C143.23 35.314 143.117 35.225 143.055 35.1031C143.022 35.0387 142.25 33.5117 142.734 32.1956C142.97 31.5532 143.451 31.0788 144.163 30.7853C144.252 30.7487 144.35 30.7397 144.445 30.76L162.152 34.5486C162.243 34.5681 162.326 34.6136 162.391 34.6798C162.416 34.7056 163.017 35.3194 163.446 36.2663C164.029 37.5563 164.019 38.8489 163.415 40.0044C163.332 40.1644 163.167 40.2603 162.993 40.2603ZM143.82 34.4788L162.723 39.2243C163.397 37.4617 162.156 35.8561 161.803 35.4486L144.397 31.7246C144.01 31.9121 143.758 32.1748 143.629 32.5245C143.372 33.2232 143.665 34.1005 143.82 34.4788Z" fill="#161616"/>
<path d="M135.999 41.3723V72.0701L194.729 86.1663V53.5205L135.999 41.3723Z" fill="#EAEFE8"/>
<path d="M194.824 86.6429C194.787 86.6429 194.75 86.6387 194.713 86.6298L135.983 72.5336C135.769 72.4821 135.617 72.2906 135.617 72.07V41.3723C135.617 41.2289 135.682 41.0931 135.793 41.0027C135.904 40.9122 136.05 40.8759 136.191 40.9055L194.921 53.0537C195.142 53.0994 195.301 53.2945 195.301 53.5205V86.1662C195.301 86.3123 195.234 86.4501 195.119 86.5405C195.035 86.6075 194.93 86.6429 194.824 86.6429ZM136.571 71.6942L194.347 85.5616V53.9087L136.571 41.9577V71.6942Z" fill="#161616"/>
<path d="M194.729 53.5204L215.231 44.5835L215.294 75.5667L194.729 86.1662V53.5204Z" fill="#EAEFE8"/>
<path d="M194.824 86.643C194.738 86.643 194.652 86.6197 194.576 86.5734C194.434 86.487 194.347 86.3325 194.347 86.1663V53.5205C194.347 53.331 194.46 53.1595 194.633 53.0836L215.088 44.1469C215.235 44.0829 215.404 44.0964 215.539 44.1845C215.673 44.2722 215.755 44.4217 215.755 44.5825L215.842 75.5655C215.843 75.7443 215.743 75.9085 215.584 75.9905L195.043 86.59C194.974 86.6252 194.899 86.643 194.824 86.643ZM195.301 53.8323V85.3837L214.888 75.2768L214.804 45.3113L195.301 53.8323Z" fill="#161616"/>
<path d="M136.168 41.3722L161.87 33.5918L215.286 44.5835L194.839 53.5204L136.168 41.3722Z" fill="#EAEFE8"/>
<path d="M194.839 53.9972C194.806 53.9972 194.774 53.9938 194.742 53.9873L136.071 41.8391C135.857 41.7949 135.701 41.6116 135.692 41.3937C135.682 41.1757 135.821 40.9792 136.029 40.916L161.732 33.1356C161.808 33.1127 161.889 33.1087 161.966 33.1249L215.382 44.1166C215.585 44.1586 215.738 44.3273 215.76 44.5339C215.781 44.7404 215.667 44.9371 215.477 45.0205L195.03 53.9572C194.969 53.9837 194.904 53.9972 194.839 53.9972ZM138.1 41.2856L194.787 53.023L213.719 44.7482L161.893 34.0831L138.1 41.2856Z" fill="#161616"/>
<path d="M194.824 65.0697C194.787 65.0697 194.75 65.0655 194.713 65.0567L136.057 51.0415C135.801 50.9803 135.643 50.7231 135.704 50.467C135.765 50.2109 136.023 50.053 136.278 50.1141L194.772 64.0903L214.453 54.8167C214.691 54.7044 214.975 54.8066 215.088 55.0447C215.2 55.2829 215.098 55.5668 214.86 55.6791L195.027 65.0241C194.963 65.0544 194.894 65.0697 194.824 65.0697Z" fill="#161616"/>
<path d="M194.824 76.5165C194.789 76.5165 194.753 76.5125 194.719 76.5047L135.988 63.162C135.732 63.1037 135.571 62.8484 135.629 62.5917C135.687 62.3349 135.942 62.1728 136.199 62.2325L194.765 75.5375L215.075 65.5412C215.311 65.4245 215.597 65.5223 215.713 65.7586C215.83 65.9946 215.733 66.2805 215.496 66.3968L195.035 76.4675C194.969 76.4999 194.897 76.5165 194.824 76.5165Z" fill="#161616"/>
<path d="M189.008 58.935C188.115 58.935 187.388 58.2079 187.388 57.3142C187.388 56.4204 188.115 55.6934 189.008 55.6934C189.902 55.6934 190.629 56.4204 190.629 57.3142C190.629 58.2079 189.902 58.935 189.008 58.935ZM189.008 56.6468C188.64 56.6468 188.341 56.9461 188.341 57.3142C188.341 57.6822 188.64 57.9815 189.008 57.9815C189.376 57.9815 189.676 57.6822 189.676 57.3142C189.676 56.9461 189.376 56.6468 189.008 56.6468Z" fill="#161616"/>
<path d="M187.864 71.5199C186.971 71.5199 186.243 70.7928 186.243 69.8991C186.243 69.0054 186.971 68.2783 187.864 68.2783C188.758 68.2783 189.485 69.0054 189.485 69.8991C189.485 70.7928 188.758 71.5199 187.864 71.5199ZM187.864 69.2317C187.496 69.2317 187.197 69.5311 187.197 69.8991C187.197 70.2671 187.496 70.5665 187.864 70.5665C188.232 70.5665 188.532 70.2671 188.532 69.8991C188.532 69.5311 188.232 69.2317 187.864 69.2317Z" fill="#161616"/>
<path d="M140.956 60.079C140.063 60.079 139.336 59.3519 139.336 58.4582C139.336 57.5645 140.063 56.8374 140.956 56.8374C141.85 56.8374 142.577 57.5645 142.577 58.4582C142.577 59.3519 141.85 60.079 140.956 60.079ZM140.956 57.7908C140.588 57.7908 140.289 58.0902 140.289 58.4582C140.289 58.8262 140.588 59.1256 140.956 59.1256C141.324 59.1256 141.624 58.8262 141.624 58.4582C141.624 58.0902 141.324 57.7908 140.956 57.7908Z" fill="#161616"/>
<path d="M140.956 69.9945C140.063 69.9945 139.336 69.2675 139.336 68.3737C139.336 67.48 140.063 66.7529 140.956 66.7529C141.85 66.7529 142.577 67.48 142.577 68.3737C142.577 69.2675 141.85 69.9945 140.956 69.9945ZM140.956 67.7063C140.588 67.7063 140.289 68.0057 140.289 68.3737C140.289 68.7417 140.588 69.0411 140.956 69.0411C141.324 69.0411 141.624 68.7417 141.624 68.3737C141.624 68.0057 141.324 67.7063 140.956 67.7063Z" fill="#161616"/>
<path d="M142.649 49.0475L123.135 44.1489C123.135 44.1489 121.733 41.4238 124.001 40.4899L141.708 44.2787C141.708 44.2785 143.953 46.5505 142.649 49.0475Z" fill="white"/>
<path d="M142.649 49.5241C142.61 49.5241 142.571 49.5195 142.533 49.5098L123.019 44.6112C122.885 44.5778 122.773 44.4888 122.711 44.3669C122.678 44.3025 121.906 42.7755 122.39 41.4594C122.626 40.8168 123.107 40.3424 123.819 40.0491C123.908 40.0125 124.006 40.0035 124.101 40.0238L141.808 43.8126C141.899 43.8321 141.982 43.8776 142.047 43.9438C142.072 43.9695 142.673 44.5833 143.102 45.5303C143.685 46.8202 143.675 48.1129 143.071 49.2684C142.987 49.4282 142.823 49.5241 142.649 49.5241ZM123.475 43.7426L142.379 48.4881C143.052 46.7255 141.812 45.1199 141.459 44.7124L124.053 40.9882C123.665 41.1759 123.413 41.4386 123.285 41.7883C123.028 42.487 123.321 43.3643 123.475 43.7426Z" fill="#161616"/>
<path d="M148.393 43.3656C148.393 43.3656 152.27 27.0912 156.433 26.4879C160.597 25.8846 165.437 31.7957 165.437 31.7957L172.783 14.7832C172.783 14.7832 176.56 9.48628 183.547 11.3929C190.534 13.2995 196.691 29.7022 196.691 29.7022C196.691 29.7022 204.542 30.4425 205.833 34.7421C207.123 39.0418 208.641 46.9115 208.641 46.9115L194.838 52.9485L148.393 43.3656Z" fill="#8DC73F"/>
<path d="M178.517 34.0688C178.308 34.0688 178.116 33.9298 178.058 33.7183L177.013 29.9199C176.989 29.8354 176.99 29.7458 177.014 29.6615C177.023 29.6312 177.032 29.6009 177.04 29.5702C177.038 29.5744 177.036 29.5786 177.034 29.5828C176.909 29.8145 176.619 29.9008 176.388 29.7759C175.919 29.5231 173.564 28.2038 173.253 27.0715C173.177 26.7973 173.209 26.5328 173.345 26.3065C173.499 26.0496 173.747 25.8898 174.042 25.8567C174.64 25.7901 175.407 26.2815 176.022 26.7843C176.005 26.0267 176.097 25.1384 176.538 24.6492C176.788 24.3722 177.122 24.2381 177.504 24.2646C177.817 24.2854 178.08 24.4361 178.266 24.7005C179.014 25.767 178.219 28.8929 177.967 29.7952L178.977 33.4653C179.047 33.7191 178.898 33.9814 178.644 34.0512C178.602 34.0632 178.559 34.0688 178.517 34.0688ZM174.167 26.8013C174.175 27.0505 175.078 27.9858 176.84 28.9369C177.011 29.0288 177.103 29.2098 177.09 29.3911C177.545 27.7086 177.818 25.7222 177.485 25.2482C177.464 25.2177 177.458 25.2173 177.44 25.216C177.337 25.2102 177.291 25.2385 177.246 25.2877C176.897 25.674 176.943 27.0759 177.084 27.9017C177.119 28.108 177.015 28.3132 176.829 28.4074C176.641 28.5014 176.415 28.4631 176.27 28.3121C175.494 27.5045 174.517 26.8001 174.186 26.8001C174.179 26.8003 174.173 26.8005 174.167 26.8013Z" fill="#161616"/>
<path d="M159.83 40.3614C159.621 40.3614 159.429 40.2224 159.371 40.0109L158.326 36.2125C158.302 36.128 158.303 36.0384 158.327 35.9541C158.336 35.9238 158.345 35.8935 158.353 35.8628C158.351 35.867 158.349 35.8712 158.347 35.8754C158.222 36.1069 157.932 36.1934 157.701 36.0685C157.232 35.8157 154.877 34.4964 154.566 33.3641C154.49 33.0899 154.523 32.8254 154.658 32.5991C154.812 32.3422 155.06 32.1824 155.356 32.1493C155.954 32.0823 156.72 32.5739 157.335 33.0769C157.318 32.3193 157.41 31.431 157.851 30.9419C158.101 30.6646 158.436 30.5313 158.817 30.5573C159.13 30.578 159.393 30.7287 159.579 30.9932C160.327 32.0596 159.532 35.1855 159.28 36.0878L160.29 39.7579C160.36 40.0117 160.211 40.274 159.957 40.3438C159.915 40.3558 159.872 40.3614 159.83 40.3614ZM155.48 33.0939C155.488 33.3431 156.391 34.2784 158.154 35.2295C158.324 35.3214 158.416 35.5024 158.403 35.6837C158.858 34.0012 159.131 32.0148 158.798 31.5408C158.777 31.5103 158.771 31.5099 158.754 31.5086C158.65 31.5027 158.604 31.5311 158.559 31.5803C158.211 31.9666 158.256 33.3685 158.397 34.1943C158.432 34.4006 158.329 34.6058 158.142 34.7C157.955 34.7942 157.728 34.7557 157.583 34.6047C156.79 33.7798 155.784 33.0579 155.48 33.0939Z" fill="#161616"/>
<path d="M175.951 40.4428C175.852 40.4428 175.751 40.4117 175.665 40.3471L172.517 37.9788C172.447 37.926 172.393 37.8549 172.36 37.7731C172.349 37.7439 172.337 37.7145 172.325 37.6852C172.326 37.6897 172.327 37.6943 172.328 37.6989C172.37 37.9588 172.194 38.2038 171.934 38.2465C171.408 38.3331 168.738 38.7274 167.8 38.021C167.573 37.8499 167.437 37.6209 167.406 37.3587C167.371 37.0614 167.469 36.7836 167.683 36.5765C168.113 36.1595 169.023 36.0787 169.817 36.1016C169.341 35.5122 168.871 34.7527 168.921 34.0958C168.95 33.7239 169.133 33.4147 169.451 33.2015C169.711 33.0268 170.012 32.985 170.32 33.081C171.564 33.468 172.845 36.4286 173.197 37.2966L176.238 39.5847C176.449 39.743 176.491 40.0418 176.333 40.2523C176.239 40.3772 176.096 40.4428 175.951 40.4428ZM171.858 37.2994C172.02 37.2994 172.168 37.3822 172.255 37.513C171.587 35.9027 170.59 34.1635 170.037 33.9915C170.001 33.9798 169.996 33.9836 169.982 33.9934C169.897 34.0502 169.877 34.1026 169.872 34.169C169.832 34.6897 170.725 35.7705 171.341 36.337C171.495 36.4787 171.538 36.7045 171.448 36.8935C171.357 37.0822 171.156 37.1905 170.947 37.1595C169.816 36.9909 168.584 37.0361 168.359 37.2487C168.577 37.5301 170.227 37.5607 171.78 37.3059C171.806 37.3015 171.832 37.2994 171.858 37.2994Z" fill="#161616"/>
<path d="M184.887 22.4877C184.632 22.4877 184.421 22.2865 184.411 22.0301L184.254 18.0936C184.251 18.0059 184.272 17.9188 184.314 17.8423C184.33 17.8148 184.345 17.7876 184.36 17.7599C184.357 17.7633 184.354 17.7666 184.351 17.7698C184.177 17.967 183.876 17.9861 183.679 17.8118C183.279 17.459 181.284 15.6399 181.238 14.4666C181.227 14.1827 181.318 13.9322 181.502 13.7426C181.71 13.5277 181.986 13.4286 182.283 13.4627C182.878 13.5323 183.515 14.1856 184 14.8152C184.156 14.0736 184.447 13.2291 184.988 12.8527C185.294 12.6397 185.649 12.5859 186.015 12.6973C186.316 12.7886 186.538 12.9951 186.659 13.2945C187.145 14.5031 185.662 17.3673 185.212 18.1889L185.364 21.9921C185.374 22.2552 185.17 22.477 184.907 22.4875C184.9 22.4875 184.893 22.4877 184.887 22.4877ZM182.19 14.4104C182.109 14.757 183.129 16.0548 184.31 17.0969C184.454 17.225 184.503 17.4215 184.449 17.595C185.274 16.0594 185.99 14.1873 185.774 13.6503C185.76 13.6158 185.754 13.6143 185.738 13.6089C185.639 13.5794 185.586 13.5967 185.532 13.6349C185.103 13.9333 184.831 15.3083 184.781 16.1435C184.769 16.3525 184.622 16.5289 184.418 16.5784C184.214 16.6276 184.003 16.5388 183.896 16.3592C183.311 15.3764 182.497 14.4508 182.19 14.4104Z" fill="#161616"/>
<path d="M190.136 37.8976C190.133 37.8976 190.13 37.8976 190.127 37.8976C189.864 37.8976 189.655 37.6326 189.659 37.3695L189.729 33.409C189.73 33.3211 189.756 33.2248 189.803 33.1508C189.82 33.1243 189.837 33.0921 189.854 33.0652C189.851 33.0688 189.848 33.0694 189.844 33.0728C189.659 33.2597 189.357 33.2595 189.17 33.0745C188.792 32.6995 186.904 30.7684 186.926 29.5946C186.931 29.3103 187.036 29.0652 187.23 28.8864C187.45 28.6839 187.733 28.6006 188.027 28.6515C188.617 28.7552 189.215 29.4436 189.664 30.1003C189.861 29.3688 190.2 28.5422 190.762 28.1974C191.079 28.0022 191.438 27.969 191.797 28.1012C192.091 28.2095 192.301 28.4286 192.404 28.7342C192.821 29.9689 191.176 32.7431 190.68 33.5375L190.613 37.3862C190.608 37.6467 190.395 37.8976 190.136 37.8976ZM187.879 29.5923C187.779 29.9336 188.723 31.2878 189.841 32.3957C189.979 32.5322 190.016 32.7317 189.952 32.902C190.864 31.4162 191.686 29.5875 191.501 29.0391C191.489 29.0037 191.483 29.0017 191.467 28.9955C191.371 28.96 191.317 28.9751 191.26 29.0096C190.815 29.283 190.464 30.6401 190.367 31.4709C190.343 31.6789 190.185 31.8467 189.98 31.8845C189.773 31.922 189.567 31.821 189.47 31.6353C188.943 30.6206 188.184 29.6499 187.879 29.5923Z" fill="#161616"/>
<path d="M180.142 34.9419C179.878 34.9419 179.665 34.7285 179.665 34.4652V32.5584C179.665 32.295 179.878 32.0817 180.142 32.0817C180.405 32.0817 180.618 32.295 180.618 32.5584V34.4652C180.618 34.7285 180.405 34.9419 180.142 34.9419Z" fill="#161616"/>
<path d="M192 39.3278C191.949 39.3278 191.896 39.3194 191.845 39.3017C191.596 39.2161 191.464 38.9449 191.549 38.6959L192.276 36.582C192.362 36.3328 192.632 36.2004 192.882 36.2861C193.131 36.3717 193.263 36.6428 193.178 36.8919L192.451 39.0058C192.383 39.2037 192.198 39.3278 192 39.3278Z" fill="#161616"/>
<path d="M187.864 47.4318C187.682 47.4318 187.507 47.3258 187.428 47.1477L186.38 44.7764C186.273 44.5356 186.382 44.2543 186.623 44.1477C186.863 44.0411 187.145 44.15 187.251 44.3908L188.3 46.7622C188.407 47.003 188.298 47.2843 188.057 47.3908C187.994 47.4187 187.929 47.4318 187.864 47.4318Z" fill="#161616"/>
<path d="M189.485 46.9552C189.285 46.9552 189.1 46.8288 189.033 46.6291L188.461 44.913C188.377 44.663 188.512 44.393 188.762 44.3099C189.013 44.2269 189.282 44.3617 189.365 44.6113L189.937 46.3275C190.021 46.5775 189.886 46.8475 189.636 46.9306C189.586 46.9472 189.535 46.9552 189.485 46.9552Z" fill="#161616"/>
<path d="M158.118 40.9666C157.933 40.9666 157.757 40.8583 157.679 40.6771L156.978 39.0384C156.875 38.7962 156.987 38.5163 157.229 38.4126C157.471 38.3096 157.751 38.4213 157.855 38.6633L158.556 40.302C158.66 40.5442 158.547 40.8241 158.305 40.9279C158.244 40.954 158.181 40.9666 158.118 40.9666Z" fill="#161616"/>
<path d="M174.707 41.849C174.621 41.849 174.535 41.8262 174.457 41.7779L173.027 40.8953C172.802 40.757 172.733 40.4634 172.872 40.2393C173.01 40.0153 173.304 39.9457 173.527 40.0843L174.958 40.9669C175.182 41.1052 175.251 41.3988 175.113 41.6229C175.023 41.7688 174.867 41.849 174.707 41.849Z" fill="#161616"/>
<path d="M199.591 37.6115C199.328 37.6115 199.115 37.3981 199.115 37.1348V35.0373C199.115 34.7739 199.328 34.5605 199.591 34.5605C199.855 34.5605 200.068 34.7739 200.068 35.0373V37.1348C200.068 37.3981 199.855 37.6115 199.591 37.6115Z" fill="#161616"/>
<path d="M201.022 37.6115C200.994 37.6115 200.965 37.609 200.936 37.6039C200.677 37.5568 200.505 37.3085 200.552 37.0496L200.934 34.9521C200.981 34.6931 201.229 34.5215 201.488 34.5682C201.747 34.6153 201.919 34.8636 201.872 35.1225L201.49 37.22C201.448 37.4502 201.248 37.6115 201.022 37.6115Z" fill="#161616"/>
<path d="M186.244 22.5477C186.23 22.5477 186.215 22.5471 186.2 22.5456C185.938 22.5218 185.745 22.2899 185.769 22.0277L185.96 19.9302C185.983 19.668 186.217 19.4733 186.477 19.4987C186.74 19.5225 186.933 19.7544 186.909 20.0166L186.718 22.1141C186.696 22.3616 186.488 22.5477 186.244 22.5477Z" fill="#161616"/>
<path d="M14.0642 98.9648L70.5185 83.6769C70.5185 83.6769 80.2458 85.4163 78.0017 102.373L21.5065 122.526" fill="#161616"/>
<path d="M21.5064 123.003C21.3106 123.003 21.127 122.881 21.0575 122.686C20.9691 122.438 21.0983 122.165 21.3464 122.077L77.5662 102.022C78.156 97.3098 78.1118 90.9803 74.7371 86.9731C72.9563 84.8586 70.9837 84.2772 70.5306 84.1674L14.1886 99.4248C13.9344 99.4942 13.6728 99.3434 13.604 99.0892C13.5351 98.8351 13.6854 98.5734 13.9396 98.5046L70.3939 83.2166C70.4616 83.1982 70.5329 83.1949 70.6023 83.2075C70.7085 83.2266 73.2295 83.7033 75.4663 86.3589C79.1344 90.7145 79.1266 97.5052 78.4743 102.435C78.4508 102.612 78.3301 102.762 78.1617 102.822L21.6666 122.975C21.6138 122.994 21.5596 123.003 21.5064 123.003Z" fill="#161616"/>
<path d="M15.7569 123.927C22.65 123.927 28.238 118.339 28.238 111.446C28.238 104.553 22.65 98.9648 15.7569 98.9648C8.86379 98.9648 3.2758 104.553 3.2758 111.446C3.2758 118.339 8.86379 123.927 15.7569 123.927Z" fill="#DEE5DC"/>
<path d="M15.7569 124.404C8.61186 124.404 2.7991 118.591 2.7991 111.446C2.7991 104.301 8.61186 98.488 15.7569 98.488C22.902 98.488 28.7147 104.301 28.7147 111.446C28.7147 118.591 22.902 124.404 15.7569 124.404ZM15.7569 99.4414C9.13776 99.4414 3.75251 104.827 3.75251 111.446C3.75251 118.065 9.13776 123.45 15.7569 123.45C22.3761 123.45 27.7613 118.065 27.7613 111.446C27.7613 104.827 22.3761 99.4414 15.7569 99.4414Z" fill="#161616"/>
<path d="M15.7569 114.998C17.7186 114.998 19.3089 113.408 19.3089 111.446C19.3089 109.484 17.7186 107.894 15.7569 107.894C13.7951 107.894 12.2048 109.484 12.2048 111.446C12.2048 113.408 13.7951 114.998 15.7569 114.998Z" fill="#EAEFE8"/>
<path d="M15.7569 115.475C13.5355 115.475 11.7282 113.667 11.7282 111.446C11.7282 109.224 13.5355 107.417 15.7569 107.417C17.9784 107.417 19.7857 109.224 19.7857 111.446C19.7857 113.667 17.9784 115.475 15.7569 115.475ZM15.7569 108.371C14.0612 108.371 12.6816 109.75 12.6816 111.446C12.6816 113.142 14.0612 114.521 15.7569 114.521C17.4527 114.521 18.8323 113.142 18.8323 111.446C18.8323 109.75 17.4527 108.371 15.7569 108.371Z" fill="#161616"/>
<path d="M38.3366 106.778L94.791 91.4902C94.791 91.4902 104.518 93.2296 102.274 110.186L45.7791 130.339" fill="#161616"/>
<path d="M45.7792 130.816C45.5833 130.816 45.3997 130.695 45.3303 130.5C45.2418 130.252 45.3711 129.979 45.6192 129.891L101.839 109.836C102.429 105.124 102.385 98.794 99.0099 94.7868C97.2291 92.6723 95.2565 92.0909 94.8034 91.9811L38.4614 107.239C38.2074 107.308 37.9454 107.157 37.8767 106.903C37.8081 106.649 37.9581 106.387 38.2123 106.318L94.6667 91.0304C94.7346 91.0119 94.8057 91.0086 94.8751 91.0212C94.9813 91.0403 97.5023 91.517 99.739 94.1726C103.407 98.5282 103.399 105.319 102.747 110.249C102.724 110.426 102.603 110.575 102.435 110.635L45.9393 130.788C45.8863 130.807 45.8324 130.816 45.7792 130.816Z" fill="#161616"/>
<path d="M40.0295 131.74C46.9227 131.74 52.5106 126.152 52.5106 119.259C52.5106 112.366 46.9227 106.778 40.0295 106.778C33.1364 106.778 27.5484 112.366 27.5484 119.259C27.5484 126.152 33.1364 131.74 40.0295 131.74Z" fill="#DEE5DC"/>
<path d="M40.0295 132.217C32.8845 132.217 27.0717 126.405 27.0717 119.26C27.0717 112.115 32.8845 106.302 40.0295 106.302C47.1746 106.302 52.9873 112.115 52.9873 119.26C52.9873 126.405 47.1746 132.217 40.0295 132.217ZM40.0295 107.255C33.4104 107.255 28.0251 112.64 28.0251 119.259C28.0251 125.879 33.4104 131.264 40.0295 131.264C46.6487 131.264 52.0339 125.879 52.0339 119.259C52.0339 112.64 46.6487 107.255 40.0295 107.255Z" fill="#161616"/>
<path d="M40.0295 122.811C41.9912 122.811 43.5815 121.221 43.5815 119.259C43.5815 117.298 41.9912 115.707 40.0295 115.707C38.0678 115.707 36.4775 117.298 36.4775 119.259C36.4775 121.221 38.0678 122.811 40.0295 122.811Z" fill="#EAEFE8"/>
<path d="M40.0295 123.288C37.8081 123.288 36.0008 121.481 36.0008 119.259C36.0008 117.038 37.8081 115.231 40.0295 115.231C42.251 115.231 44.0583 117.038 44.0583 119.259C44.0583 121.481 42.251 123.288 40.0295 123.288ZM40.0295 116.184C38.3338 116.184 36.9542 117.564 36.9542 119.26C36.9542 120.955 38.3338 122.335 40.0295 122.335C41.7253 122.335 43.1049 120.955 43.1049 119.26C43.1049 117.564 41.7253 116.184 40.0295 116.184Z" fill="#161616"/>
<path d="M63.108 109.937L119.562 94.6493C119.562 94.6493 129.29 96.3887 127.046 113.345L70.5506 133.498" fill="#161616"/>
<path d="M70.5505 133.975C70.3547 133.975 70.1711 133.854 70.1017 133.658C70.0132 133.41 70.1425 133.138 70.3906 133.049L126.61 112.994C127.44 106.374 126.479 101.192 123.825 97.998C122.045 95.8555 120.032 95.2539 119.574 95.1402L63.2329 110.397C62.9786 110.467 62.7171 110.316 62.6483 110.062C62.5795 109.808 62.7297 109.546 62.9839 109.477L119.438 94.1893C119.506 94.1708 119.577 94.1676 119.647 94.1802C119.753 94.1992 122.274 94.6759 124.511 97.3316C128.179 101.687 128.171 108.478 127.519 113.408C127.495 113.585 127.374 113.734 127.206 113.794L70.7105 133.947C70.6577 133.966 70.6036 133.975 70.5505 133.975Z" fill="#161616"/>
<path d="M64.8009 134.899C71.694 134.899 77.282 129.311 77.282 122.418C77.282 115.525 71.694 109.937 64.8009 109.937C57.9078 109.937 52.3198 115.525 52.3198 122.418C52.3198 129.311 57.9078 134.899 64.8009 134.899Z" fill="#DEE5DC"/>
<path d="M64.8009 135.376C57.6558 135.376 51.843 129.563 51.843 122.418C51.843 115.273 57.6558 109.46 64.8009 109.46C71.9459 109.46 77.7589 115.273 77.7589 122.418C77.7589 129.563 71.9457 135.376 64.8009 135.376ZM64.8009 110.414C58.1817 110.414 52.7965 115.799 52.7965 122.418C52.7965 129.038 58.1817 134.423 64.8009 134.423C71.4202 134.423 76.8055 129.038 76.8055 122.418C76.8055 115.799 71.4202 110.414 64.8009 110.414Z" fill="#161616"/>
<path d="M64.8009 125.97C66.7627 125.97 68.353 124.38 68.353 122.418C68.353 120.457 66.7627 118.866 64.8009 118.866C62.8392 118.866 61.2489 120.457 61.2489 122.418C61.2489 124.38 62.8392 125.97 64.8009 125.97Z" fill="#EAEFE8"/>
<path d="M64.8009 126.447C62.5794 126.447 60.7721 124.64 60.7721 122.418C60.7721 120.197 62.5794 118.39 64.8009 118.39C67.0223 118.39 68.8296 120.197 68.8296 122.418C68.8296 124.64 67.0223 126.447 64.8009 126.447ZM64.8009 119.343C63.1051 119.343 61.7256 120.723 61.7256 122.418C61.7256 124.114 63.1051 125.494 64.8009 125.494C66.4966 125.494 67.8762 124.114 67.8762 122.418C67.8762 120.723 66.4966 119.343 64.8009 119.343Z" fill="#161616"/>
<path d="M34.0272 79.5703L91.5823 69.1686C91.5823 69.1686 101.125 71.734 97.4386 88.4365L39.4263 103.682" fill="#161616"/>
<path d="M39.4262 104.159C39.2147 104.159 39.0215 104.017 38.9653 103.803C38.8984 103.548 39.0505 103.288 39.3053 103.221L97.0349 88.0497C98.428 81.5246 97.9136 76.2797 95.5426 72.8697C93.9525 70.5829 91.9988 69.8114 91.5513 69.6588L34.112 80.0394C33.8535 80.0868 33.605 79.9143 33.5581 79.6549C33.5112 79.396 33.6834 79.1479 33.9423 79.1012L91.4975 68.6995C91.5671 68.6871 91.638 68.6898 91.7061 68.7083C91.8102 68.7361 94.2813 69.4271 96.2825 72.2643C99.5647 76.9177 98.9759 83.6831 97.904 88.5392C97.8655 88.7137 97.7326 88.8521 97.5597 88.8975L39.5476 104.143C39.507 104.154 39.4662 104.159 39.4262 104.159Z" fill="#161616"/>
<path d="M34.6461 104.632C41.5392 104.632 47.1272 99.0437 47.1272 92.1505C47.1272 85.2574 41.5392 79.6694 34.6461 79.6694C27.753 79.6694 22.165 85.2574 22.165 92.1505C22.165 99.0437 27.753 104.632 34.6461 104.632Z" fill="#DEE5DC"/>
<path d="M34.6603 105.109C34.2881 105.109 33.9103 105.093 33.5375 105.061C26.4188 104.449 21.1247 98.1605 21.7358 91.0418C22.0152 87.7884 23.496 84.7851 25.9057 82.5843C28.3012 80.3964 31.4002 79.1917 34.632 79.1917C35.0043 79.1917 35.382 79.2079 35.7548 79.2399C42.8735 79.8514 48.1678 86.1403 47.5565 93.259C47.2771 96.5125 45.7963 99.5157 43.3865 101.717C40.9911 103.904 37.892 105.109 34.6603 105.109ZM34.632 80.1454C31.6389 80.1454 28.7682 81.2617 26.5486 83.2886C24.3163 85.327 22.9446 88.1097 22.6856 91.1236C22.1193 97.7185 27.024 103.545 33.619 104.111C33.9647 104.141 34.3149 104.156 34.6601 104.156C37.6532 104.156 40.5239 103.04 42.7435 101.013C44.9758 98.9742 46.3476 96.1915 46.6065 93.1776C47.1728 86.5827 42.2683 80.7566 35.6732 80.1903C35.3275 80.1605 34.9772 80.1454 34.632 80.1454Z" fill="#161616"/>
<path d="M34.6462 95.7027C36.6079 95.7027 38.1982 94.1124 38.1982 92.1507C38.1982 90.1889 36.6079 88.5986 34.6462 88.5986C32.6845 88.5986 31.0942 90.1889 31.0942 92.1507C31.0942 94.1124 32.6845 95.7027 34.6462 95.7027Z" fill="#EAEFE8"/>
<path d="M34.6504 96.1793C34.5346 96.1793 34.4172 96.1743 34.3014 96.1644C33.2292 96.0723 32.2571 95.5683 31.5642 94.7452C30.8713 93.922 30.54 92.8782 30.6321 91.806C30.8095 89.7401 32.5708 88.1218 34.642 88.1218C34.7577 88.1218 34.8752 88.1268 34.9909 88.1367C36.0632 88.2288 37.0351 88.733 37.7282 89.5561C38.4213 90.3791 38.7523 91.4231 38.6602 92.4951C38.4827 94.561 36.7214 96.1793 34.6504 96.1793ZM34.642 89.0752C33.0616 89.0752 31.7175 90.3107 31.5821 91.8876C31.512 92.706 31.7646 93.5029 32.2936 94.1312C32.8227 94.7597 33.5648 95.1443 34.3831 95.2146C34.4719 95.2223 34.5619 95.2263 34.6504 95.2263C36.2308 95.2263 37.5747 93.9908 37.7103 92.4139C37.7804 91.5955 37.5278 90.7988 36.9988 90.1703C36.4697 89.5418 35.7277 89.1572 34.9093 89.0869C34.8205 89.079 34.7305 89.0752 34.642 89.0752Z" fill="#161616"/>
<path d="M51.6683 62.5863L109.778 55.9454C109.778 55.9454 119.134 59.1253 114.37 75.5525L55.4899 86.9975" fill="#161616"/>
<path d="M55.4892 87.4743C55.2657 87.4743 55.066 87.3162 55.0218 87.0886C54.9716 86.8304 55.1404 86.58 55.3988 86.5297L113.992 75.1404C115.806 68.7198 115.633 63.4527 113.489 59.8959C112.051 57.5105 110.152 56.6137 109.715 56.4326L51.7224 63.0599C51.4614 63.0923 51.2245 62.902 51.1946 62.6406C51.1647 62.379 51.3525 62.1428 51.6141 62.1128L109.724 55.4721C109.794 55.4641 109.865 55.4715 109.931 55.4942C110.033 55.5291 112.454 56.3788 114.267 59.3401C117.24 64.197 116.213 70.9096 114.828 75.6856C114.778 75.8572 114.636 75.9867 114.461 76.0208L55.5805 87.4657C55.55 87.4715 55.5193 87.4743 55.4892 87.4743Z" fill="#161616"/>
<path d="M51.4686 87.6614C58.3618 87.6614 63.9497 82.0735 63.9497 75.1803C63.9497 68.2872 58.3618 62.6992 51.4686 62.6992C44.5755 62.6992 38.9875 68.2872 38.9875 75.1803C38.9875 82.0735 44.5755 87.6614 51.4686 87.6614Z" fill="#DEE5DC"/>
<path d="M51.484 88.14C50.8325 88.14 50.1727 88.0898 49.5236 87.9914C46.1018 87.472 43.0869 85.6512 41.0344 82.864C38.9819 80.0768 38.138 76.6574 38.6576 73.2355C39.1257 70.1527 40.6889 67.3422 43.0593 65.3218C45.4056 63.3221 48.3868 62.2207 51.4533 62.2207C52.1049 62.2207 52.7644 62.2707 53.4135 62.3691C60.4775 63.4416 65.352 70.0614 64.2794 77.1252C63.8114 80.2079 62.2482 83.0182 59.8778 85.0387C57.5315 87.0386 54.5506 88.14 51.484 88.14ZM51.4533 63.1743C48.6131 63.1743 45.8518 64.1948 43.6777 66.0475C41.4818 67.9191 40.0337 70.5226 39.6001 73.3785C39.1188 76.5488 39.9008 79.7166 41.8021 82.2986C43.7034 84.8806 46.4965 86.5676 49.6666 87.0487C50.2686 87.14 50.8799 87.1865 51.484 87.1865C54.324 87.1865 57.0855 86.166 59.2595 84.3132C61.4552 82.4418 62.9032 79.8382 63.3368 76.9824C64.3305 70.4382 59.8147 64.3056 53.2703 63.312C52.6685 63.2204 52.0572 63.1743 51.4533 63.1743Z" fill="#161616"/>
<path d="M51.4686 78.7325C53.4304 78.7325 55.0208 77.1421 55.0208 75.1803C55.0208 73.2184 53.4304 71.6281 51.4686 71.6281C49.5068 71.6281 47.9164 73.2184 47.9164 75.1803C47.9164 77.1421 49.5068 78.7325 51.4686 78.7325Z" fill="#EAEFE8"/>
<path d="M51.4735 79.2092C51.2709 79.2092 51.0657 79.1937 50.8637 79.163C48.6677 78.8297 47.1521 76.7717 47.4854 74.5754C47.7821 72.6232 49.4927 71.1511 51.4646 71.1511C51.6671 71.1511 51.8719 71.1666 52.0732 71.1971C54.2695 71.5308 55.7851 73.5888 55.4518 75.7851C55.1554 77.7373 53.445 79.2092 51.4735 79.2092ZM51.4646 72.1047C49.9599 72.1047 48.6545 73.2286 48.428 74.7188C48.1736 76.3951 49.3305 77.9659 51.0068 78.2205C51.1616 78.2439 51.3183 78.2559 51.4734 78.2559C52.9778 78.2559 54.2829 77.1323 54.509 75.6423C54.7634 73.9658 53.6065 72.3948 51.93 72.14C51.776 72.1164 51.6192 72.1047 51.4646 72.1047Z" fill="#161616"/>
<path d="M58.1335 85.7217L115.689 75.3202C115.689 75.3202 125.232 77.8854 121.545 94.5879L63.5331 109.833" fill="#161616"/>
<path d="M63.5327 110.31C63.3212 110.31 63.1281 110.169 63.0718 109.955C63.0049 109.7 63.157 109.439 63.4118 109.372L121.141 94.2011C122.132 89.5566 122.63 83.2466 119.61 78.9654C118.017 76.7062 116.101 75.9583 115.659 75.81L58.2182 86.1907C57.9596 86.2384 57.7112 86.0656 57.6642 85.8063C57.6173 85.5473 57.7895 85.2993 58.0487 85.2526L115.604 74.851C115.673 74.8388 115.744 74.8413 115.813 74.8598C115.917 74.8876 118.388 75.5785 120.389 78.4156C123.671 83.069 123.082 89.8345 122.011 94.6906C121.972 94.865 121.839 95.0035 121.666 95.0488L63.654 110.294C63.6135 110.305 63.5727 110.31 63.5327 110.31Z" fill="#161616"/>
<path d="M58.7525 110.783C65.6456 110.783 71.2336 105.195 71.2336 98.3018C71.2336 91.4087 65.6456 85.8207 58.7525 85.8207C51.8593 85.8207 46.2714 91.4087 46.2714 98.3018C46.2714 105.195 51.8593 110.783 58.7525 110.783Z" fill="#DEE5DC"/>
<path d="M58.7667 111.261C58.3943 111.261 58.0166 111.244 57.6436 111.212C54.1951 110.916 51.0685 109.295 48.8394 106.647C46.6104 103.999 45.546 100.642 45.8421 97.1935C46.1214 93.94 47.6023 90.9368 50.0119 88.7359C52.4073 86.5482 55.5065 85.3435 58.7381 85.3435C59.1103 85.3435 59.4881 85.3597 59.8609 85.3917C63.3094 85.6881 66.4362 87.3092 68.6651 89.9571C70.8941 92.6049 71.9585 95.9622 71.6624 99.4107C71.383 102.664 69.9022 105.667 67.4927 107.868C65.0976 110.056 61.9984 111.261 58.7667 111.261ZM58.7383 86.2969C55.745 86.2969 52.8745 87.4132 50.6549 89.4399C48.4226 91.4785 47.0508 94.261 46.7921 97.2749C46.5177 100.47 47.5039 103.58 49.5688 106.033C51.6337 108.486 54.5305 109.988 57.7252 110.262C58.0711 110.292 58.4214 110.307 58.7667 110.307C61.7599 110.307 64.6306 109.191 66.8499 107.164C69.0821 105.126 70.4538 102.343 70.7128 99.3293C70.9872 96.1344 70.001 93.0242 67.9361 90.5711C65.8712 88.1179 62.9743 86.6161 59.7796 86.3417C59.4337 86.312 59.0835 86.2969 58.7383 86.2969Z" fill="#161616"/>
<path d="M58.7525 101.854C60.7142 101.854 62.3045 100.264 62.3045 98.3019C62.3045 96.3402 60.7142 94.7499 58.7525 94.7499C56.7907 94.7499 55.2004 96.3402 55.2004 98.3019C55.2004 100.264 56.7907 101.854 58.7525 101.854Z" fill="#EAEFE8"/>
<path d="M58.7567 102.331C58.641 102.331 58.5235 102.326 58.4078 102.316C57.3355 102.224 56.3634 101.72 55.6705 100.897C54.9776 100.073 54.6464 99.0297 54.7385 97.9575C54.916 95.8915 56.6771 94.2733 58.7483 94.2733C58.8641 94.2733 58.9813 94.2783 59.0973 94.2882C61.3105 94.4785 62.9567 96.4338 62.7666 98.6468C62.5892 100.713 60.8279 102.331 58.7567 102.331ZM58.7483 95.2265C57.1679 95.2265 55.8238 96.462 55.6884 98.0389C55.6183 98.8573 55.8709 99.6542 56.3999 100.282C56.929 100.911 57.6711 101.296 58.4894 101.366C58.5782 101.374 58.6682 101.378 58.7567 101.378C60.3371 101.378 61.681 100.142 61.8166 98.5654C61.9615 96.8761 60.7051 95.3833 59.0156 95.2384C58.9268 95.2305 58.8368 95.2265 58.7483 95.2265Z" fill="#161616"/>
<path d="M74.0654 112.209C73.8985 112.209 73.7454 112.099 73.6983 111.93C73.6415 111.727 73.7599 111.517 73.9628 111.46L122.289 97.9345C122.492 97.8777 122.703 97.9959 122.759 98.199C122.816 98.4017 122.698 98.6122 122.495 98.669L74.1683 112.195C74.134 112.204 74.0993 112.209 74.0654 112.209Z" fill="#AFB7AC"/>
<path d="M76.5442 115.641C76.3773 115.641 76.2242 115.531 76.1771 115.362C76.1203 115.16 76.2387 114.949 76.4416 114.892L124.768 101.367C124.972 101.31 125.182 101.428 125.238 101.631C125.295 101.834 125.177 102.045 124.974 102.101L76.6472 115.627C76.6128 115.637 76.5781 115.641 76.5442 115.641Z" fill="#AFB7AC"/>
<path d="M79.0231 120.408C78.8587 120.408 78.707 120.301 78.6578 120.135C78.5977 119.933 78.7129 119.721 78.9146 119.661L125.716 105.754C125.917 105.694 126.13 105.809 126.19 106.011C126.25 106.213 126.135 106.425 125.933 106.485L79.1318 120.392C79.0957 120.403 79.0591 120.408 79.0231 120.408Z" fill="#AFB7AC"/>
<path d="M78.4513 125.938C78.2915 125.938 78.1425 125.837 78.0895 125.677C78.023 125.477 78.1313 125.261 78.3311 125.195L125.895 109.381C126.095 109.314 126.311 109.423 126.377 109.623C126.444 109.822 126.335 110.039 126.135 110.105L78.5716 125.918C78.5317 125.932 78.4911 125.938 78.4513 125.938Z" fill="#AFB7AC"/>
<path d="M69.3308 87.7497C69.1517 87.7497 68.9921 87.6233 68.9568 87.441C68.9168 87.2341 69.052 87.0341 69.2587 86.9939L116.662 77.8022C116.869 77.763 117.069 77.8972 117.109 78.1041C117.149 78.311 117.014 78.511 116.807 78.5512L69.404 87.7429C69.3792 87.7477 69.3548 87.7497 69.3308 87.7497Z" fill="#AFB7AC"/>
<path d="M71.4395 91.2354C71.2606 91.2354 71.101 91.109 71.0655 90.9267C71.0255 90.7198 71.1605 90.5198 71.3674 90.4795L118.771 81.2877C118.978 81.248 119.178 81.3827 119.218 81.5895C119.258 81.7964 119.123 81.9965 118.916 82.0367L71.5127 91.2285C71.4881 91.2331 71.4637 91.2354 71.4395 91.2354Z" fill="#AFB7AC"/>
<path d="M73.4439 96.0008C73.2674 96.0008 73.1089 95.8776 73.0712 95.698C73.0277 95.4918 73.1596 95.2895 73.3658 95.2462L119.336 85.5695C119.541 85.5258 119.744 85.6582 119.788 85.8641C119.831 86.0702 119.699 86.2725 119.493 86.3158L73.5229 95.9926C73.4964 95.9981 73.4701 96.0008 73.4439 96.0008Z" fill="#AFB7AC"/>
<path d="M72.463 101.259C72.2914 101.259 72.1355 101.143 72.0929 100.968C72.043 100.764 72.1682 100.557 72.3729 100.507L119.223 89.0619C119.428 89.0119 119.634 89.1372 119.684 89.3418C119.735 89.5464 119.609 89.7527 119.404 89.8027L72.5538 101.248C72.5235 101.256 72.4932 101.259 72.463 101.259Z" fill="#AFB7AC"/>
<path d="M65.3243 66.2868C65.1338 66.2868 64.9692 66.1444 64.9461 65.9505C64.9212 65.7413 65.0705 65.5515 65.2798 65.5266L109.596 60.2475C109.804 60.2243 109.995 60.3719 110.02 60.5812C110.045 60.7904 109.895 60.9801 109.686 61.0051L65.3698 66.2841C65.3546 66.2859 65.3391 66.2868 65.3243 66.2868Z" fill="#AFB7AC"/>
<path d="M81.7861 68.3472C81.598 68.3472 81.4344 68.2082 81.4087 68.017C81.3807 67.8082 81.5269 67.616 81.7357 67.5879L111.299 63.6036C111.508 63.5769 111.7 63.7219 111.728 63.9307C111.756 64.1394 111.61 64.3317 111.401 64.3597L81.8375 68.344C81.8204 68.3461 81.803 68.3472 81.7861 68.3472Z" fill="#AFB7AC"/>
<path d="M68.56 74.1698C68.3721 74.1698 68.2084 74.0308 68.1826 73.8398C68.1544 73.631 68.3006 73.4387 68.5094 73.4107L111.537 67.588C111.745 67.5594 111.938 67.7059 111.966 67.9147C111.995 68.1235 111.848 68.3157 111.639 68.3439L68.6116 74.1666C68.5943 74.1687 68.5769 74.1698 68.56 74.1698Z" fill="#AFB7AC"/>
<path d="M67.3013 78.9508C67.1186 78.9508 66.9569 78.819 66.9256 78.6327C66.8907 78.4249 67.0307 78.2283 67.2385 78.1932L111.197 70.7993C111.404 70.7642 111.602 70.9046 111.637 71.1122C111.672 71.3201 111.532 71.5167 111.324 71.5518L67.365 78.9456C67.3436 78.9491 67.3224 78.9508 67.3013 78.9508Z" fill="#AFB7AC"/>
<path d="M107.127 54.9944C106.634 54.9944 106.102 54.9128 105.548 54.7517C105.515 54.7419 105.483 54.7288 105.453 54.712L96.9447 50.0525C96.6609 49.9081 89.7043 46.2059 89.6423 32.6283C89.6416 32.4477 89.7428 32.2822 89.9041 32.2006C90.0654 32.1192 90.2586 32.1358 90.4037 32.2437L101.485 40.4886V23.9811C101.485 23.7833 101.607 23.606 101.792 23.5356C101.977 23.4653 102.186 23.5162 102.318 23.664C103.72 25.2365 107.856 29.3179 110.128 29.3179C110.479 29.3179 110.758 29.2168 110.979 29.009C111.118 28.8786 111.32 28.8433 111.495 28.919C111.669 28.9945 111.782 29.1663 111.782 29.3564V48.4199C111.742 50.6995 110.717 54.9944 107.127 54.9944ZM105.864 53.8503C106.313 53.9769 106.738 54.041 107.127 54.041C110.688 54.041 110.829 48.4675 110.829 48.4115V30.1714C110.638 30.2379 110.378 30.2713 110.128 30.2713C107.685 30.2713 104.062 26.8537 102.439 25.1852V41.4373C102.439 41.6175 102.337 41.7824 102.176 41.8633C102.015 41.9439 101.822 41.9271 101.677 41.8196L90.6129 33.5876C90.7288 37.2442 91.4538 42.0427 94.0229 45.8436C95.6913 48.3119 97.3745 49.2013 97.3913 49.2101L105.864 53.8503Z" fill="#161616"/>
<path d="M103.678 25.9799C103.415 25.9799 103.201 25.7665 103.201 25.5032V18.441C102.776 17.579 100.772 13.2736 102.282 11.5975C103.779 9.93737 105.987 9.40728 106.081 9.38535C106.241 9.34797 106.41 9.39622 106.526 9.51272C106.643 9.62923 106.691 9.79779 106.653 9.95835C106.641 10.0112 106.396 11.034 105.817 11.9153C106.395 12.2181 107.104 12.921 107.272 14.5517C107.299 14.8135 107.109 15.0478 106.847 15.0747C106.585 15.1026 106.351 14.9117 106.324 14.6497C106.121 12.6821 105.017 12.6393 105.006 12.6392C104.815 12.6355 104.645 12.5192 104.573 12.3428C104.501 12.1664 104.541 11.9643 104.674 11.8284C104.999 11.4979 105.253 11.0279 105.432 10.6059C104.731 10.8896 103.742 11.4024 102.991 12.2359C102.122 13.1999 103.212 16.3525 104.103 18.1131C104.137 18.18 104.155 18.2536 104.155 18.3285V25.5032C104.155 25.7665 103.941 25.9799 103.678 25.9799Z" fill="#161616"/>
<path d="M109.589 28.4588C109.326 28.4588 109.112 28.2454 109.112 27.9821V20.8221C109.112 20.6978 109.161 20.5785 109.248 20.4894L112.24 17.4194C112.424 17.2308 112.726 17.2272 112.915 17.4108C113.103 17.5947 113.107 17.8965 112.923 18.0849L110.066 21.0161V27.9821C110.066 28.2454 109.853 28.4588 109.589 28.4588Z" fill="#161616"/>
<path d="M122.047 20.0238C119.471 20.0238 116.297 18.4047 116.017 18.259L106.554 14.0257C106.314 13.9181 106.206 13.6361 106.314 13.3958C106.421 13.1556 106.703 13.0478 106.943 13.1552L116.42 17.3944C116.429 17.3984 116.438 17.4028 116.446 17.4074C116.49 17.4299 120.809 19.6704 123.122 18.9233C123.625 18.7609 123.976 18.4695 124.194 18.0321C124.302 17.817 124.305 17.5655 124.203 17.2633C123.333 14.6757 115.837 10.5028 113.022 9.11349C108.455 6.6781 101.5 3.89623 100.296 5.31434C99.9601 5.70981 99.8265 6.1379 99.8867 6.62318C100.093 8.28059 102.401 9.94334 102.425 9.95993C102.639 10.1127 102.689 10.4103 102.536 10.6247C102.384 10.8392 102.087 10.8891 101.872 10.737C101.763 10.6595 99.2005 8.8166 98.9407 6.74293C98.8462 5.98783 99.0574 5.29966 99.5688 4.6971C100.557 3.53413 103.153 3.80318 107.505 5.52104C110.571 6.73092 113.428 8.25008 113.457 8.26515C113.871 8.46937 123.933 13.4694 125.107 16.9593C125.291 17.5068 125.27 18.0111 125.047 18.4584C124.712 19.1276 124.163 19.5892 123.414 19.8308C122.995 19.9664 122.532 20.0236 122.047 20.0238Z" fill="#161616"/>
<path d="M124.755 17.5587C124.574 17.5587 124.402 17.4557 124.321 17.2812C121.719 11.6315 117.081 7.83428 110.539 5.99476C105.626 4.61365 101.425 4.91893 101.383 4.92199C101.117 4.94201 100.891 4.74618 100.871 4.4838C100.85 4.22142 101.046 3.99203 101.308 3.97143C101.485 3.95771 105.695 3.6488 110.766 5.06824C115.469 6.38471 121.788 9.50294 125.187 16.8823C125.297 17.1215 125.193 17.4046 124.953 17.5146C124.889 17.5446 124.821 17.5587 124.755 17.5587Z" fill="#161616"/>
<path d="M121.749 12.7567C121.658 12.7567 121.565 12.7302 121.483 12.6749C121.265 12.5275 121.208 12.231 121.355 12.0128C121.37 11.9911 122.857 9.73702 122.286 7.26349C121.919 5.67148 120.782 4.31134 118.906 3.22064C116.141 1.61357 113.559 1.40039 111.229 2.587C109.488 3.47406 108.553 4.83286 108.544 4.84659C108.397 5.06454 108.1 5.12117 107.882 4.97358C107.664 4.8258 107.607 4.52929 107.755 4.31134C107.797 4.24918 112.059 -1.86181 119.385 2.39651C121.502 3.62698 122.791 5.19611 123.217 7.05946C123.876 9.94124 122.216 12.442 122.145 12.5469C122.053 12.6834 121.902 12.7567 121.749 12.7567Z" fill="#161616"/>
<path d="M122.643 10.7086C122.484 10.7086 122.329 10.6294 122.238 10.4849C118.734 4.88971 109.445 3.72407 109.351 3.71282C109.09 3.68174 108.903 3.44472 108.934 3.1833C108.966 2.92206 109.203 2.73558 109.464 2.76609C109.563 2.77791 111.941 3.06717 114.809 4.08904C118.64 5.45413 121.489 7.49081 123.047 9.97864C123.186 10.2017 123.119 10.496 122.896 10.6357C122.817 10.6851 122.729 10.7086 122.643 10.7086Z" fill="#161616"/>
<path d="M111.238 29.8332C111.113 29.8332 110.989 29.7848 110.896 29.6885C110.712 29.4997 110.717 29.1979 110.906 29.0144C111.217 28.7122 111.352 28.3915 111.318 28.0339C111.223 27.0157 109.838 25.8905 109.313 25.5429C109.093 25.3976 109.033 25.102 109.178 24.8823C109.322 24.6629 109.618 24.6024 109.837 24.7468C110.07 24.8999 112.112 26.29 112.268 27.9436C112.329 28.5892 112.087 29.196 111.57 29.6986C111.477 29.7886 111.357 29.8332 111.238 29.8332Z" fill="#161616"/>
<path d="M82.6164 22.8436C81.9939 22.8436 81.4788 22.5163 81.4111 22.4717C81.1917 22.3262 81.1318 22.0305 81.2771 21.811C81.4224 21.5921 81.7166 21.532 81.9361 21.6758C82.0644 21.7586 82.4677 21.9542 82.7934 21.8684C82.9789 21.8196 83.13 21.6794 83.255 21.4401C83.3771 21.2067 83.665 21.1167 83.8984 21.2384C84.1318 21.3604 84.222 21.6484 84.1001 21.8818C83.7832 22.4881 83.342 22.7118 83.0277 22.7925C82.888 22.8287 82.7497 22.8436 82.6164 22.8436Z" fill="#161616"/>
<path d="M89.5991 21.6796C88.9765 21.6796 88.4613 21.3524 88.3938 21.3077C88.1743 21.1623 88.1144 20.8665 88.2597 20.647C88.405 20.4281 88.6992 20.3681 88.9187 20.5118C89.0472 20.595 89.4505 20.7904 89.776 20.7044C89.9615 20.6556 90.1126 20.5155 90.2376 20.2762C90.3597 20.0428 90.6476 19.9526 90.881 20.0744C91.1144 20.1965 91.2046 20.4844 91.0828 20.7178C90.7658 21.3241 90.3246 21.5478 90.0104 21.6287C89.8704 21.6647 89.7321 21.6796 89.5991 21.6796Z" fill="#161616"/>
<path d="M85.8088 30.9896C84.7256 30.9896 83.5401 30.8591 82.2566 30.5985C79.993 30.1384 78.2919 29.4386 78.2204 29.409C77.9773 29.3081 77.862 29.0293 77.9626 28.786C78.0633 28.5431 78.3423 28.4272 78.5854 28.528C78.6516 28.5555 85.261 31.2502 89.3412 29.3585C92.5405 27.8753 90.2552 20.6927 89.1046 18.0501C88.9995 17.8086 89.1099 17.5278 89.3513 17.4227C89.5925 17.3171 89.8736 17.4279 89.9787 17.6695C90.1627 18.0922 94.4332 28.0489 89.742 30.2236C88.6418 30.7342 87.3257 30.9896 85.8088 30.9896Z" fill="#161616"/>
<path d="M76.2413 31.7728C76.007 31.7728 75.8028 31.6003 75.7696 31.3615L74.9977 25.7866C73.9621 25.778 73.0447 25.4176 72.4861 24.7849C72.081 24.3263 71.6596 23.4951 71.9523 22.1396C72.13 21.317 72.6079 20.936 72.9774 20.7615C74.2931 20.1405 76.2425 21.1078 76.4604 21.2203C76.6946 21.341 76.7863 21.6284 76.6658 21.8623C76.5453 22.0961 76.2581 22.1876 76.024 22.0679C75.5465 21.8229 74.141 21.2655 73.3838 21.624C73.2188 21.702 72.9877 21.8612 72.8844 22.3406C72.717 23.1163 72.8234 23.7264 73.2007 24.1536C73.6404 24.6516 74.452 24.8999 75.3686 24.8181C75.6211 24.7937 75.8482 24.9756 75.8831 25.2275L76.7142 31.2305C76.7503 31.4912 76.5682 31.732 76.3073 31.7681C76.285 31.7713 76.2631 31.7728 76.2413 31.7728Z" fill="#161616"/>
<path d="M78.4031 23.7869H79.2343L78.4031 17.8876L70.9219 12.1555C70.9219 12.1555 67.0981 15.6631 69.0932 21.2385C71.0882 26.8142 75.5808 26.5251 75.5808 26.5251C75.5808 26.5251 76.4778 25.3591 75.4105 25.292C74.3204 25.2239 72.3308 24.8813 72.4182 22.2695C72.5005 19.8049 77.2394 21.1174 78.4031 23.7869Z" fill="#161616"/>
<path d="M71.5868 11.5123L79.2343 17.8601C79.2343 17.8601 87.4636 17.7466 90.1236 16.4997L91.0379 18.8274C91.0379 18.8274 94.9448 12.676 90.1236 8.60282C85.3026 4.52985 76.5745 2.11905 71.5868 11.5123Z" fill="#161616"/>
<path d="M66.433 72.1271C66.316 72.1271 66.2021 72.084 66.1136 72.0043C66.0044 71.9058 65.9468 71.7622 65.9577 71.6155L68.168 41.4137C68.1808 40.9616 68.5433 32.1586 76.2206 31.8173C76.2867 31.814 76.35 31.8251 76.4082 31.8465C76.534 31.7997 76.6776 31.8072 76.8014 31.8743L83.1111 35.2915L87.7326 31.2691C87.8688 31.1505 88.06 31.119 88.2273 31.1878L89.8402 31.8526C89.8559 31.859 89.8713 31.8663 89.8862 31.8743C90.1083 31.995 95.3281 34.9029 95.6704 41.4124C96 47.674 95.6744 66.3617 95.6709 66.5495C95.6669 66.7774 95.5022 66.9705 95.2777 67.0106L66.5166 72.1197C66.4887 72.1247 66.4609 72.1271 66.433 72.1271ZM76.2896 32.7678C76.2808 32.7688 76.2719 32.7694 76.2629 32.7697C73.3676 32.8986 71.2893 34.3736 70.0861 37.1537C69.163 39.2865 69.1211 41.4229 69.1207 41.4443C69.1207 41.4536 69.1203 41.4631 69.1196 41.4723L66.9532 71.0738L94.7244 66.1405C94.7694 63.4069 95.0197 47.187 94.7183 41.4626C94.4145 35.6899 89.7905 32.9189 89.4499 32.723L88.1363 32.1817L88.0995 32.2137C88.2034 32.3228 88.2543 32.4793 88.2219 32.6382L86.8503 39.3715C86.8162 39.5395 86.6945 39.6761 86.5317 39.7295C86.3689 39.7828 86.19 39.7447 86.063 39.6295L83.2676 37.0944L81.172 40.2861C81.0801 40.4262 80.9188 40.5053 80.7537 40.5008C80.586 40.4937 80.4346 40.3993 80.3546 40.2519L76.2896 32.7678ZM77.7601 33.4777L80.812 39.0968L82.7331 36.1709L77.7601 33.4777ZM83.612 36.1196L86.083 38.3607L87.1705 33.0224L83.612 36.1196Z" fill="#161616"/>
<path d="M78.222 68.5974H74.4084V32.5585H76.7551L78.222 35.3546V68.5974Z" fill="#946D42"/>
<path d="M84.0536 57.7633C83.7994 57.7633 83.5885 57.5629 83.5776 57.3065L82.6984 36.3865C82.6874 36.1236 82.8918 35.9014 83.1547 35.8902C83.415 35.8869 83.64 36.0835 83.6511 36.3467L84.5303 57.2666C84.5414 57.5296 84.3369 57.7517 84.074 57.763C84.0671 57.7631 84.0605 57.7633 84.0536 57.7633Z" fill="#161616"/>
<path d="M91.7604 68.5975H87.7561V32.6262L88.6241 31.6288L91.7604 33.9563V68.5975Z" fill="#946D42"/>
<path d="M66.3997 71.6947V81.8363C66.3997 81.8363 67.6715 88.6525 73.964 86.9899C80.2567 85.3273 87.7669 82.1687 87.7669 82.1687C87.7669 82.1687 92.2081 80.1736 94.0368 75.8512C95.8656 71.5286 95.2222 66.5411 95.2222 66.5411L66.3997 71.6947Z" fill="#946D42"/>
<path d="M69.1749 38.2781L62.1938 63.2161C62.1938 63.2161 61.5287 67.5387 64.7707 68.5359C68.0125 69.5334 69.1762 68.8683 69.675 68.5359C70.1739 68.2036 90.7889 55.9282 90.7889 55.9282L86.3832 47.5056L71.8362 54.6543" fill="#DEE5DC"/>
<path d="M67.7078 69.5397C66.9317 69.5397 65.9335 69.3927 64.6303 68.9917C61.7547 68.1069 61.4709 64.7795 61.7226 63.1437C61.7255 63.1246 61.7295 63.1061 61.7346 63.0876L68.7157 38.1496C68.7868 37.896 69.0504 37.7482 69.3032 37.8192C69.5568 37.8901 69.7048 38.1532 69.6337 38.4067L62.661 63.3149C62.6097 63.6865 62.1949 67.2451 64.9106 68.0804C68.0497 69.0462 69.0738 68.3636 69.4106 68.1396C69.8812 67.8257 87.2363 57.4892 90.1572 55.7496L86.1761 48.1385L72.0464 55.0822C71.8099 55.1978 71.5243 55.1007 71.4083 54.8644C71.2922 54.6282 71.3896 54.3425 71.6259 54.2262L86.1729 47.0775C86.4053 46.9635 86.6856 47.0554 86.8055 47.2844L91.2113 55.7073C91.3285 55.9317 91.2502 56.2084 91.0326 56.338C83.9104 60.5788 70.3361 68.6691 69.9393 68.9328C69.4971 69.2276 68.8381 69.5397 67.7078 69.5397Z" fill="#161616"/>
<path d="M88.6275 24.3592H86.8027C86.5393 24.3592 86.326 24.1458 86.326 23.8825C86.326 23.6191 86.5393 23.4058 86.8027 23.4058H87.8301L87.0458 21.947C86.9211 21.7152 87.008 21.4263 87.2399 21.3014C87.4716 21.1769 87.7607 21.2635 87.8856 21.4957L89.0476 23.6569C89.1271 23.8045 89.1229 23.9832 89.0369 24.1271C88.9507 24.2711 88.7953 24.3592 88.6275 24.3592Z" fill="#161616"/>
<path d="M88.6235 65.189L98.8925 52.0886C98.8925 52.0886 104.135 48.5583 106.812 50.9193C110.016 53.7454 109.875 58.8937 109.875 58.8937V85.4936C109.875 85.4936 114.006 89.4839 114.006 92.6425C114.006 92.6425 111.957 94.1388 106.849 92.6425C101.741 91.1464 97.2902 85.3276 97.2902 85.3276V73.1914L88.6243 81.6743" fill="#946D42"/>
<path d="M72.2451 71.6497L82.557 58.5605C82.557 58.5605 87.8633 55.0365 90.5399 57.3971C93.7443 60.2232 93.6671 65.3774 93.6671 65.3774V91.9776C93.6671 91.9776 97.7555 95.9676 97.7555 99.1263C97.7555 99.1263 95.6328 100.623 90.5246 99.1263C85.4168 97.63 80.8915 91.8113 80.8915 91.8113V71.6484" fill="#946D42"/>
<path d="M80.9869 77.4641C80.7235 77.4641 80.5102 77.2508 80.5102 76.9874V71.6483C80.5102 71.385 80.7235 71.1716 80.9869 71.1716C81.2502 71.1716 81.4636 71.385 81.4636 71.6483V76.9874C81.4636 77.2508 81.2502 77.4641 80.9869 77.4641Z" fill="#161616"/>
<path d="M93.5719 77.4641C93.3086 77.4641 93.0952 77.2507 93.0952 76.9874V65.3773C93.0963 65.3182 93.1579 60.4098 90.1619 57.7675C88.9534 56.7014 87.0456 57.0674 85.6584 57.5618C84.2775 58.0539 83.1294 58.7652 82.8548 58.9412L70.7234 74.6328C70.5623 74.8409 70.2631 74.8796 70.0547 74.7182C69.8464 74.5573 69.8081 74.2579 69.969 74.0495L82.1498 58.2942C82.1813 58.2536 82.2189 58.2185 82.2614 58.1899C82.4893 58.037 87.8735 54.4781 90.7927 57.0523C94.1245 59.9913 94.0486 65.1687 94.0486 65.3876V76.9874C94.0486 77.2507 93.8352 77.4641 93.5719 77.4641Z" fill="#161616"/>
<path d="M93.6672 91.9775V76.9874H80.8915V91.8113C80.8915 91.8113 85.4452 97.6299 90.5534 99.1262C95.6616 100.623 97.7335 99.1262 97.7335 99.1262C97.7337 95.9676 93.6672 91.9775 93.6672 91.9775Z" fill="#FBFCFA"/>
<path d="M94.7392 100.268C93.4542 100.268 92.0171 100.038 90.4672 99.5838C88.277 98.9421 85.9509 97.4862 83.5538 95.2568C81.7809 93.6076 80.657 92.1637 80.6101 92.1031C80.5454 92.0196 80.5103 91.9168 80.5103 91.8114V76.892C80.5103 76.6287 80.7237 76.4153 80.987 76.4153H93.7628C94.0261 76.4153 94.2395 76.6287 94.2395 76.892V91.7818C94.9826 92.5476 98.2821 96.1162 98.2821 99.1263C98.2821 99.2804 98.2078 99.4247 98.0825 99.5142C98.039 99.545 97.0004 100.268 94.7392 100.268ZM81.4636 91.6441C82.1481 92.4885 86.2451 97.3533 90.7351 98.6687C92.1978 99.0971 93.545 99.3145 94.7392 99.3145C96.1272 99.3145 96.958 99.0188 97.3175 98.851C97.0923 95.9654 93.4655 92.354 93.4277 92.3167C93.337 92.227 93.2859 92.105 93.2859 91.9774V77.3687H81.4636V91.6441Z" fill="#161616"/>
<path d="M93.7815 92.4543C93.6488 92.4543 93.5168 92.3992 93.4226 92.2915C92.331 91.044 89.0651 91.7301 87.8987 92.0995C87.6478 92.1797 87.3799 92.04 87.3004 91.789C87.2209 91.5381 87.3599 91.2702 87.6108 91.1907C87.6585 91.1754 88.7953 90.8186 90.1429 90.6789C92.0505 90.4809 93.3952 90.8122 94.14 91.6634C94.3133 91.8615 94.2933 92.1626 94.0952 92.3359C94.005 92.4154 93.893 92.4543 93.7815 92.4543Z" fill="#161616"/>
<path d="M97.2902 73.1914V85.3275C97.2902 85.3275 101.791 91.1464 106.899 92.6425C112.007 94.1388 114.011 92.6425 114.011 92.6425C114.011 89.4838 109.875 85.4936 109.875 85.4936V70.3136H97.1895L97.2902 73.1914Z" fill="#FBFCFA"/>
<path d="M111.067 93.7842C109.794 93.7842 108.363 93.5541 106.812 93.1C104.622 92.4584 102.304 91.002 99.9245 88.7717C98.1643 87.1222 97.0532 85.6779 97.0068 85.6173C96.9432 85.534 96.9087 85.4321 96.9087 85.3274V73.2069L96.7136 70.2494C96.705 70.1181 96.7512 69.9886 96.8412 69.8923C96.9312 69.796 97.0576 69.7415 97.1895 69.7415H109.971C110.234 69.7415 110.447 69.9548 110.447 70.2182V85.2956C111.204 86.0623 114.559 89.6308 114.559 92.6424C114.559 92.7938 114.487 92.9361 114.365 93.0261C114.323 93.0569 113.312 93.7842 111.067 93.7842ZM97.8623 85.1619C98.5378 86.0046 102.591 90.87 107.081 92.185C108.544 92.6134 109.885 92.8308 111.067 92.8308C112.428 92.8308 113.241 92.5375 113.594 92.3697C113.367 89.4858 109.677 85.873 109.638 85.8356C109.546 85.7458 109.494 85.6224 109.494 85.4935V70.6949H97.6985L97.8611 73.16C97.8617 73.1705 97.8621 73.1808 97.8621 73.1913V85.1619H97.8623Z" fill="#161616"/>
<path d="M97.3855 70.7903C97.1222 70.7903 96.9088 70.5769 96.9088 70.3136V63.2583C96.9088 62.995 97.1222 62.7816 97.3855 62.7816C97.6489 62.7816 97.8623 62.995 97.8623 63.2583V70.3136C97.8623 70.5769 97.6489 70.7903 97.3855 70.7903Z" fill="#161616"/>
<path d="M103.84 86.4809C103.651 86.4809 103.472 86.368 103.397 86.1823C103.299 85.9382 103.417 85.6607 103.661 85.5622C103.803 85.5048 107.173 84.1688 110.205 85.0351C110.458 85.1076 110.605 85.3715 110.532 85.6245C110.46 85.8779 110.196 86.0244 109.943 85.9521C107.23 85.1766 104.049 86.4336 104.017 86.4466C103.959 86.4698 103.899 86.4809 103.84 86.4809Z" fill="#161616"/>
<path d="M69.6413 11.9648H68.1158C67.8525 11.9648 67.6391 11.7514 67.6391 11.4881C67.6391 11.2247 67.8525 11.0114 68.1158 11.0114H69.6413C69.9046 11.0114 70.118 11.2247 70.118 11.4881C70.118 11.7514 69.9046 11.9648 69.6413 11.9648Z" fill="#161616"/>
<path d="M69.5919 10.3264C69.467 10.3264 69.3421 10.2776 69.2487 10.1805L68.5006 9.40484C68.318 9.2153 68.3233 8.91364 68.5128 8.73078C68.7024 8.5481 69.0042 8.55363 69.1869 8.74298L69.9349 9.51867C70.1176 9.70821 70.1123 10.0099 69.9227 10.1927C69.8303 10.2822 69.7111 10.3264 69.5919 10.3264Z" fill="#161616"/>
<path d="M85.6346 33.1028C85.388 33.1028 85.179 32.9127 85.1598 32.6625L84.9935 30.5011C84.9733 30.2387 85.1697 30.0095 85.4323 29.9893C85.6956 29.9657 85.924 30.1655 85.9442 30.4281L86.1105 32.5895C86.1307 32.8519 85.9343 33.0811 85.6717 33.1013C85.6592 33.1026 85.6468 33.1028 85.6346 33.1028Z" fill="#161616"/>
<path d="M87.6129 49.2208L94.862 45.0119C94.862 45.0119 97.6881 43.7648 99.3509 45.0119C101.013 46.2588 103.008 49.2208 103.008 49.2208C103.008 49.2208 101.542 49.5227 100.987 49.2208L100.182 47.5888C100.182 47.5888 102.04 51.2424 101.319 51.9093C100.598 52.5761 98.5193 50.0823 98.5193 50.0823C98.5193 50.0823 100.68 53.7995 99.8495 54.518C99.0183 55.2363 97.1895 51.6394 97.1895 51.6394C97.1895 51.6394 95.5273 54.1694 93.1995 53.3243L90.6226 54.6127" fill="#DEE5DC"/>
<path d="M90.623 55.0897C90.4481 55.0897 90.2797 54.993 90.1962 54.8259C90.0784 54.5905 90.1739 54.3042 90.4094 54.1864L92.9863 52.898C93.1032 52.8394 93.2391 52.8316 93.3621 52.8764C95.3025 53.5798 96.7319 51.4673 96.7917 51.3771C96.8854 51.2358 97.0465 51.154 97.2168 51.1643C97.3861 51.174 97.5377 51.2724 97.6145 51.4234C98.2819 52.7353 99.1781 53.974 99.5562 54.1227C99.7202 53.7183 99.053 51.9487 98.1074 50.322C97.9829 50.1079 98.0432 49.8341 98.2461 49.6918C98.4491 49.55 98.7272 49.5869 98.8856 49.7771C99.6638 50.7095 100.665 51.547 100.994 51.5475C101.131 51.1812 100.658 49.6792 99.9532 48.2024L99.7546 47.7995C99.6386 47.5644 99.7343 47.2797 99.9687 47.1624C100.203 47.0453 100.488 47.1388 100.607 47.3726C100.692 47.5398 100.782 47.7213 100.873 47.9128L101.332 48.8429C101.52 48.886 101.833 48.8875 102.169 48.8591C101.499 47.937 100.188 46.2353 99.0647 45.3931C97.7175 44.3823 95.3292 45.3334 95.0758 45.4388L87.8522 49.6329C87.6245 49.7654 87.3326 49.6878 87.2006 49.4599C87.0685 49.2325 87.1459 48.9405 87.3736 48.8084L94.6227 44.5995C94.638 44.5907 94.6536 44.5827 94.6696 44.5756C94.7955 44.5203 97.7726 43.2319 99.6369 44.6303C101.344 45.9108 103.32 48.8307 103.404 48.9545C103.492 49.0862 103.51 49.2536 103.45 49.4008C103.39 49.548 103.26 49.6556 103.104 49.6876C102.927 49.724 102.273 49.8482 101.654 49.8291C101.985 50.8609 102.109 51.8282 101.643 52.2594C101.455 52.4323 101.213 52.5139 100.941 52.4969C100.669 52.4792 100.368 52.3494 100.066 52.1608C100.64 53.5972 100.667 54.4417 100.161 54.8786C99.9557 55.0563 99.6928 55.1247 99.4211 55.0717C98.5973 54.9098 97.6544 53.4612 97.1125 52.5025C96.2971 53.3836 94.8782 54.3223 93.2374 53.8384L90.836 55.0391C90.7673 55.0733 90.6945 55.0897 90.623 55.0897Z" fill="#161616"/>
<path d="M104.088 43.4101C103.989 43.4101 103.889 43.379 103.803 43.3148L101.808 41.8187C101.597 41.6608 101.554 41.3618 101.713 41.1513C101.871 40.9408 102.169 40.8985 102.38 41.056L104.375 42.552C104.585 42.7099 104.628 43.0089 104.47 43.2194C104.377 43.3443 104.234 43.4101 104.088 43.4101Z" fill="#161616"/>
<path d="M106.749 6.19231C106.749 6.19231 103.784 5.67537 103.091 6.82042C102.399 7.96566 112.052 13.0084 112.052 13.0084C112.052 13.0084 121.463 17.7467 122.642 16.6238C123.647 15.6681 121.24 13.476 121.24 13.476C121.24 13.476 109.163 6.23293 106.749 6.19231Z" fill="#161616"/>
<path d="M81.7935 25.3864C81.6529 26.1329 83.7186 28.3652 86.1837 27.4372C87.5134 26.9368 86.7129 25.6989 85.1661 25.6989C84.3013 25.6987 82.2174 23.1348 81.7935 25.3864Z" fill="#161616"/>
<path d="M161.72 94.1564C161.605 94.1564 161.493 94.115 161.404 94.0372L158.946 91.8678C158.748 91.6935 158.73 91.3923 158.904 91.1949C159.078 90.9978 159.379 90.9789 159.577 91.1528L161.462 92.8165L163.11 86.7926C163.18 86.539 163.44 86.3893 163.696 86.4588C163.95 86.5282 164.099 86.7903 164.03 87.0443L162.18 93.8055C162.136 93.9642 162.014 94.0893 161.856 94.1364C161.811 94.1499 161.765 94.1564 161.72 94.1564Z" fill="#161616"/>
<path d="M161.72 94.1564C161.688 94.1564 161.654 94.1528 161.621 94.1459L158.731 93.5352C158.473 93.4806 158.309 93.2278 158.363 92.9702C158.418 92.7124 158.672 92.5491 158.928 92.6021L161.818 93.2129C162.076 93.2674 162.241 93.5203 162.186 93.7779C162.139 94.0023 161.941 94.1564 161.72 94.1564Z" fill="#161616"/>
<path d="M153.317 73.0479C153.317 73.0479 157.937 80.9542 158.589 82.7037C159.24 84.4534 166.656 94.5298 175.173 89.1241C175.173 89.1241 179.802 87.3186 179.93 80.7618L164.117 73.6398C164.117 73.6396 157.303 65.9766 153.317 73.0479Z" fill="#EAEFE8"/>
<path d="M170.059 91.098C170.058 91.098 170.058 91.098 170.058 91.098C163.534 91.098 158.688 84.296 158.142 82.8299C157.512 81.1385 152.952 73.3472 152.906 73.2681C152.82 73.122 152.819 72.9516 152.902 72.8038C154.113 70.6546 155.706 69.5698 157.634 69.5698C160.863 69.5698 163.893 72.693 164.402 73.2431L180.126 80.3258C180.3 80.4042 180.41 80.5796 180.407 80.7705C180.279 87.2926 175.923 89.2852 175.392 89.5087C173.676 90.5899 171.882 91.098 170.059 91.098ZM153.869 73.0481C154.663 74.4114 158.434 80.8824 159.035 82.4969C159.521 83.801 164.121 90.1446 170.058 90.1446C170.058 90.1446 170.059 90.1446 170.059 90.1446C171.711 90.1446 173.346 89.6792 174.918 88.6813C174.944 88.6647 174.971 88.6709 175 88.6598C175.173 88.5913 179.191 86.9379 179.444 81.0554L163.921 74.0694C163.86 74.0419 163.805 74.0043 163.761 73.9542C163.73 73.9199 160.67 70.527 157.635 70.527C156.143 70.527 154.878 71.3756 153.869 73.0481Z" fill="#161616"/>
<path d="M179.93 80.7616L189.701 74.5906C189.701 74.5906 186.487 85.7756 179.93 80.7616Z" fill="#161616"/>
<path d="M179.745 81.1964L191.28 80.486C191.28 80.4862 183.082 88.7461 179.745 81.1964Z" fill="#161616"/>
<path d="M179.938 82.0817L191.045 85.2743C191.045 85.2743 180.554 90.3128 179.938 82.0817Z" fill="#161616"/>
<path d="M156.181 70.3103C156.181 70.3103 154.416 65.9768 156.181 66.1053C157.945 66.2337 158.83 67.648 158.83 67.648C158.83 67.648 160.772 65.8359 161.416 66.5491C162.06 67.2624 160.275 70.7229 160.275 70.7229" fill="#946D42"/>
<path d="M172.988 95.8651H169.749C169.486 95.8651 169.273 95.6517 169.273 95.3884C169.273 95.1251 169.486 94.9117 169.749 94.9117H172.225L169.493 89.3034C169.378 89.0667 169.476 88.7815 169.713 88.6661C169.95 88.5507 170.235 88.6491 170.35 88.8858L173.416 95.1796C173.488 95.3272 173.479 95.5017 173.392 95.6411C173.305 95.7805 173.152 95.8651 172.988 95.8651Z" fill="#161616"/>
<path d="M170.417 97.4453C170.251 97.4453 170.089 97.3584 170.002 97.2032C169.872 96.9742 169.953 96.6832 170.182 96.5537L172.753 95.0994C172.982 94.9701 173.273 95.0502 173.402 95.2796C173.532 95.5086 173.451 95.7996 173.222 95.929L170.651 97.3834C170.577 97.4255 170.496 97.4453 170.417 97.4453Z" fill="#161616"/>
<path d="M159.425 78.6675C159.425 78.6675 161.373 79.3709 162.366 78.2539C163.359 77.1369 162.476 75.1923 162.476 75.1923C162.476 75.1923 164.593 75.6125 165.812 74.4034L164.117 73.6397C164.117 73.6397 157.303 65.9766 153.317 73.0479C153.317 73.0479 156.378 78.2871 157.868 81.1795C158.458 80.9204 159.602 80.2127 159.425 78.6675Z" fill="#EAEFE8"/>
<path d="M157.868 81.6561C157.695 81.6561 157.528 81.5612 157.444 81.3978C155.977 78.5495 152.936 73.3407 152.906 73.2884C152.82 73.1422 152.819 72.9616 152.902 72.814C154.113 70.6648 155.705 69.5751 157.634 69.5751C160.863 69.5751 163.893 72.6958 164.402 73.2459L166.007 73.969C166.151 74.0334 166.253 74.1642 166.281 74.3187C166.309 74.4733 166.259 74.6316 166.147 74.7422C165.255 75.6271 163.985 75.7618 163.161 75.7373C163.36 76.5052 163.488 77.7088 162.722 78.5707C162.261 79.089 161.575 79.3628 160.737 79.3628C160.432 79.3628 160.145 79.3268 159.906 79.2821C159.765 80.7042 158.605 81.3764 158.06 81.6161C157.998 81.6434 157.933 81.6561 157.868 81.6561ZM153.869 73.048C154.454 74.0536 156.728 77.9819 158.07 80.5349C158.595 80.2016 159.057 79.6435 158.951 78.7217C158.932 78.5579 159 78.3958 159.129 78.2934C159.258 78.191 159.432 78.1632 159.587 78.2189C159.591 78.2206 160.128 78.4092 160.738 78.4092C161.303 78.4092 161.731 78.2504 162.01 77.9369C162.776 77.0756 162.049 75.4059 162.042 75.3894C161.968 75.2265 161.991 75.036 162.102 74.8961C162.213 74.7561 162.392 74.6894 162.568 74.7246C162.573 74.7254 163.841 74.9597 164.85 74.4931L163.921 74.0744C163.86 74.047 163.805 74.0069 163.76 73.9568C163.73 73.9224 160.67 70.5285 157.634 70.5285C156.143 70.5283 154.877 71.3757 153.869 73.048Z" fill="#161616"/>
<path d="M165.812 74.4033C165.812 74.4033 164.887 82.5924 169.709 84.4412C174.53 86.2899 176.331 79.2295 176.331 79.2295L165.812 74.4033Z" fill="#EAEFE8"/>
<path d="M171.264 85.1868H171.264C170.707 85.1868 170.127 85.0922 169.538 84.8665C167.399 84.0463 165.997 81.9538 165.482 78.7959C165.104 76.4793 165.328 74.431 165.338 74.3448C165.355 74.1928 165.444 74.0611 165.578 73.9858C165.711 73.9102 165.872 73.9047 166.011 73.9686L176.529 78.7953C176.738 78.8914 176.849 79.1235 176.792 79.3466C176.777 79.4057 176.414 80.7889 175.581 82.2108C174.432 84.1709 172.939 85.1868 171.264 85.1868ZM166.24 75.1241C166.151 77.0552 166.229 82.5966 169.88 83.9962C170.359 84.18 170.825 84.2731 171.264 84.2731C173.984 84.2736 175.37 80.6816 175.755 79.49L166.24 75.1241Z" fill="#161616"/>
<path d="M153.317 73.048C153.317 73.048 151.646 73.6833 151.26 75.6155L154.336 74.8084L153.317 73.048Z" fill="#161616"/>
<path d="M157.765 73.0978C158.158 73.0978 158.476 72.7793 158.476 72.3865C158.476 71.9937 158.158 71.6753 157.765 71.6753C157.372 71.6753 157.054 71.9937 157.054 72.3865C157.054 72.7793 157.372 73.0978 157.765 73.0978Z" fill="#161616"/>
<path d="M143.442 94.932C143.442 94.932 147.075 98.8219 150.345 96.998C153.614 95.1741 153.614 89.9172 150.345 89.7C147.075 89.4826 149.497 96.5062 143.442 94.932Z" fill="#8DC73F"/>
<path d="M148.87 99.7739C148.606 99.7739 148.393 99.5605 148.393 99.2972V97.5811C148.393 97.3177 148.606 97.1044 148.87 97.1044C149.133 97.1044 149.346 97.3177 149.346 97.5811V99.2972C149.346 99.5605 149.133 99.7739 148.87 99.7739Z" fill="#161616"/>
<path d="M150.395 99.0112C150.132 99.0112 149.918 98.7978 149.918 98.5345V97.0091C149.918 96.7457 150.132 96.5323 150.395 96.5323C150.659 96.5323 150.872 96.7457 150.872 97.0091V98.5345C150.872 98.7978 150.659 99.0112 150.395 99.0112Z" fill="#161616"/>
<path d="M152.373 91.0953C152.373 91.0953 154.637 91.8386 154.759 93.3248L152.554 93.0073L152.373 91.0953Z" fill="#161616"/>
<path d="M150.398 92.2472C150.768 92.2472 151.068 91.9472 151.068 91.5772C151.068 91.2071 150.768 90.9071 150.398 90.9071C150.028 90.9071 149.728 91.2071 149.728 91.5772C149.728 91.9472 150.028 92.2472 150.398 92.2472Z" fill="#161616"/>
<path d="M135.631 83.1251C135.631 83.1251 139.264 87.015 142.534 85.1911C145.803 83.3672 145.803 78.1103 142.534 77.8931C139.264 77.6758 141.686 84.6993 135.631 83.1251Z" fill="#8DC73F"/>
<path d="M141.052 87.9517C140.788 87.9517 140.575 87.7383 140.575 87.475V85.7588C140.575 85.4955 140.788 85.2821 141.052 85.2821C141.315 85.2821 141.528 85.4955 141.528 85.7588V87.475C141.528 87.7383 141.315 87.9517 141.052 87.9517Z" fill="#161616"/>
<path d="M142.577 87.3796C142.314 87.3796 142.1 87.1663 142.1 86.9029V85.1868C142.1 84.9235 142.314 84.7101 142.577 84.7101C142.841 84.7101 143.054 84.9235 143.054 85.1868V86.9029C143.054 87.1663 142.841 87.3796 142.577 87.3796Z" fill="#161616"/>
<path d="M144.562 79.2885C144.562 79.2885 146.827 80.0315 146.948 81.5177L144.743 81.2002L144.562 79.2885Z" fill="#161616"/>
<path d="M142.58 80.6158C142.95 80.6158 143.25 80.3158 143.25 79.9457C143.25 79.5756 142.95 79.2756 142.58 79.2756C142.21 79.2756 141.91 79.5756 141.91 79.9457C141.91 80.3158 142.21 80.6158 142.58 80.6158Z" fill="#161616"/>
<path d="M216.413 67.1696C216.512 67.7633 216.11 68.3247 215.516 68.4231C214.923 68.5217 214.361 68.1199 214.263 67.5263L205.848 16.8146C205.749 16.2208 206.15 15.6594 206.744 15.561C207.338 15.4624 207.899 15.864 207.998 16.4578L216.413 67.1696Z" fill="#DEE5DC"/>
<path d="M215.337 68.9148C214.568 68.9148 213.918 68.3636 213.792 67.6045L205.377 16.8927C205.309 16.4801 205.405 16.0651 205.648 15.7248C205.892 15.3844 206.253 15.1592 206.666 15.0909C206.751 15.0768 206.838 15.0696 206.924 15.0696C207.693 15.0696 208.342 15.6208 208.468 16.38L216.883 67.0917C217.025 67.9439 216.447 68.7522 215.594 68.8935C215.509 68.9076 215.422 68.9148 215.337 68.9148ZM206.924 16.0228C206.89 16.0228 206.856 16.0257 206.822 16.0312C206.661 16.0581 206.519 16.1464 206.424 16.2795C206.329 16.4126 206.291 16.575 206.318 16.7363L214.733 67.4483C214.788 67.7789 215.105 68.0091 215.438 67.9528C215.772 67.8973 215.998 67.581 215.943 67.2475L207.528 16.5357C207.478 16.2387 207.224 16.0228 206.924 16.0228Z" fill="#161616"/>
<path d="M206.747 25.284L209.824 24.6778C209.824 24.6778 209.939 10.2283 205.801 9.84274C201.663 9.45737 206.747 25.284 206.747 25.284Z" fill="#946D42"/>
<path d="M215.669 63.2423C215.669 63.2423 217.381 68.6987 220.921 68.8154C224.161 68.9222 226.027 84.0541 226.027 84.0541C226.027 84.0541 224.891 86.0841 224.504 84.307C224.118 82.5298 221.905 73.4882 220.702 73.4549C219.5 73.4215 221.715 84.6946 221.715 84.6946C221.715 84.6946 221.079 87.5165 220.106 85.5413C219.134 83.566 217.901 73.9196 216.543 74.053C215.184 74.1865 217.239 86.0899 217.239 86.0899C217.239 86.0899 216.575 88.117 215.801 86.7805C215.026 85.4442 213.7 74.1263 211.973 74.8112C210.687 75.3211 212.319 86.3286 212.319 86.3286C212.319 86.3286 211.837 90.0827 210.795 86.5765C210.311 84.9486 207.561 75.0909 209.109 71.4199C209.901 69.539 213.932 69.9749 213.609 63.5842L215.669 63.2423Z" fill="white"/>
<path d="M211.623 88.5499C211.01 88.5499 210.666 87.8152 210.338 86.7122C209.992 85.5455 206.999 75.1985 208.67 71.2348C208.975 70.5084 209.628 70.092 210.318 69.6508C211.735 68.7456 213.341 67.7193 213.133 63.6084C213.121 63.3662 213.292 63.1536 213.531 63.114L215.592 62.7719C215.826 62.7324 216.053 62.8726 216.124 63.0991C216.141 63.1506 217.779 68.2348 220.937 68.3387C223.081 68.4094 224.371 72.9549 225.154 76.3679C226.021 80.1446 226.496 83.9575 226.501 83.9956C226.513 84.0961 226.493 84.2259 226.444 84.3144C226.237 84.683 225.685 85.5681 225.013 85.5681C225.013 85.5681 225.013 85.5681 225.013 85.5681C224.678 85.5681 224.238 85.3489 224.039 84.4359C222.909 79.2457 221.502 75.2389 220.836 74.1863C220.678 75.6124 221.361 80.4262 222.183 84.6092C222.195 84.6744 222.226 84.7381 222.211 84.8027C222.081 85.3801 221.615 86.721 220.852 86.7212V86.7204C220.09 86.7206 219.828 85.9915 219.71 85.7522C219.31 84.94 218.892 83.0918 218.426 80.9517C218 78.9921 217.227 75.4776 216.653 74.6621C216.312 75.9105 216.903 81.3165 217.713 86.0088C217.726 86.0853 217.718 86.1642 217.694 86.2382C217.581 86.5841 217.148 87.7129 216.349 87.7129C215.979 87.7129 215.655 87.4795 215.389 87.0192C215.099 86.5193 214.82 85.1902 214.352 82.8841C214.014 81.2156 213.631 79.3246 213.209 77.8133C212.674 75.8931 212.298 75.4109 212.158 75.2917C211.781 76.0436 211.908 80.3059 212.791 86.2586C212.797 86.3019 212.798 86.3458 212.792 86.3892C212.608 87.823 212.215 88.5499 211.623 88.5499ZM214.1 63.9858C214.196 68.3042 212.258 69.5426 210.831 70.4543C210.221 70.8442 209.739 71.1522 209.548 71.6049C208.94 73.0476 208.979 75.8403 209.66 79.681C210.259 83.0584 211.152 86.1045 211.252 86.4407C211.393 86.914 211.51 87.2038 211.596 87.3791C211.689 87.1169 211.784 86.7157 211.838 86.3314C211.774 85.891 211.414 83.3581 211.189 80.8028C210.704 75.2801 211.249 74.5856 211.798 74.368C211.904 74.3259 212.014 74.3047 212.124 74.3047C213.382 74.3047 214.087 76.7781 215.287 82.6948C215.631 84.3947 215.988 86.1524 216.213 86.5416C216.274 86.6474 216.323 86.7056 216.354 86.7363C216.467 86.636 216.637 86.3393 216.748 86.0483C216.287 83.362 214.986 75.1796 215.973 73.8829C216.146 73.6568 216.353 73.5927 216.496 73.5784C216.521 73.576 216.545 73.5748 216.57 73.5748C217.605 73.5748 218.17 75.3661 219.342 80.7487C219.756 82.6534 220.185 84.6229 220.533 85.3306C220.647 85.5609 220.735 85.6753 220.787 85.7297C220.925 85.5718 221.116 85.121 221.227 84.6836C221.13 84.1804 220.697 81.9059 220.349 79.5607C219.526 74.022 219.965 73.4879 220.177 73.2314C220.311 73.068 220.496 72.978 220.697 72.978C221.255 72.993 221.948 73.4017 223.366 78.0888C224.162 80.7223 224.807 83.4556 224.97 84.2053C225.004 84.3604 225.039 84.4572 225.066 84.5154C225.193 84.4168 225.384 84.1874 225.534 83.9514C225.434 83.1913 224.979 79.8671 224.223 76.575C222.682 69.8674 221.294 69.3043 220.905 69.2917C217.618 69.1834 215.838 65.0913 215.351 63.7783L214.1 63.9858Z" fill="#161616"/>
<path d="M18.4192 35.8467C22.9724 35.8467 26.6635 32.1556 26.6635 27.6024C26.6635 23.0491 22.9724 19.358 18.4192 19.358C13.866 19.358 10.1748 23.0491 10.1748 27.6024C10.1748 32.1556 13.866 35.8467 18.4192 35.8467Z" fill="#DEE5DC"/>
<path d="M18.7309 22.0417C22.0417 22.0417 24.7256 19.3578 24.7256 16.047C24.7256 12.7363 22.0417 10.0524 18.7309 10.0524C15.4202 10.0524 12.7363 12.7363 12.7363 16.047C12.7363 19.3578 15.4202 22.0417 18.7309 22.0417Z" fill="#DEE5DC"/>
<path d="M18.6444 47.0502C18.644 47.0502 18.6436 47.0502 18.6433 47.0502C18.3799 47.0502 18.1671 46.7947 18.1677 46.5314L18.2543 13.6476C18.2548 13.3849 18.4682 13.1088 18.731 13.1088C18.7314 13.1088 18.7317 13.1088 18.7321 13.1088C18.9954 13.1088 19.2082 13.3666 19.2077 13.6297L19.1211 46.5123C19.1205 46.7752 18.9072 47.0502 18.6444 47.0502Z" fill="#161616"/>
<path d="M18.644 29.8677C18.5681 29.8677 18.4911 29.8494 18.4194 29.8111L13.9647 27.4262C13.7326 27.3021 13.6453 27.013 13.7694 26.7809C13.8939 26.5487 14.1826 26.4615 14.4147 26.5857L18.8694 28.9705C19.1015 29.0947 19.1888 29.3838 19.0647 29.6158C18.9788 29.7762 18.8141 29.8677 18.644 29.8677Z" fill="#161616"/>
<path d="M18.7306 19.8345C18.6229 19.8345 18.5144 19.7983 18.4251 19.7235C18.223 19.5546 18.1963 19.2541 18.3653 19.0522L21.8696 14.861C22.0386 14.6588 22.3391 14.6318 22.541 14.8011C22.7431 14.97 22.7698 15.2705 22.6009 15.4725L19.0965 19.6637C19.0023 19.7766 18.8669 19.8345 18.7306 19.8345Z" fill="#161616"/>
<path d="M61.5963 161.256C61.5591 161.256 61.5213 161.251 61.4838 161.242C61.2279 161.181 61.0706 160.923 61.1325 160.667C61.167 160.524 62.0059 157.12 64.3608 152.79C66.5359 148.791 70.4676 143.241 76.8465 139.513C77.0738 139.38 77.3657 139.457 77.4984 139.684C77.6313 139.911 77.5547 140.204 77.3274 140.336C65.4747 147.263 62.0917 160.755 62.0589 160.891C62.0062 161.109 61.8112 161.256 61.5963 161.256Z" fill="#161616"/>
<path d="M54.435 159.482C54.4197 159.482 54.4043 159.482 54.3888 159.48C54.1266 159.455 53.9348 159.222 53.9598 158.96C53.9891 158.655 56.7947 128.368 48.557 119.271C48.3802 119.076 48.3951 118.775 48.5904 118.598C48.7856 118.421 49.0869 118.436 49.2637 118.631C52.8563 122.599 54.8964 130.619 55.3272 142.471C55.6462 151.245 54.9162 158.974 54.9088 159.051C54.8854 159.298 54.6777 159.482 54.435 159.482Z" fill="#161616"/>
<path d="M77.134 138.476C77.134 138.476 80.8626 132.029 77.6557 130.466C75.0502 129.197 74.1799 136.853 77.134 138.476Z" fill="#8DC73F"/>
<path d="M77.0054 138.959C76.7432 138.959 76.5301 138.744 76.5287 138.481L76.4976 132.018C76.4963 131.755 76.7087 131.523 76.9721 131.523C76.9728 131.523 76.9736 131.523 76.9745 131.523C77.2367 131.523 77.4499 131.749 77.4513 132.012L77.4823 138.469C77.4837 138.733 77.2712 138.959 77.0079 138.959C77.007 138.959 77.0062 138.959 77.0054 138.959Z" fill="#161616"/>
<path d="M69.6188 145.044C69.6188 145.044 72.1219 138.03 68.6854 137.072C65.8936 136.294 66.4201 143.981 69.6188 145.044Z" fill="#8DC73F"/>
<path d="M69.4918 145.544C69.2672 145.544 69.067 145.385 69.0239 145.156L67.8291 138.821C67.7803 138.562 67.9504 138.313 68.2091 138.264C68.4677 138.216 68.7171 138.385 68.7659 138.644L69.9607 144.979C70.0095 145.238 69.8395 145.487 69.5807 145.536C69.551 145.542 69.5212 145.544 69.4918 145.544Z" fill="#161616"/>
<path d="M63.3843 153.838C63.3843 153.838 65.4326 146.677 61.9417 145.942C59.1057 145.345 60.1242 152.982 63.3843 153.838Z" fill="#8DC73F"/>
<path d="M63.2591 154.346C63.0465 154.346 62.8528 154.203 62.7977 153.987L61.1992 147.742C61.134 147.486 61.2877 147.227 61.5428 147.162C61.7977 147.095 62.0576 147.25 62.1229 147.505L63.7213 153.751C63.7866 154.006 63.6329 154.265 63.3777 154.331C63.3381 154.341 63.2984 154.346 63.2591 154.346Z" fill="#161616"/>
<path d="M79.7525 138.896C79.7525 138.896 87.163 139.637 87.2652 136.071C87.3481 133.174 80.0141 135.536 79.7525 138.896Z" fill="#8DC73F"/>
<path d="M79.6999 139.256C79.5191 139.256 79.3463 139.153 79.2663 138.978C79.1566 138.739 79.2619 138.456 79.5012 138.346L85.3622 135.661C85.6015 135.551 85.8844 135.657 85.9941 135.896C86.1037 136.135 85.9985 136.418 85.7592 136.528L79.8982 139.213C79.8339 139.242 79.7664 139.256 79.6999 139.256Z" fill="#161616"/>
<path d="M73.7812 143.198C73.7812 143.198 79.4019 148.084 81.5456 145.232C83.2869 142.916 75.9361 140.606 73.7812 143.198Z" fill="#8DC73F"/>
<path d="M80.1414 144.743C80.112 144.743 80.0823 144.741 80.0525 144.735L73.7173 143.54C73.4586 143.492 73.2885 143.242 73.3373 142.984C73.3859 142.725 73.6355 142.556 73.8941 142.603L80.2293 143.798C80.4881 143.847 80.6582 144.096 80.6093 144.355C80.5661 144.584 80.366 144.743 80.1414 144.743Z" fill="#161616"/>
<path d="M66.4635 152.185C66.4635 152.185 73.2206 155.316 74.4873 151.981C75.5164 149.272 67.8134 149.096 66.4635 152.185Z" fill="#8DC73F"/>
<path d="M66.4516 152.533C66.2088 152.533 66.0012 152.349 65.9775 152.102C65.9526 151.84 66.1446 151.607 66.4068 151.582L72.8244 150.969C73.0873 150.945 73.3192 151.136 73.3444 151.398C73.3693 151.66 73.1773 151.893 72.9151 151.918L66.4975 152.531C66.4821 152.533 66.4668 152.533 66.4516 152.533Z" fill="#161616"/>
<path d="M49.347 116.595C49.347 116.595 55.6622 108.879 51.7609 106.123C48.5913 103.885 45.7927 113.814 49.347 116.595Z" fill="#8DC73F"/>
<path d="M49.1777 117.044C49.1531 117.044 49.1279 117.042 49.1028 117.038C48.8427 116.997 48.6652 116.753 48.7063 116.493L50.0535 107.967C50.0945 107.707 50.3373 107.531 50.5987 107.571C50.8588 107.612 51.0363 107.856 50.9951 108.116L49.6479 116.642C49.6109 116.876 49.4082 117.044 49.1777 117.044Z" fill="#161616"/>
<path d="M54.8789 129.722C54.8789 129.722 63.4129 126.201 61.4408 122.243C59.8383 119.028 53.2007 125.895 54.8789 129.722Z" fill="#8DC73F"/>
<path d="M54.7521 130.101C54.6514 130.101 54.5499 130.07 54.4638 130.004C54.2542 129.844 54.2136 129.545 54.373 129.336L59.2116 122.976C59.3708 122.766 59.67 122.725 59.8795 122.885C60.0891 123.044 60.1297 123.343 59.9703 123.553L55.1317 129.913C55.0381 130.036 54.8958 130.101 54.7521 130.101Z" fill="#161616"/>
<path d="M56.3008 147.258C56.3008 147.258 64.8347 143.737 62.8627 139.779C61.2602 136.564 54.6226 143.432 56.3008 147.258Z" fill="#8DC73F"/>
<path d="M56.174 147.638C56.0733 147.638 55.9718 147.606 55.8856 147.54C55.6761 147.381 55.6355 147.082 55.7949 146.872L60.6335 140.512C60.7927 140.303 61.092 140.262 61.3014 140.422C61.511 140.581 61.5516 140.88 61.3922 141.09L56.5536 147.45C56.46 147.573 56.3177 147.638 56.174 147.638Z" fill="#161616"/>
<path d="M47.6509 117.918C47.6509 117.918 38.4785 116.873 39.2891 112.525C39.9483 108.994 48.2151 113.778 47.6509 117.918Z" fill="#8DC73F"/>
<path d="M47.7455 118.266C47.6462 118.266 47.5459 118.235 47.4603 118.171L41.0627 113.382C40.852 113.225 40.8089 112.926 40.9668 112.715C41.1247 112.504 41.4235 112.461 41.6342 112.619L48.0318 117.408C48.2425 117.566 48.2856 117.864 48.1277 118.075C48.0339 118.2 47.8907 118.266 47.7455 118.266Z" fill="#161616"/>
<path d="M51.2475 126.233C51.2475 126.233 42.1442 127.768 41.7199 123.366C41.3755 119.79 50.6434 122.098 51.2475 126.233Z" fill="#8DC73F"/>
<path d="M51.3028 126.56C51.2468 126.56 51.1897 126.55 51.1341 126.529L43.6608 123.698C43.4147 123.605 43.2907 123.33 43.384 123.083C43.4772 122.837 43.7522 122.713 43.9987 122.807L51.4719 125.637C51.7181 125.731 51.8421 126.006 51.7488 126.252C51.6765 126.442 51.4952 126.56 51.3028 126.56Z" fill="#161616"/>
<path d="M53.6172 138.082C53.6172 138.082 44.5138 139.616 44.0895 135.215C43.7452 131.639 53.0131 133.947 53.6172 138.082Z" fill="#8DC73F"/>
<path d="M53.6727 138.409C53.6166 138.409 53.5594 138.399 53.5039 138.378L46.0309 135.547C45.7847 135.454 45.6608 135.178 45.754 134.932C45.8473 134.686 46.1228 134.563 46.3688 134.655L53.8418 137.486C54.088 137.579 54.2119 137.855 54.1187 138.101C54.0464 138.291 53.8651 138.409 53.6727 138.409Z" fill="#161616"/>
<path d="M53.117 151.418C53.117 151.418 46.9688 152.455 46.682 149.482C46.4496 147.067 52.7089 148.626 53.117 151.418Z" fill="#8DC73F"/>
<path d="M53.1543 151.794C53.0982 151.794 53.041 151.784 52.9855 151.763L47.9384 149.851C47.6922 149.758 47.5682 149.482 47.6615 149.236C47.7549 148.99 48.0303 148.867 48.2762 148.959L53.3234 150.871C53.5696 150.965 53.6935 151.24 53.6003 151.486C53.5278 151.676 53.3467 151.794 53.1543 151.794Z" fill="#161616"/>
<path d="M193.547 108.49L218.614 108.853L220.532 132.653C220.532 132.653 220.805 136.649 217.535 136.649C214.266 136.649 193.547 136.74 193.547 136.74C193.547 136.74 189.472 135.377 190.017 132.38C190.562 129.384 193.547 108.49 193.547 108.49Z" fill="#EAEFE8"/>
<path d="M193.547 137.243C193.495 137.243 193.445 137.221 193.396 137.205C193.351 137.19 192.292 136.825 191.291 136.072C189.894 135.02 189.291 133.713 189.548 132.299C190.085 129.345 193.045 108.661 193.075 108.452C193.109 108.217 193.31 108.069 193.547 108.069C193.549 108.069 193.552 108.069 193.554 108.069L218.621 108.404C218.867 108.408 219.069 108.584 219.089 108.829L221.007 132.621C221.014 132.718 221.145 134.861 219.927 136.165C219.329 136.805 218.525 137.141 217.535 137.141C214.304 137.141 193.756 137.243 193.549 137.243C193.548 137.243 193.548 137.243 193.547 137.243ZM193.959 108.972C193.536 111.932 190.984 129.729 190.487 132.466C190.057 134.829 193.124 136.075 193.629 136.263C195.073 136.256 214.408 136.172 217.535 136.172C218.259 136.172 218.812 135.957 219.227 135.514C220.164 134.515 220.058 132.703 220.057 132.684L218.174 109.323L193.959 108.972Z" fill="#161616"/>
<path d="M190.017 132.38C189.472 135.377 193.547 136.739 193.547 136.739C193.547 136.739 214.266 136.649 217.535 136.649C220.805 136.649 220.532 132.653 220.532 132.653C205.208 122.576 190.017 132.38 190.017 132.38Z" fill="#B2BCAF"/>
<path d="M193.547 137.243C193.495 137.243 193.445 137.221 193.396 137.205C193.351 137.19 192.292 136.825 191.291 136.072C189.894 135.02 189.291 133.713 189.548 132.299C189.595 132.04 189.843 131.866 190.103 131.913C190.362 131.96 190.534 132.208 190.487 132.467C190.058 134.822 193.125 136.074 193.629 136.263C195.078 136.257 214.408 136.173 217.535 136.173C218.258 136.173 218.812 135.957 219.227 135.514C220.163 134.515 220.058 132.703 220.057 132.685C220.039 132.422 220.238 132.195 220.5 132.178C220.765 132.161 220.99 132.358 221.008 132.62C221.014 132.711 221.145 134.857 219.927 136.162C219.329 136.801 218.524 137.139 217.535 137.139C214.304 137.139 193.756 137.243 193.549 137.243C193.548 137.243 193.548 137.243 193.547 137.243Z" fill="#161616"/>
<path d="M227.878 129.234H220.249C220.001 129.234 219.795 129.045 219.774 128.799L219.477 125.366C219.466 125.233 219.511 125.101 219.601 125.003C219.691 124.905 219.819 124.849 219.952 124.849H223.946L219.048 119.04C218.984 118.964 218.945 118.87 218.937 118.771L218.49 113.267C218.473 113.059 218.593 112.864 218.787 112.787C218.981 112.708 219.203 112.766 219.334 112.928L228.244 123.862C228.255 123.876 228.267 123.892 228.277 123.908C228.334 123.998 229.672 126.141 229.232 127.786C229.067 128.403 228.686 128.872 228.099 129.18C228.031 129.215 227.955 129.234 227.878 129.234ZM220.686 128.281H227.753C228.042 128.103 228.225 127.86 228.311 127.541C228.584 126.526 227.821 124.982 227.486 124.441L219.565 114.719L219.875 118.542L225.336 125.018C225.456 125.16 225.482 125.358 225.404 125.526C225.326 125.695 225.157 125.802 224.971 125.802H220.472L220.686 128.281Z" fill="#161616"/>
<path d="M209.529 123.741C209.383 123.741 209.239 123.674 209.145 123.547C208.989 123.335 209.034 123.036 209.246 122.88C214.117 119.292 215.777 110.568 214.737 106.372C214.547 105.604 214.088 104.294 213.154 104.153C209.685 103.633 206.264 108.702 206.229 108.754C206.083 108.973 205.787 109.032 205.569 108.886C205.349 108.74 205.29 108.445 205.436 108.225C205.589 107.995 209.23 102.601 213.296 103.21C214.073 103.327 215.115 103.93 215.663 106.142C216.79 110.692 215.071 119.773 209.811 123.648C209.726 123.711 209.627 123.741 209.529 123.741Z" fill="#161616"/>
<path d="M179.61 115.005C178.389 115.005 176.953 114.673 175.215 113.886C174.975 113.778 174.869 113.495 174.978 113.255C175.086 113.015 175.369 112.909 175.609 113.018C181.168 115.534 183.093 113.029 185.53 109.859C186.649 108.404 187.805 106.9 189.422 105.733C190.872 104.687 192.406 104.289 193.982 104.55C197.195 105.084 199.412 108.164 199.504 108.295C199.657 108.51 199.606 108.807 199.391 108.959C199.176 109.112 198.879 109.061 198.727 108.847C198.707 108.818 196.64 105.955 193.822 105.49C192.507 105.274 191.215 105.615 189.98 106.506C188.476 107.591 187.363 109.04 186.286 110.44C184.496 112.769 182.777 115.005 179.61 115.005Z" fill="#161616"/>
<path d="M211.753 120.072C211.753 120.072 205.706 124.29 208.338 131.081C208.338 131.081 215.277 128.842 211.753 120.072Z" fill="#8DC73F"/>
<path d="M173.851 107.262C173.851 107.262 177.951 113.39 184.792 110.89C184.792 110.89 182.689 103.909 173.851 107.262Z" fill="#8DC73F"/>
<path d="M188.53 107.402C188.53 107.402 182.746 111.975 185.78 118.597C185.78 118.597 192.572 115.946 188.53 107.402Z" fill="#8DC73F"/>
<path d="M202.819 115.168C202.819 115.168 209.018 119.16 214.301 114.145C214.301 114.145 209.594 108.577 202.819 115.168Z" fill="#8DC73F"/>
<path d="M215.087 110.917C215.087 110.917 212.088 117.653 217.85 122.108C217.85 122.109 222.636 116.607 215.087 110.917Z" fill="#8DC73F"/>
<path d="M194.328 104.884C194.328 104.884 191.656 99.7239 186.079 101.08C186.079 101.08 187.112 106.732 194.328 104.884Z" fill="#8DC73F"/>
<path d="M219.929 106.913C219.929 106.913 218.272 102.993 214.123 103.665C214.123 103.665 214.555 107.851 219.929 106.913Z" fill="#8DC73F"/>
<path d="M206.616 107.202C208.248 107.202 209.571 105.878 209.571 104.246C209.571 102.613 208.248 101.29 206.616 101.29C204.983 101.29 203.66 102.613 203.66 104.246C203.66 105.878 204.983 107.202 206.616 107.202Z" fill="#946D42"/>
<path d="M212.717 101.324C214.368 101.324 215.707 99.9854 215.707 98.3344C215.707 96.6835 214.368 95.3451 212.717 95.3451C211.066 95.3451 209.728 96.6835 209.728 98.3344C209.728 99.9854 211.066 101.324 212.717 101.324Z" fill="#946D42"/>
</svg>
