<svg width="268" height="188" viewBox="0 0 268 188" fill="none" xmlns="http://www.w3.org/2000/svg">
<path d="M61.5963 49.9696C64.8006 49.9696 67.3982 47.372 67.3982 44.1677C67.3982 40.9634 64.8006 38.3658 61.5963 38.3658C58.392 38.3658 55.7944 40.9634 55.7944 44.1677C55.7944 47.372 58.392 49.9696 61.5963 49.9696Z" fill="#DEE5DC"/>
<path d="M61.3768 40.2547C63.7067 40.2547 65.5955 38.3659 65.5955 36.036C65.5955 33.7061 63.7067 31.8174 61.3768 31.8174C59.0469 31.8174 57.1582 33.7061 57.1582 36.036C57.1582 38.3659 59.0469 40.2547 61.3768 40.2547Z" fill="#DEE5DC"/>
<path d="M61.4376 57.8596C61.1749 57.8596 60.9615 57.6861 60.9609 57.4235L60.9001 34.3191C60.8995 34.0558 61.1123 33.8336 61.3757 33.8336C61.3761 33.8336 61.3764 33.8336 61.3768 33.8336C61.6396 33.8336 61.853 34.0735 61.8535 34.3361L61.9144 57.4073C61.9149 57.6706 61.7021 57.8596 61.4388 57.8596C61.4386 57.8596 61.438 57.8596 61.4376 57.8596Z" fill="#161616"/>
<path d="M61.4381 45.9033C61.268 45.9033 61.1034 45.8119 61.0174 45.6514C60.8933 45.4193 60.9806 45.1304 61.2127 45.0061L64.3475 43.3279C64.5794 43.2036 64.8684 43.2911 64.9928 43.5232C65.1169 43.7552 65.0296 44.0441 64.7975 44.1684L61.6627 45.8466C61.591 45.885 61.5141 45.9033 61.4381 45.9033Z" fill="#161616"/>
<path d="M61.377 38.8428C61.2407 38.8428 61.1053 38.7846 61.0111 38.672L58.545 35.7223C58.3761 35.5202 58.403 35.2196 58.6049 35.0509C58.807 34.8816 59.1073 34.9088 59.2763 35.1108L61.7424 38.0604C61.9113 38.2626 61.8844 38.5631 61.6825 38.7318C61.5935 38.8064 61.485 38.8428 61.377 38.8428Z" fill="#161616"/>
<path d="M29.6229 88.1781V53.8553C29.6229 53.8553 176.095 44.7237 217.691 86.3201L29.6229 88.1781Z" fill="#DEE5DC"/>
<path d="M29.6229 88.2067C29.6229 88.2067 130.685 70.0286 244.522 83.6554V158.645L29.6229 156.498V88.2067Z" fill="#EAEFE8"/>
<path d="M21.5675 89.6534C21.3404 89.6534 21.1391 89.4906 21.0986 89.2593C21.0531 88.9999 21.2264 88.7528 21.4857 88.7072C21.7792 88.6556 51.3334 83.5193 94.8351 80.431C120.384 78.6171 145.677 77.8532 170.008 78.1619C200.427 78.5473 229.425 80.6177 256.196 84.3162C256.457 84.3522 256.639 84.5929 256.603 84.8535C256.567 85.1144 256.326 85.2955 256.066 85.2606C229.334 81.5675 200.376 79.4999 169.996 79.1151C145.69 78.8076 120.425 79.5701 94.9026 81.3822C51.4494 84.4672 21.9434 89.5949 21.6505 89.6463C21.6226 89.6513 21.5948 89.6534 21.5675 89.6534Z" fill="#161616"/>
<path d="M183.993 50.7836L164.479 45.8848C164.479 45.8848 163.077 43.1597 165.345 42.226L183.052 46.0146C183.052 46.0146 185.297 48.2866 183.993 50.7836Z" fill="white"/>
<path d="M183.993 51.2603C183.954 51.2603 183.915 51.2557 183.877 51.246L164.363 46.3474C164.23 46.314 164.117 46.225 164.055 46.1031C164.022 46.0387 163.25 44.5117 163.734 43.1956C163.97 42.5532 164.451 42.0788 165.163 41.7853C165.252 41.7487 165.35 41.7397 165.445 41.76L183.152 45.5486C183.243 45.5681 183.326 45.6136 183.391 45.6798C183.416 45.7056 184.017 46.3194 184.446 47.2663C185.029 48.5563 185.019 49.8489 184.415 51.0044C184.332 51.1644 184.167 51.2603 183.993 51.2603ZM164.82 45.4788L183.723 50.2243C184.397 48.4617 183.156 46.8561 182.803 46.4486L165.397 42.7246C165.01 42.9121 164.758 43.1748 164.629 43.5245C164.372 44.2232 164.665 45.1005 164.82 45.4788Z" fill="#161616"/>
<path d="M156.999 52.3723V83.0701L215.729 97.1663V64.5205L156.999 52.3723Z" fill="#EAEFE8"/>
<path d="M215.824 97.6429C215.787 97.6429 215.75 97.6387 215.713 97.6298L156.983 83.5336C156.769 83.4821 156.617 83.2906 156.617 83.07V52.3723C156.617 52.2289 156.682 52.0931 156.793 52.0027C156.904 51.9122 157.05 51.8759 157.191 51.9055L215.921 64.0537C216.142 64.0994 216.301 64.2945 216.301 64.5205V97.1662C216.301 97.3123 216.234 97.4501 216.119 97.5405C216.035 97.6075 215.93 97.6429 215.824 97.6429ZM157.571 82.6942L215.347 96.5616V64.9087L157.571 52.9577V82.6942Z" fill="#161616"/>
<path d="M215.729 64.5204L236.231 55.5835L236.294 86.5667L215.729 97.1662V64.5204Z" fill="#EAEFE8"/>
<path d="M215.824 97.643C215.738 97.643 215.652 97.6197 215.576 97.5734C215.434 97.487 215.347 97.3325 215.347 97.1663V64.5205C215.347 64.331 215.46 64.1595 215.633 64.0836L236.088 55.1469C236.235 55.0829 236.404 55.0964 236.539 55.1845C236.673 55.2722 236.755 55.4217 236.755 55.5825L236.842 86.5655C236.843 86.7443 236.743 86.9085 236.584 86.9905L216.043 97.59C215.974 97.6252 215.899 97.643 215.824 97.643ZM216.301 64.8323V96.3837L235.888 86.2768L235.804 56.3113L216.301 64.8323Z" fill="#161616"/>
<path d="M157.168 52.3722L182.87 44.5918L236.286 55.5835L215.839 64.5204L157.168 52.3722Z" fill="#EAEFE8"/>
<path d="M215.839 64.9972C215.806 64.9972 215.774 64.9938 215.742 64.9873L157.071 52.8391C156.857 52.7949 156.701 52.6116 156.692 52.3937C156.682 52.1757 156.821 51.9792 157.029 51.916L182.732 44.1356C182.808 44.1127 182.889 44.1087 182.966 44.1249L236.382 55.1166C236.585 55.1586 236.738 55.3273 236.76 55.5339C236.781 55.7404 236.667 55.9371 236.477 56.0205L216.03 64.9572C215.969 64.9837 215.904 64.9972 215.839 64.9972ZM159.1 52.2856L215.787 64.023L234.719 55.7482L182.893 45.0831L159.1 52.2856Z" fill="#161616"/>
<path d="M215.824 76.0697C215.787 76.0697 215.75 76.0655 215.713 76.0567L157.057 62.0415C156.801 61.9803 156.643 61.7231 156.704 61.467C156.765 61.2109 157.023 61.053 157.278 61.1141L215.772 75.0903L235.453 65.8167C235.691 65.7044 235.975 65.8066 236.088 66.0447C236.2 66.2829 236.098 66.5668 235.86 66.6791L216.027 76.0241C215.963 76.0544 215.894 76.0697 215.824 76.0697Z" fill="#161616"/>
<path d="M215.824 87.5165C215.789 87.5165 215.753 87.5125 215.719 87.5047L156.988 74.162C156.732 74.1037 156.571 73.8484 156.629 73.5917C156.687 73.3349 156.942 73.1728 157.199 73.2325L215.765 86.5375L236.075 76.5412C236.311 76.4245 236.597 76.5223 236.713 76.7586C236.83 76.9946 236.733 77.2805 236.496 77.3968L216.035 87.4675C215.969 87.4999 215.897 87.5165 215.824 87.5165Z" fill="#161616"/>
<path d="M210.008 69.935C209.115 69.935 208.388 69.2079 208.388 68.3142C208.388 67.4204 209.115 66.6934 210.008 66.6934C210.902 66.6934 211.629 67.4204 211.629 68.3142C211.629 69.2079 210.902 69.935 210.008 69.935ZM210.008 67.6468C209.64 67.6468 209.341 67.9461 209.341 68.3142C209.341 68.6822 209.64 68.9815 210.008 68.9815C210.376 68.9815 210.676 68.6822 210.676 68.3142C210.676 67.9461 210.376 67.6468 210.008 67.6468Z" fill="#161616"/>
<path d="M208.864 82.5199C207.971 82.5199 207.243 81.7928 207.243 80.8991C207.243 80.0054 207.971 79.2783 208.864 79.2783C209.758 79.2783 210.485 80.0054 210.485 80.8991C210.485 81.7928 209.758 82.5199 208.864 82.5199ZM208.864 80.2317C208.496 80.2317 208.197 80.5311 208.197 80.8991C208.197 81.2671 208.496 81.5665 208.864 81.5665C209.232 81.5665 209.532 81.2671 209.532 80.8991C209.532 80.5311 209.232 80.2317 208.864 80.2317Z" fill="#161616"/>
<path d="M161.956 71.079C161.063 71.079 160.336 70.3519 160.336 69.4582C160.336 68.5645 161.063 67.8374 161.956 67.8374C162.85 67.8374 163.577 68.5645 163.577 69.4582C163.577 70.3519 162.85 71.079 161.956 71.079ZM161.956 68.7908C161.588 68.7908 161.289 69.0902 161.289 69.4582C161.289 69.8262 161.588 70.1256 161.956 70.1256C162.324 70.1256 162.624 69.8262 162.624 69.4582C162.624 69.0902 162.324 68.7908 161.956 68.7908Z" fill="#161616"/>
<path d="M161.956 80.9945C161.063 80.9945 160.336 80.2675 160.336 79.3737C160.336 78.48 161.063 77.7529 161.956 77.7529C162.85 77.7529 163.577 78.48 163.577 79.3737C163.577 80.2675 162.85 80.9945 161.956 80.9945ZM161.956 78.7063C161.588 78.7063 161.289 79.0057 161.289 79.3737C161.289 79.7417 161.588 80.0411 161.956 80.0411C162.324 80.0411 162.624 79.7417 162.624 79.3737C162.624 79.0057 162.324 78.7063 161.956 78.7063Z" fill="#161616"/>
<path d="M163.649 60.0475L144.135 55.1489C144.135 55.1489 142.733 52.4238 145.001 51.4899L162.708 55.2787C162.708 55.2785 164.953 57.5505 163.649 60.0475Z" fill="white"/>
<path d="M163.649 60.5241C163.61 60.5241 163.571 60.5195 163.533 60.5098L144.019 55.6112C143.885 55.5778 143.773 55.4888 143.711 55.3669C143.678 55.3025 142.906 53.7755 143.39 52.4594C143.626 51.8168 144.107 51.3424 144.819 51.0491C144.908 51.0125 145.006 51.0035 145.101 51.0238L162.808 54.8126C162.899 54.8321 162.982 54.8776 163.047 54.9438C163.072 54.9695 163.673 55.5833 164.102 56.5303C164.685 57.8202 164.675 59.1129 164.071 60.2684C163.987 60.4282 163.823 60.5241 163.649 60.5241ZM144.475 54.7426L163.379 59.4881C164.052 57.7255 162.812 56.1199 162.459 55.7124L145.053 51.9882C144.665 52.1759 144.413 52.4386 144.285 52.7883C144.028 53.487 144.321 54.3643 144.475 54.7426Z" fill="#161616"/>
<path d="M169.393 54.3656C169.393 54.3656 173.27 38.0912 177.433 37.4879C181.597 36.8846 186.437 42.7957 186.437 42.7957L193.783 25.7832C193.783 25.7832 197.56 20.4863 204.547 22.3929C211.534 24.2995 217.691 40.7022 217.691 40.7022C217.691 40.7022 225.542 41.4425 226.833 45.7421C228.123 50.0418 229.641 57.9115 229.641 57.9115L215.838 63.9485L169.393 54.3656Z" fill="#8DC73F"/>
<path d="M199.517 45.0688C199.308 45.0688 199.116 44.9298 199.058 44.7183L198.013 40.9199C197.989 40.8354 197.99 40.7458 198.014 40.6615C198.023 40.6312 198.032 40.6009 198.04 40.5702C198.038 40.5744 198.036 40.5786 198.034 40.5828C197.909 40.8145 197.619 40.9008 197.388 40.7759C196.919 40.5231 194.564 39.2038 194.253 38.0715C194.177 37.7973 194.209 37.5328 194.345 37.3065C194.499 37.0496 194.747 36.8898 195.042 36.8567C195.64 36.7901 196.407 37.2815 197.022 37.7843C197.005 37.0267 197.097 36.1384 197.538 35.6492C197.788 35.3722 198.122 35.2381 198.504 35.2646C198.817 35.2854 199.08 35.4361 199.266 35.7005C200.014 36.767 199.219 39.8929 198.967 40.7952L199.977 44.4653C200.047 44.7191 199.898 44.9814 199.644 45.0512C199.602 45.0632 199.559 45.0688 199.517 45.0688ZM195.167 37.8013C195.175 38.0505 196.078 38.9858 197.84 39.9369C198.011 40.0288 198.103 40.2098 198.09 40.3911C198.545 38.7086 198.818 36.7222 198.485 36.2482C198.464 36.2177 198.458 36.2173 198.44 36.216C198.337 36.2102 198.291 36.2385 198.246 36.2877C197.897 36.674 197.943 38.0759 198.084 38.9017C198.119 39.108 198.015 39.3132 197.829 39.4074C197.641 39.5014 197.415 39.4631 197.27 39.3121C196.494 38.5045 195.517 37.8001 195.186 37.8001C195.179 37.8003 195.173 37.8005 195.167 37.8013Z" fill="#161616"/>
<path d="M180.83 51.3614C180.621 51.3614 180.429 51.2224 180.371 51.0109L179.326 47.2125C179.302 47.128 179.303 47.0384 179.327 46.9541C179.336 46.9238 179.345 46.8935 179.353 46.8628C179.351 46.867 179.349 46.8712 179.347 46.8754C179.222 47.1069 178.932 47.1934 178.701 47.0685C178.232 46.8157 175.877 45.4964 175.566 44.3641C175.49 44.0899 175.523 43.8254 175.658 43.5991C175.812 43.3422 176.06 43.1824 176.356 43.1493C176.954 43.0823 177.72 43.5739 178.335 44.0769C178.318 43.3193 178.41 42.431 178.851 41.9419C179.101 41.6646 179.436 41.5313 179.817 41.5573C180.13 41.578 180.393 41.7287 180.579 41.9932C181.327 43.0596 180.532 46.1855 180.28 47.0878L181.29 50.7579C181.36 51.0117 181.211 51.274 180.957 51.3438C180.915 51.3558 180.872 51.3614 180.83 51.3614ZM176.48 44.0939C176.488 44.3431 177.391 45.2784 179.154 46.2295C179.324 46.3214 179.416 46.5024 179.403 46.6837C179.858 45.0012 180.131 43.0148 179.798 42.5408C179.777 42.5103 179.771 42.5099 179.754 42.5086C179.65 42.5027 179.604 42.5311 179.559 42.5803C179.211 42.9666 179.256 44.3685 179.397 45.1943C179.432 45.4006 179.329 45.6058 179.142 45.7C178.955 45.7942 178.728 45.7557 178.583 45.6047C177.79 44.7798 176.784 44.0579 176.48 44.0939Z" fill="#161616"/>
<path d="M196.951 51.4428C196.852 51.4428 196.751 51.4117 196.665 51.3471L193.517 48.9788C193.447 48.926 193.393 48.8549 193.36 48.7731C193.349 48.7439 193.337 48.7145 193.325 48.6852C193.326 48.6897 193.327 48.6943 193.328 48.6989C193.37 48.9588 193.194 49.2038 192.934 49.2465C192.408 49.3331 189.738 49.7274 188.8 49.021C188.573 48.8499 188.437 48.6209 188.406 48.3587C188.371 48.0614 188.469 47.7836 188.683 47.5765C189.113 47.1595 190.023 47.0787 190.817 47.1016C190.341 46.5122 189.871 45.7527 189.921 45.0958C189.95 44.7239 190.133 44.4147 190.451 44.2015C190.711 44.0268 191.012 43.985 191.32 44.081C192.564 44.468 193.845 47.4286 194.197 48.2966L197.238 50.5847C197.449 50.743 197.491 51.0418 197.333 51.2523C197.239 51.3772 197.096 51.4428 196.951 51.4428ZM192.858 48.2994C193.02 48.2994 193.168 48.3822 193.255 48.513C192.587 46.9027 191.59 45.1635 191.037 44.9915C191.001 44.9798 190.996 44.9836 190.982 44.9934C190.897 45.0502 190.877 45.1026 190.872 45.169C190.832 45.6897 191.725 46.7705 192.341 47.337C192.495 47.4787 192.538 47.7045 192.448 47.8935C192.357 48.0822 192.156 48.1905 191.947 48.1595C190.816 47.9909 189.584 48.0361 189.359 48.2487C189.577 48.5301 191.227 48.5607 192.78 48.3059C192.806 48.3015 192.832 48.2994 192.858 48.2994Z" fill="#161616"/>
<path d="M205.887 33.4877C205.632 33.4877 205.421 33.2865 205.411 33.0301L205.254 29.0936C205.251 29.0059 205.272 28.9188 205.314 28.8423C205.33 28.8148 205.345 28.7876 205.36 28.7599C205.357 28.7633 205.354 28.7666 205.351 28.7698C205.177 28.967 204.876 28.9861 204.679 28.8118C204.279 28.459 202.284 26.6399 202.238 25.4666C202.227 25.1827 202.318 24.9322 202.502 24.7426C202.71 24.5277 202.986 24.4286 203.283 24.4627C203.878 24.5323 204.515 25.1856 205 25.8152C205.156 25.0736 205.447 24.2291 205.988 23.8527C206.294 23.6397 206.649 23.5859 207.015 23.6973C207.316 23.7886 207.538 23.9951 207.659 24.2945C208.145 25.5031 206.662 28.3673 206.212 29.1889L206.364 32.9921C206.374 33.2552 206.17 33.477 205.907 33.4875C205.9 33.4875 205.893 33.4877 205.887 33.4877ZM203.19 25.4104C203.109 25.757 204.129 27.0548 205.31 28.0969C205.454 28.225 205.503 28.4215 205.449 28.595C206.274 27.0594 206.99 25.1873 206.774 24.6503C206.76 24.6158 206.754 24.6143 206.738 24.6089C206.639 24.5794 206.586 24.5967 206.532 24.6349C206.103 24.9333 205.831 26.3083 205.781 27.1435C205.769 27.3525 205.622 27.5289 205.418 27.5784C205.214 27.6276 205.003 27.5388 204.896 27.3592C204.311 26.3764 203.497 25.4508 203.19 25.4104Z" fill="#161616"/>
<path d="M211.136 48.8976C211.133 48.8976 211.13 48.8976 211.127 48.8976C210.864 48.8976 210.655 48.6326 210.659 48.3695L210.729 44.409C210.73 44.3211 210.756 44.2248 210.803 44.1508C210.82 44.1243 210.837 44.0921 210.854 44.0652C210.851 44.0688 210.848 44.0694 210.844 44.0728C210.659 44.2597 210.357 44.2595 210.17 44.0745C209.792 43.6995 207.904 41.7684 207.926 40.5946C207.931 40.3103 208.036 40.0652 208.23 39.8864C208.45 39.6839 208.733 39.6006 209.027 39.6515C209.617 39.7552 210.215 40.4436 210.664 41.1003C210.861 40.3688 211.2 39.5422 211.762 39.1974C212.079 39.0022 212.438 38.969 212.797 39.1012C213.091 39.2095 213.301 39.4286 213.404 39.7342C213.821 40.9689 212.176 43.7431 211.68 44.5375L211.613 48.3862C211.608 48.6467 211.395 48.8976 211.136 48.8976ZM208.879 40.5923C208.779 40.9336 209.723 42.2878 210.841 43.3957C210.979 43.5322 211.016 43.7317 210.952 43.902C211.864 42.4162 212.686 40.5875 212.501 40.0391C212.489 40.0037 212.483 40.0017 212.467 39.9955C212.371 39.96 212.317 39.9751 212.26 40.0096C211.815 40.283 211.464 41.6401 211.367 42.4709C211.343 42.6789 211.185 42.8467 210.98 42.8845C210.773 42.922 210.567 42.821 210.47 42.6353C209.943 41.6206 209.184 40.6499 208.879 40.5923Z" fill="#161616"/>
<path d="M201.142 45.9419C200.878 45.9419 200.665 45.7285 200.665 45.4652V43.5584C200.665 43.295 200.878 43.0817 201.142 43.0817C201.405 43.0817 201.618 43.295 201.618 43.5584V45.4652C201.618 45.7285 201.405 45.9419 201.142 45.9419Z" fill="#161616"/>
<path d="M213 50.3278C212.949 50.3278 212.896 50.3194 212.845 50.3017C212.596 50.2161 212.464 49.9449 212.549 49.6959L213.276 47.582C213.362 47.3328 213.632 47.2004 213.882 47.2861C214.131 47.3717 214.263 47.6428 214.178 47.8919L213.451 50.0058C213.383 50.2037 213.198 50.3278 213 50.3278Z" fill="#161616"/>
<path d="M208.864 58.4318C208.682 58.4318 208.507 58.3258 208.428 58.1477L207.38 55.7764C207.273 55.5356 207.382 55.2543 207.623 55.1477C207.863 55.0411 208.145 55.15 208.251 55.3908L209.3 57.7622C209.407 58.003 209.298 58.2843 209.057 58.3908C208.994 58.4187 208.929 58.4318 208.864 58.4318Z" fill="#161616"/>
<path d="M210.485 57.9552C210.285 57.9552 210.1 57.8288 210.033 57.6291L209.461 55.913C209.377 55.663 209.512 55.393 209.762 55.3099C210.013 55.2269 210.282 55.3617 210.365 55.6113L210.937 57.3275C211.021 57.5775 210.886 57.8475 210.636 57.9306C210.586 57.9472 210.535 57.9552 210.485 57.9552Z" fill="#161616"/>
<path d="M179.118 51.9666C178.933 51.9666 178.757 51.8583 178.679 51.6771L177.978 50.0384C177.875 49.7962 177.987 49.5163 178.229 49.4126C178.471 49.3096 178.751 49.4213 178.855 49.6633L179.556 51.302C179.66 51.5442 179.547 51.8241 179.305 51.9279C179.244 51.954 179.181 51.9666 179.118 51.9666Z" fill="#161616"/>
<path d="M195.707 52.849C195.621 52.849 195.535 52.8262 195.457 52.7779L194.027 51.8953C193.802 51.757 193.733 51.4634 193.872 51.2393C194.01 51.0153 194.304 50.9457 194.527 51.0843L195.958 51.9669C196.182 52.1052 196.251 52.3988 196.113 52.6229C196.023 52.7688 195.867 52.849 195.707 52.849Z" fill="#161616"/>
<path d="M220.591 48.6115C220.328 48.6115 220.115 48.3981 220.115 48.1348V46.0373C220.115 45.7739 220.328 45.5605 220.591 45.5605C220.855 45.5605 221.068 45.7739 221.068 46.0373V48.1348C221.068 48.3981 220.855 48.6115 220.591 48.6115Z" fill="#161616"/>
<path d="M222.022 48.6115C221.994 48.6115 221.965 48.609 221.936 48.6039C221.677 48.5568 221.505 48.3085 221.552 48.0496L221.934 45.9521C221.981 45.6931 222.229 45.5215 222.488 45.5682C222.747 45.6153 222.919 45.8636 222.872 46.1225L222.49 48.22C222.448 48.4502 222.248 48.6115 222.022 48.6115Z" fill="#161616"/>
<path d="M207.244 33.5477C207.23 33.5477 207.215 33.5471 207.2 33.5456C206.938 33.5218 206.745 33.2899 206.769 33.0277L206.96 30.9302C206.983 30.668 207.217 30.4733 207.477 30.4987C207.74 30.5225 207.933 30.7544 207.909 31.0166L207.718 33.1141C207.696 33.3616 207.488 33.5477 207.244 33.5477Z" fill="#161616"/>
<path d="M35.0642 109.965L91.5185 94.6769C91.5185 94.6769 101.246 96.4163 99.0017 113.373L42.5065 133.526" fill="#161616"/>
<path d="M42.5064 134.003C42.3106 134.003 42.127 133.881 42.0575 133.686C41.9691 133.438 42.0983 133.165 42.3464 133.077L98.5662 113.022C99.156 108.31 99.1118 101.98 95.7371 97.9731C93.9563 95.8586 91.9837 95.2772 91.5306 95.1674L35.1886 110.425C34.9344 110.494 34.6728 110.343 34.604 110.089C34.5351 109.835 34.6854 109.573 34.9396 109.505L91.3939 94.2166C91.4616 94.1982 91.5329 94.1949 91.6023 94.2075C91.7085 94.2266 94.2295 94.7033 96.4663 97.3589C100.134 101.714 100.127 108.505 99.4743 113.435C99.4508 113.612 99.3301 113.762 99.1617 113.822L42.6666 133.975C42.6138 133.994 42.5596 134.003 42.5064 134.003Z" fill="#161616"/>
<path d="M36.7569 134.927C43.65 134.927 49.238 129.339 49.238 122.446C49.238 115.553 43.65 109.965 36.7569 109.965C29.8638 109.965 24.2758 115.553 24.2758 122.446C24.2758 129.339 29.8638 134.927 36.7569 134.927Z" fill="#DEE5DC"/>
<path d="M36.7569 135.404C29.6119 135.404 23.7991 129.591 23.7991 122.446C23.7991 115.301 29.6119 109.488 36.7569 109.488C43.902 109.488 49.7147 115.301 49.7147 122.446C49.7147 129.591 43.902 135.404 36.7569 135.404ZM36.7569 110.441C30.1378 110.441 24.7525 115.827 24.7525 122.446C24.7525 129.065 30.1378 134.45 36.7569 134.45C43.3761 134.45 48.7613 129.065 48.7613 122.446C48.7613 115.827 43.3761 110.441 36.7569 110.441Z" fill="#161616"/>
<path d="M36.7569 125.998C38.7186 125.998 40.3089 124.408 40.3089 122.446C40.3089 120.484 38.7186 118.894 36.7569 118.894C34.7951 118.894 33.2048 120.484 33.2048 122.446C33.2048 124.408 34.7951 125.998 36.7569 125.998Z" fill="#EAEFE8"/>
<path d="M36.7569 126.475C34.5355 126.475 32.7282 124.667 32.7282 122.446C32.7282 120.224 34.5355 118.417 36.7569 118.417C38.9784 118.417 40.7857 120.224 40.7857 122.446C40.7857 124.667 38.9784 126.475 36.7569 126.475ZM36.7569 119.371C35.0612 119.371 33.6816 120.75 33.6816 122.446C33.6816 124.142 35.0612 125.521 36.7569 125.521C38.4527 125.521 39.8323 124.142 39.8323 122.446C39.8323 120.75 38.4527 119.371 36.7569 119.371Z" fill="#161616"/>
<path d="M59.3366 117.778L115.791 102.49C115.791 102.49 125.518 104.23 123.274 121.186L66.7791 141.339" fill="#161616"/>
<path d="M66.7792 141.816C66.5833 141.816 66.3997 141.695 66.3303 141.5C66.2418 141.252 66.3711 140.979 66.6192 140.891L122.839 120.836C123.429 116.124 123.385 109.794 120.01 105.787C118.229 103.672 116.256 103.091 115.803 102.981L59.4614 118.239C59.2074 118.308 58.9454 118.157 58.8767 117.903C58.8081 117.649 58.9581 117.387 59.2123 117.318L115.667 102.03C115.735 102.012 115.806 102.009 115.875 102.021C115.981 102.04 118.502 102.517 120.739 105.173C124.407 109.528 124.399 116.319 123.747 121.249C123.724 121.426 123.603 121.575 123.435 121.635L66.9393 141.788C66.8863 141.807 66.8324 141.816 66.7792 141.816Z" fill="#161616"/>
<path d="M61.0295 142.74C67.9227 142.74 73.5106 137.152 73.5106 130.259C73.5106 123.366 67.9227 117.778 61.0295 117.778C54.1364 117.778 48.5484 123.366 48.5484 130.259C48.5484 137.152 54.1364 142.74 61.0295 142.74Z" fill="#DEE5DC"/>
<path d="M61.0295 143.217C53.8845 143.217 48.0717 137.405 48.0717 130.26C48.0717 123.115 53.8845 117.302 61.0295 117.302C68.1746 117.302 73.9873 123.115 73.9873 130.26C73.9873 137.405 68.1746 143.217 61.0295 143.217ZM61.0295 118.255C54.4104 118.255 49.0251 123.64 49.0251 130.259C49.0251 136.879 54.4104 142.264 61.0295 142.264C67.6487 142.264 73.0339 136.879 73.0339 130.259C73.0339 123.64 67.6487 118.255 61.0295 118.255Z" fill="#161616"/>
<path d="M61.0295 133.811C62.9912 133.811 64.5815 132.221 64.5815 130.259C64.5815 128.298 62.9912 126.707 61.0295 126.707C59.0678 126.707 57.4775 128.298 57.4775 130.259C57.4775 132.221 59.0678 133.811 61.0295 133.811Z" fill="#EAEFE8"/>
<path d="M61.0295 134.288C58.8081 134.288 57.0008 132.481 57.0008 130.259C57.0008 128.038 58.8081 126.231 61.0295 126.231C63.251 126.231 65.0583 128.038 65.0583 130.259C65.0583 132.481 63.251 134.288 61.0295 134.288ZM61.0295 127.184C59.3338 127.184 57.9542 128.564 57.9542 130.26C57.9542 131.955 59.3338 133.335 61.0295 133.335C62.7253 133.335 64.1049 131.955 64.1049 130.26C64.1049 128.564 62.7253 127.184 61.0295 127.184Z" fill="#161616"/>
<path d="M84.108 120.937L140.562 105.649C140.562 105.649 150.29 107.389 148.046 124.345L91.5506 144.498" fill="#161616"/>
<path d="M91.5505 144.975C91.3547 144.975 91.1711 144.854 91.1017 144.658C91.0132 144.41 91.1425 144.138 91.3906 144.049L147.61 123.994C148.44 117.374 147.479 112.192 144.825 108.998C143.045 106.855 141.032 106.254 140.574 106.14L84.2329 121.397C83.9786 121.467 83.7171 121.316 83.6483 121.062C83.5795 120.808 83.7297 120.546 83.9839 120.477L140.438 105.189C140.506 105.171 140.577 105.168 140.647 105.18C140.753 105.199 143.274 105.676 145.511 108.332C149.179 112.687 149.171 119.478 148.519 124.408C148.495 124.585 148.374 124.734 148.206 124.794L91.7105 144.947C91.6577 144.966 91.6036 144.975 91.5505 144.975Z" fill="#161616"/>
<path d="M85.8009 145.899C92.694 145.899 98.282 140.311 98.282 133.418C98.282 126.525 92.694 120.937 85.8009 120.937C78.9078 120.937 73.3198 126.525 73.3198 133.418C73.3198 140.311 78.9078 145.899 85.8009 145.899Z" fill="#DEE5DC"/>
<path d="M85.8009 146.376C78.6558 146.376 72.843 140.563 72.843 133.418C72.843 126.273 78.6558 120.46 85.8009 120.46C92.9459 120.46 98.7589 126.273 98.7589 133.418C98.7589 140.563 92.9457 146.376 85.8009 146.376ZM85.8009 121.414C79.1817 121.414 73.7965 126.799 73.7965 133.418C73.7965 140.038 79.1817 145.423 85.8009 145.423C92.4202 145.423 97.8055 140.038 97.8055 133.418C97.8055 126.799 92.4202 121.414 85.8009 121.414Z" fill="#161616"/>
<path d="M85.8009 136.97C87.7627 136.97 89.353 135.38 89.353 133.418C89.353 131.457 87.7627 129.866 85.8009 129.866C83.8392 129.866 82.2489 131.457 82.2489 133.418C82.2489 135.38 83.8392 136.97 85.8009 136.97Z" fill="#EAEFE8"/>
<path d="M85.8009 137.447C83.5794 137.447 81.7721 135.64 81.7721 133.418C81.7721 131.197 83.5794 129.39 85.8009 129.39C88.0223 129.39 89.8296 131.197 89.8296 133.418C89.8296 135.64 88.0223 137.447 85.8009 137.447ZM85.8009 130.343C84.1051 130.343 82.7256 131.723 82.7256 133.418C82.7256 135.114 84.1051 136.494 85.8009 136.494C87.4966 136.494 88.8762 135.114 88.8762 133.418C88.8762 131.723 87.4966 130.343 85.8009 130.343Z" fill="#161616"/>
<path d="M55.0272 90.5703L112.582 80.1686C112.582 80.1686 122.125 82.734 118.439 99.4365L60.4263 114.682" fill="#161616"/>
<path d="M60.4262 115.159C60.2147 115.159 60.0215 115.017 59.9653 114.803C59.8984 114.548 60.0505 114.288 60.3053 114.221L118.035 99.0497C119.428 92.5246 118.914 87.2797 116.543 83.8697C114.953 81.5829 112.999 80.8114 112.551 80.6588L55.112 91.0394C54.8535 91.0868 54.605 90.9143 54.5581 90.6549C54.5112 90.396 54.6834 90.1479 54.9423 90.1012L112.498 79.6995C112.567 79.6871 112.638 79.6898 112.706 79.7083C112.81 79.7361 115.281 80.4271 117.282 83.2643C120.565 87.9177 119.976 94.6831 118.904 99.5392C118.866 99.7137 118.733 99.8521 118.56 99.8975L60.5476 115.143C60.507 115.154 60.4662 115.159 60.4262 115.159Z" fill="#161616"/>
<path d="M55.6461 115.632C62.5392 115.632 68.1272 110.044 68.1272 103.151C68.1272 96.2574 62.5392 90.6694 55.6461 90.6694C48.753 90.6694 43.165 96.2574 43.165 103.151C43.165 110.044 48.753 115.632 55.6461 115.632Z" fill="#DEE5DC"/>
<path d="M55.6603 116.109C55.2881 116.109 54.9103 116.093 54.5375 116.061C47.4188 115.449 42.1247 109.161 42.7358 102.042C43.0152 98.7884 44.496 95.7851 46.9057 93.5843C49.3012 91.3964 52.4002 90.1917 55.632 90.1917C56.0043 90.1917 56.382 90.2079 56.7548 90.2399C63.8735 90.8514 69.1678 97.1403 68.5565 104.259C68.2771 107.512 66.7963 110.516 64.3865 112.717C61.9911 114.904 58.892 116.109 55.6603 116.109ZM55.632 91.1454C52.6389 91.1454 49.7682 92.2617 47.5486 94.2886C45.3163 96.327 43.9446 99.1097 43.6856 102.124C43.1193 108.719 48.024 114.545 54.619 115.111C54.9647 115.141 55.3149 115.156 55.6601 115.156C58.6532 115.156 61.5239 114.04 63.7435 112.013C65.9758 109.974 67.3476 107.192 67.6065 104.178C68.1728 97.5827 63.2683 91.7566 56.6732 91.1903C56.3275 91.1605 55.9772 91.1454 55.632 91.1454Z" fill="#161616"/>
<path d="M55.6462 106.703C57.6079 106.703 59.1982 105.112 59.1982 103.151C59.1982 101.189 57.6079 99.5986 55.6462 99.5986C53.6845 99.5986 52.0942 101.189 52.0942 103.151C52.0942 105.112 53.6845 106.703 55.6462 106.703Z" fill="#EAEFE8"/>
<path d="M55.6504 107.179C55.5346 107.179 55.4172 107.174 55.3014 107.164C54.2292 107.072 53.2571 106.568 52.5642 105.745C51.8713 104.922 51.54 103.878 51.6321 102.806C51.8095 100.74 53.5708 99.1218 55.642 99.1218C55.7577 99.1218 55.8752 99.1268 55.9909 99.1367C57.0632 99.2288 58.0351 99.733 58.7282 100.556C59.4213 101.379 59.7523 102.423 59.6602 103.495C59.4827 105.561 57.7214 107.179 55.6504 107.179ZM55.642 100.075C54.0616 100.075 52.7175 101.311 52.5821 102.888C52.512 103.706 52.7646 104.503 53.2936 105.131C53.8227 105.76 54.5648 106.144 55.3831 106.215C55.4719 106.222 55.5619 106.226 55.6504 106.226C57.2308 106.226 58.5747 104.991 58.7103 103.414C58.7804 102.595 58.5278 101.799 57.9988 101.17C57.4697 100.542 56.7277 100.157 55.9093 100.087C55.8205 100.079 55.7305 100.075 55.642 100.075Z" fill="#161616"/>
<path d="M72.6683 73.5863L130.778 66.9454C130.778 66.9454 140.134 70.1253 135.37 86.5525L76.4899 97.9975" fill="#161616"/>
<path d="M76.4892 98.4743C76.2657 98.4743 76.066 98.3162 76.0218 98.0886C75.9716 97.8304 76.1404 97.58 76.3988 97.5297L134.992 86.1404C136.806 79.7198 136.633 74.4527 134.489 70.8959C133.051 68.5105 131.152 67.6137 130.715 67.4326L72.7224 74.0599C72.4614 74.0923 72.2245 73.902 72.1946 73.6406C72.1647 73.379 72.3525 73.1428 72.6141 73.1128L130.724 66.4721C130.794 66.4641 130.865 66.4715 130.931 66.4942C131.033 66.5291 133.454 67.3788 135.267 70.3401C138.24 75.197 137.213 81.9096 135.828 86.6856C135.778 86.8572 135.636 86.9867 135.461 87.0208L76.5805 98.4657C76.55 98.4715 76.5193 98.4743 76.4892 98.4743Z" fill="#161616"/>
<path d="M72.4686 98.6614C79.3618 98.6614 84.9497 93.0735 84.9497 86.1803C84.9497 79.2872 79.3618 73.6992 72.4686 73.6992C65.5755 73.6992 59.9875 79.2872 59.9875 86.1803C59.9875 93.0735 65.5755 98.6614 72.4686 98.6614Z" fill="#DEE5DC"/>
<path d="M72.484 99.14C71.8325 99.14 71.1727 99.0898 70.5236 98.9914C67.1018 98.472 64.0869 96.6512 62.0344 93.864C59.9819 91.0768 59.138 87.6574 59.6576 84.2355C60.1257 81.1527 61.6889 78.3422 64.0593 76.3218C66.4056 74.3221 69.3868 73.2207 72.4533 73.2207C73.1049 73.2207 73.7644 73.2707 74.4135 73.3691C81.4775 74.4416 86.352 81.0614 85.2794 88.1252C84.8114 91.2079 83.2482 94.0182 80.8778 96.0387C78.5315 98.0386 75.5506 99.14 72.484 99.14ZM72.4533 74.1743C69.6131 74.1743 66.8518 75.1948 64.6777 77.0475C62.4818 78.9191 61.0337 81.5226 60.6001 84.3785C60.1188 87.5488 60.9008 90.7166 62.8021 93.2986C64.7034 95.8806 67.4965 97.5676 70.6666 98.0487C71.2686 98.14 71.8799 98.1865 72.484 98.1865C75.324 98.1865 78.0855 97.166 80.2595 95.3132C82.4552 93.4418 83.9032 90.8382 84.3368 87.9824C85.3305 81.4382 80.8147 75.3056 74.2703 74.312C73.6685 74.2204 73.0572 74.1743 72.4533 74.1743Z" fill="#161616"/>
<path d="M72.4686 89.7325C74.4304 89.7325 76.0208 88.1421 76.0208 86.1803C76.0208 84.2184 74.4304 82.6281 72.4686 82.6281C70.5068 82.6281 68.9164 84.2184 68.9164 86.1803C68.9164 88.1421 70.5068 89.7325 72.4686 89.7325Z" fill="#EAEFE8"/>
<path d="M72.4735 90.2092C72.2709 90.2092 72.0657 90.1937 71.8637 90.163C69.6677 89.8297 68.1521 87.7717 68.4854 85.5754C68.7821 83.6232 70.4927 82.1511 72.4646 82.1511C72.6671 82.1511 72.8719 82.1666 73.0732 82.1971C75.2695 82.5308 76.7851 84.5888 76.4518 86.7851C76.1554 88.7373 74.445 90.2092 72.4735 90.2092ZM72.4646 83.1047C70.9599 83.1047 69.6545 84.2286 69.428 85.7188C69.1736 87.3951 70.3305 88.9659 72.0068 89.2205C72.1616 89.2439 72.3183 89.2559 72.4734 89.2559C73.9778 89.2559 75.2829 88.1323 75.509 86.6423C75.7634 84.9658 74.6065 83.3948 72.93 83.14C72.776 83.1164 72.6192 83.1047 72.4646 83.1047Z" fill="#161616"/>
<path d="M79.1335 96.7217L136.689 86.3202C136.689 86.3202 146.232 88.8854 142.545 105.588L84.5331 120.833" fill="#161616"/>
<path d="M84.5327 121.31C84.3212 121.31 84.1281 121.169 84.0718 120.955C84.0049 120.7 84.157 120.439 84.4118 120.372L142.141 105.201C143.132 100.557 143.63 94.2466 140.61 89.9654C139.017 87.7062 137.101 86.9583 136.659 86.81L79.2182 97.1907C78.9596 97.2384 78.7112 97.0656 78.6642 96.8063C78.6173 96.5473 78.7895 96.2993 79.0487 96.2526L136.604 85.851C136.673 85.8388 136.744 85.8413 136.813 85.8598C136.917 85.8876 139.388 86.5785 141.389 89.4156C144.671 94.069 144.082 100.834 143.011 105.691C142.972 105.865 142.839 106.003 142.666 106.049L84.654 121.294C84.6135 121.305 84.5727 121.31 84.5327 121.31Z" fill="#161616"/>
<path d="M79.7525 121.783C86.6456 121.783 92.2336 116.195 92.2336 109.302C92.2336 102.409 86.6456 96.8207 79.7525 96.8207C72.8593 96.8207 67.2714 102.409 67.2714 109.302C67.2714 116.195 72.8593 121.783 79.7525 121.783Z" fill="#DEE5DC"/>
<path d="M79.7667 122.261C79.3943 122.261 79.0166 122.244 78.6436 122.212C75.1951 121.916 72.0685 120.295 69.8394 117.647C67.6104 114.999 66.546 111.642 66.8421 108.193C67.1214 104.94 68.6023 101.937 71.0119 99.7359C73.4073 97.5482 76.5065 96.3435 79.7381 96.3435C80.1103 96.3435 80.4881 96.3597 80.8609 96.3917C84.3094 96.6881 87.4362 98.3092 89.6651 100.957C91.8941 103.605 92.9585 106.962 92.6624 110.411C92.383 113.664 90.9022 116.667 88.4927 118.868C86.0976 121.056 82.9984 122.261 79.7667 122.261ZM79.7383 97.2969C76.745 97.2969 73.8745 98.4132 71.6549 100.44C69.4226 102.479 68.0508 105.261 67.7921 108.275C67.5177 111.47 68.5039 114.58 70.5688 117.033C72.6337 119.486 75.5305 120.988 78.7252 121.262C79.0711 121.292 79.4214 121.307 79.7667 121.307C82.7599 121.307 85.6306 120.191 87.8499 118.164C90.0821 116.126 91.4538 113.343 91.7128 110.329C91.9872 107.134 91.001 104.024 88.9361 101.571C86.8712 99.1179 83.9743 97.6161 80.7796 97.3417C80.4337 97.312 80.0835 97.2969 79.7383 97.2969Z" fill="#161616"/>
<path d="M79.7525 112.854C81.7142 112.854 83.3045 111.264 83.3045 109.302C83.3045 107.34 81.7142 105.75 79.7525 105.75C77.7907 105.75 76.2004 107.34 76.2004 109.302C76.2004 111.264 77.7907 112.854 79.7525 112.854Z" fill="#EAEFE8"/>
<path d="M79.7567 113.331C79.641 113.331 79.5235 113.326 79.4078 113.316C78.3355 113.224 77.3634 112.72 76.6705 111.897C75.9776 111.073 75.6464 110.03 75.7385 108.957C75.916 106.891 77.6771 105.273 79.7483 105.273C79.8641 105.273 79.9813 105.278 80.0973 105.288C82.3105 105.478 83.9567 107.434 83.7666 109.647C83.5892 111.713 81.8279 113.331 79.7567 113.331ZM79.7483 106.227C78.1679 106.227 76.8238 107.462 76.6884 109.039C76.6183 109.857 76.8709 110.654 77.3999 111.282C77.929 111.911 78.6711 112.296 79.4894 112.366C79.5782 112.374 79.6682 112.378 79.7567 112.378C81.3371 112.378 82.681 111.142 82.8166 109.565C82.9615 107.876 81.7051 106.383 80.0156 106.238C79.9268 106.231 79.8368 106.227 79.7483 106.227Z" fill="#161616"/>
<path d="M95.0654 123.209C94.8985 123.209 94.7454 123.099 94.6983 122.93C94.6415 122.727 94.7599 122.517 94.9628 122.46L143.289 108.935C143.492 108.878 143.703 108.996 143.759 109.199C143.816 109.402 143.698 109.612 143.495 109.669L95.1683 123.195C95.134 123.204 95.0993 123.209 95.0654 123.209Z" fill="#AFB7AC"/>
<path d="M97.5442 126.641C97.3773 126.641 97.2242 126.531 97.1771 126.362C97.1203 126.16 97.2387 125.949 97.4416 125.892L145.768 112.367C145.972 112.31 146.182 112.428 146.238 112.631C146.295 112.834 146.177 113.045 145.974 113.101L97.6472 126.627C97.6128 126.637 97.5781 126.641 97.5442 126.641Z" fill="#AFB7AC"/>
<path d="M100.023 131.408C99.8587 131.408 99.707 131.301 99.6578 131.135C99.5977 130.933 99.7129 130.721 99.9146 130.661L146.716 116.754C146.917 116.694 147.13 116.809 147.19 117.011C147.25 117.213 147.135 117.425 146.933 117.485L100.132 131.392C100.096 131.403 100.059 131.408 100.023 131.408Z" fill="#AFB7AC"/>
<path d="M99.4513 136.938C99.2915 136.938 99.1425 136.837 99.0895 136.677C99.023 136.477 99.1313 136.261 99.3311 136.195L146.895 120.381C147.095 120.314 147.311 120.423 147.377 120.623C147.444 120.822 147.335 121.039 147.135 121.105L99.5716 136.918C99.5317 136.932 99.4911 136.938 99.4513 136.938Z" fill="#AFB7AC"/>
<path d="M90.3308 98.7497C90.1517 98.7497 89.9921 98.6233 89.9568 98.441C89.9168 98.2341 90.052 98.0341 90.2587 97.9939L137.662 88.8022C137.869 88.763 138.069 88.8972 138.109 89.1041C138.149 89.311 138.014 89.511 137.807 89.5512L90.404 98.7429C90.3792 98.7477 90.3548 98.7497 90.3308 98.7497Z" fill="#AFB7AC"/>
<path d="M92.4395 102.235C92.2606 102.235 92.101 102.109 92.0655 101.927C92.0255 101.72 92.1605 101.52 92.3674 101.48L139.771 92.2877C139.978 92.248 140.178 92.3827 140.218 92.5895C140.258 92.7964 140.123 92.9965 139.916 93.0367L92.5127 102.229C92.4881 102.233 92.4637 102.235 92.4395 102.235Z" fill="#AFB7AC"/>
<path d="M94.4439 107.001C94.2674 107.001 94.1089 106.878 94.0712 106.698C94.0277 106.492 94.1596 106.29 94.3658 106.246L140.336 96.5695C140.541 96.5258 140.744 96.6582 140.788 96.8641C140.831 97.0702 140.699 97.2725 140.493 97.3158L94.5229 106.993C94.4964 106.998 94.4701 107.001 94.4439 107.001Z" fill="#AFB7AC"/>
<path d="M93.463 112.259C93.2914 112.259 93.1355 112.143 93.0929 111.968C93.043 111.764 93.1682 111.557 93.3729 111.507L140.223 100.062C140.428 100.012 140.634 100.137 140.684 100.342C140.735 100.546 140.609 100.753 140.404 100.803L93.5538 112.248C93.5235 112.256 93.4932 112.259 93.463 112.259Z" fill="#AFB7AC"/>
<path d="M86.3243 77.2868C86.1338 77.2868 85.9692 77.1444 85.9461 76.9505C85.9212 76.7413 86.0705 76.5515 86.2798 76.5266L130.596 71.2475C130.804 71.2243 130.995 71.3719 131.02 71.5812C131.045 71.7904 130.895 71.9801 130.686 72.0051L86.3698 77.2841C86.3546 77.2859 86.3391 77.2868 86.3243 77.2868Z" fill="#AFB7AC"/>
<path d="M102.786 79.3472C102.598 79.3472 102.434 79.2082 102.409 79.017C102.381 78.8082 102.527 78.616 102.736 78.5879L132.299 74.6036C132.508 74.5769 132.7 74.7219 132.728 74.9307C132.756 75.1394 132.61 75.3317 132.401 75.3597L102.838 79.344C102.82 79.3461 102.803 79.3472 102.786 79.3472Z" fill="#AFB7AC"/>
<path d="M89.56 85.1698C89.3721 85.1698 89.2084 85.0308 89.1826 84.8398C89.1544 84.631 89.3006 84.4387 89.5094 84.4107L132.537 78.588C132.745 78.5594 132.938 78.7059 132.966 78.9147C132.995 79.1235 132.848 79.3157 132.639 79.3439L89.6116 85.1666C89.5943 85.1687 89.5769 85.1698 89.56 85.1698Z" fill="#AFB7AC"/>
<path d="M88.3013 89.9508C88.1186 89.9508 87.9569 89.819 87.9256 89.6327C87.8907 89.4249 88.0307 89.2283 88.2385 89.1932L132.197 81.7993C132.404 81.7642 132.602 81.9046 132.637 82.1122C132.672 82.3201 132.532 82.5167 132.324 82.5518L88.365 89.9456C88.3436 89.9491 88.3224 89.9508 88.3013 89.9508Z" fill="#AFB7AC"/>
<path d="M128.127 65.9944C127.634 65.9944 127.102 65.9128 126.548 65.7517C126.515 65.7419 126.483 65.7288 126.453 65.712L117.945 61.0525C117.661 60.9081 110.704 57.2059 110.642 43.6283C110.642 43.4477 110.743 43.2822 110.904 43.2006C111.065 43.1192 111.259 43.1358 111.404 43.2437L122.485 51.4886V34.9811C122.485 34.7833 122.607 34.606 122.792 34.5356C122.977 34.4653 123.186 34.5162 123.318 34.664C124.72 36.2365 128.856 40.3179 131.128 40.3179C131.479 40.3179 131.758 40.2168 131.979 40.009C132.118 39.8786 132.32 39.8433 132.495 39.919C132.669 39.9945 132.782 40.1663 132.782 40.3564V59.4199C132.742 61.6995 131.717 65.9944 128.127 65.9944ZM126.864 64.8503C127.313 64.9769 127.738 65.041 128.127 65.041C131.688 65.041 131.829 59.4675 131.829 59.4115V41.1714C131.638 41.2379 131.378 41.2713 131.128 41.2713C128.685 41.2713 125.062 37.8537 123.439 36.1852V52.4373C123.439 52.6175 123.337 52.7824 123.176 52.8633C123.015 52.9439 122.822 52.9271 122.677 52.8196L111.613 44.5876C111.729 48.2442 112.454 53.0427 115.023 56.8436C116.691 59.3119 118.374 60.2013 118.391 60.2101L126.864 64.8503Z" fill="#161616"/>
<path d="M124.678 36.9799C124.415 36.9799 124.201 36.7665 124.201 36.5032V29.441C123.776 28.579 121.772 24.2736 123.282 22.5975C124.779 20.9374 126.987 20.4073 127.081 20.3853C127.241 20.348 127.41 20.3962 127.526 20.5127C127.643 20.6292 127.691 20.7978 127.653 20.9583C127.641 21.0112 127.396 22.034 126.817 22.9153C127.395 23.2181 128.104 23.921 128.272 25.5517C128.299 25.8135 128.109 26.0478 127.847 26.0747C127.585 26.1026 127.351 25.9117 127.324 25.6497C127.121 23.6821 126.017 23.6393 126.006 23.6392C125.815 23.6355 125.645 23.5192 125.573 23.3428C125.501 23.1664 125.541 22.9643 125.674 22.8284C125.999 22.4979 126.253 22.0279 126.432 21.6059C125.731 21.8896 124.742 22.4024 123.991 23.2359C123.122 24.1999 124.212 27.3525 125.103 29.1131C125.137 29.18 125.155 29.2536 125.155 29.3285V36.5032C125.155 36.7665 124.941 36.9799 124.678 36.9799Z" fill="#161616"/>
<path d="M130.589 39.4588C130.326 39.4588 130.112 39.2454 130.112 38.9821V31.8221C130.112 31.6978 130.161 31.5785 130.248 31.4894L133.24 28.4194C133.424 28.2308 133.726 28.2272 133.915 28.4108C134.103 28.5947 134.107 28.8965 133.923 29.0849L131.066 32.0161V38.9821C131.066 39.2454 130.853 39.4588 130.589 39.4588Z" fill="#161616"/>
<path d="M143.047 31.0238C140.471 31.0238 137.297 29.4047 137.017 29.259L127.554 25.0257C127.314 24.9181 127.206 24.6361 127.314 24.3958C127.421 24.1556 127.703 24.0478 127.943 24.1552L137.42 28.3944C137.429 28.3984 137.438 28.4028 137.446 28.4074C137.49 28.4299 141.809 30.6704 144.122 29.9233C144.625 29.7609 144.976 29.4695 145.194 29.0321C145.302 28.817 145.305 28.5655 145.203 28.2633C144.333 25.6757 136.837 21.5028 134.022 20.1135C129.455 17.6781 122.5 14.8962 121.296 16.3143C120.96 16.7098 120.826 17.1379 120.887 17.6232C121.093 19.2806 123.401 20.9433 123.425 20.9599C123.639 21.1127 123.689 21.4103 123.536 21.6247C123.384 21.8392 123.087 21.8891 122.872 21.737C122.763 21.6595 120.2 19.8166 119.941 17.7429C119.846 16.9878 120.057 16.2997 120.569 15.6971C121.557 14.5341 124.153 14.8032 128.505 16.521C131.571 17.7309 134.428 19.2501 134.457 19.2651C134.871 19.4694 144.933 24.4694 146.107 27.9593C146.291 28.5068 146.27 29.0111 146.047 29.4584C145.712 30.1276 145.163 30.5892 144.414 30.8308C143.995 30.9664 143.532 31.0236 143.047 31.0238Z" fill="#161616"/>
<path d="M145.755 28.5587C145.574 28.5587 145.402 28.4557 145.321 28.2812C142.719 22.6315 138.081 18.8343 131.539 16.9948C126.626 15.6137 122.425 15.9189 122.383 15.922C122.117 15.942 121.891 15.7462 121.871 15.4838C121.85 15.2214 122.046 14.992 122.308 14.9714C122.485 14.9577 126.695 14.6488 131.766 16.0682C136.469 17.3847 142.788 20.5029 146.187 27.8823C146.297 28.1215 146.193 28.4046 145.953 28.5146C145.889 28.5446 145.821 28.5587 145.755 28.5587Z" fill="#161616"/>
<path d="M142.749 23.7567C142.658 23.7567 142.565 23.7302 142.483 23.6749C142.265 23.5275 142.208 23.231 142.355 23.0128C142.37 22.9911 143.857 20.737 143.286 18.2635C142.919 16.6715 141.782 15.3113 139.906 14.2206C137.141 12.6136 134.559 12.4004 132.229 13.587C130.488 14.4741 129.553 15.8329 129.544 15.8466C129.397 16.0645 129.1 16.1212 128.882 15.9736C128.664 15.8258 128.607 15.5293 128.755 15.3113C128.797 15.2492 133.059 9.13819 140.385 13.3965C142.502 14.627 143.791 16.1961 144.217 18.0595C144.876 20.9412 143.216 23.442 143.145 23.5469C143.053 23.6834 142.902 23.7567 142.749 23.7567Z" fill="#161616"/>
<path d="M143.643 21.7086C143.484 21.7086 143.329 21.6294 143.238 21.4849C139.734 15.8897 130.445 14.7241 130.351 14.7128C130.09 14.6817 129.903 14.4447 129.934 14.1833C129.966 13.9221 130.203 13.7356 130.464 13.7661C130.563 13.7779 132.941 14.0672 135.809 15.089C139.64 16.4541 142.489 18.4908 144.047 20.9786C144.186 21.2017 144.119 21.496 143.896 21.6357C143.817 21.6851 143.729 21.7086 143.643 21.7086Z" fill="#161616"/>
<path d="M132.238 40.8332C132.113 40.8332 131.989 40.7848 131.896 40.6885C131.712 40.4997 131.717 40.1979 131.906 40.0144C132.217 39.7122 132.352 39.3915 132.318 39.0339C132.223 38.0157 130.838 36.8905 130.313 36.5429C130.093 36.3976 130.033 36.102 130.178 35.8823C130.322 35.6629 130.618 35.6024 130.837 35.7468C131.07 35.8999 133.112 37.29 133.268 38.9436C133.329 39.5892 133.087 40.196 132.57 40.6986C132.477 40.7886 132.357 40.8332 132.238 40.8332Z" fill="#161616"/>
<path d="M103.616 33.8436C102.994 33.8436 102.479 33.5163 102.411 33.4717C102.192 33.3262 102.132 33.0305 102.277 32.811C102.422 32.5921 102.717 32.532 102.936 32.6758C103.064 32.7586 103.468 32.9542 103.793 32.8684C103.979 32.8196 104.13 32.6794 104.255 32.4401C104.377 32.2067 104.665 32.1167 104.898 32.2384C105.132 32.3604 105.222 32.6484 105.1 32.8818C104.783 33.4881 104.342 33.7118 104.028 33.7925C103.888 33.8287 103.75 33.8436 103.616 33.8436Z" fill="#161616"/>
<path d="M110.599 32.6796C109.976 32.6796 109.461 32.3524 109.394 32.3077C109.174 32.1623 109.114 31.8665 109.26 31.647C109.405 31.4281 109.699 31.3681 109.919 31.5118C110.047 31.595 110.451 31.7904 110.776 31.7044C110.962 31.6556 111.113 31.5155 111.238 31.2762C111.36 31.0428 111.648 30.9526 111.881 31.0744C112.114 31.1965 112.205 31.4844 112.083 31.7178C111.766 32.3241 111.325 32.5478 111.01 32.6287C110.87 32.6647 110.732 32.6796 110.599 32.6796Z" fill="#161616"/>
<path d="M106.809 41.9896C105.726 41.9896 104.54 41.8591 103.257 41.5985C100.993 41.1384 99.2919 40.4386 99.2204 40.409C98.9773 40.3081 98.862 40.0293 98.9626 39.786C99.0633 39.5431 99.3423 39.4272 99.5854 39.528C99.6516 39.5555 106.261 42.2502 110.341 40.3585C113.54 38.8753 111.255 31.6927 110.105 29.0501C110 28.8086 110.11 28.5278 110.351 28.4227C110.593 28.3171 110.874 28.4279 110.979 28.6695C111.163 29.0922 115.433 39.0489 110.742 41.2236C109.642 41.7342 108.326 41.9896 106.809 41.9896Z" fill="#161616"/>
<path d="M97.2413 42.7728C97.007 42.7728 96.8028 42.6003 96.7696 42.3615L95.9977 36.7866C94.9621 36.778 94.0447 36.4176 93.4861 35.7849C93.081 35.3263 92.6596 34.4951 92.9523 33.1396C93.13 32.317 93.6079 31.936 93.9774 31.7615C95.2931 31.1405 97.2425 32.1078 97.4604 32.2203C97.6946 32.341 97.7863 32.6284 97.6658 32.8623C97.5453 33.0961 97.2581 33.1876 97.024 33.0679C96.5465 32.8229 95.141 32.2655 94.3838 32.624C94.2188 32.702 93.9877 32.8612 93.8844 33.3406C93.717 34.1163 93.8234 34.7264 94.2007 35.1536C94.6404 35.6516 95.452 35.8999 96.3686 35.8181C96.6211 35.7937 96.8482 35.9756 96.8831 36.2275L97.7142 42.2305C97.7503 42.4912 97.5682 42.732 97.3073 42.7681C97.285 42.7713 97.2631 42.7728 97.2413 42.7728Z" fill="#161616"/>
<path d="M99.4031 34.7869H100.234L99.4031 28.8876L91.9219 23.1555C91.9219 23.1555 88.0981 26.6631 90.0932 32.2385C92.0882 37.8142 96.5808 37.5251 96.5808 37.5251C96.5808 37.5251 97.4778 36.3591 96.4105 36.292C95.3204 36.2239 93.3308 35.8813 93.4182 33.2695C93.5005 30.8049 98.2394 32.1174 99.4031 34.7869Z" fill="#161616"/>
<path d="M92.5868 22.5123L100.234 28.8601C100.234 28.8601 108.464 28.7466 111.124 27.4997L112.038 29.8274C112.038 29.8274 115.945 23.676 111.124 19.6028C106.303 15.5298 97.5745 13.1191 92.5868 22.5123Z" fill="#161616"/>
<path d="M87.433 83.1271C87.316 83.1271 87.2021 83.084 87.1136 83.0043C87.0044 82.9058 86.9468 82.7622 86.9577 82.6155L89.168 52.4137C89.1808 51.9616 89.5433 43.1586 97.2206 42.8173C97.2867 42.814 97.35 42.8251 97.4082 42.8465C97.534 42.7997 97.6776 42.8072 97.8014 42.8743L104.111 46.2915L108.733 42.2691C108.869 42.1505 109.06 42.119 109.227 42.1878L110.84 42.8526C110.856 42.859 110.871 42.8663 110.886 42.8743C111.108 42.995 116.328 45.9029 116.67 52.4124C117 58.674 116.674 77.3617 116.671 77.5495C116.667 77.7774 116.502 77.9705 116.278 78.0106L87.5166 83.1197C87.4887 83.1247 87.4609 83.1271 87.433 83.1271ZM97.2896 43.7678C97.2808 43.7688 97.2719 43.7694 97.2629 43.7697C94.3676 43.8986 92.2893 45.3736 91.0861 48.1537C90.163 50.2865 90.1211 52.4229 90.1207 52.4443C90.1207 52.4536 90.1203 52.4631 90.1196 52.4723L87.9532 82.0738L115.724 77.1405C115.769 74.4069 116.02 58.187 115.718 52.4626C115.415 46.6899 110.79 43.9189 110.45 43.723L109.136 43.1817L109.1 43.2137C109.203 43.3228 109.254 43.4793 109.222 43.6382L107.85 50.3715C107.816 50.5395 107.695 50.6761 107.532 50.7295C107.369 50.7828 107.19 50.7447 107.063 50.6295L104.268 48.0944L102.172 51.2861C102.08 51.4262 101.919 51.5053 101.754 51.5008C101.586 51.4937 101.435 51.3993 101.355 51.2519L97.2896 43.7678ZM98.7601 44.4777L101.812 50.0968L103.733 47.1709L98.7601 44.4777ZM104.612 47.1196L107.083 49.3607L108.17 44.0224L104.612 47.1196Z" fill="#161616"/>
<path d="M99.222 79.5974H95.4084V43.5585H97.7551L99.222 46.3546V79.5974Z" fill="#946D42"/>
<path d="M105.054 68.7633C104.799 68.7633 104.589 68.5629 104.578 68.3065L103.698 47.3865C103.687 47.1236 103.892 46.9014 104.155 46.8902C104.415 46.8869 104.64 47.0835 104.651 47.3467L105.53 68.2666C105.541 68.5296 105.337 68.7517 105.074 68.763C105.067 68.7631 105.06 68.7633 105.054 68.7633Z" fill="#161616"/>
<path d="M112.76 79.5975H108.756V43.6262L109.624 42.6288L112.76 44.9563V79.5975Z" fill="#946D42"/>
<path d="M87.3997 82.6947V92.8363C87.3997 92.8363 88.6715 99.6525 94.964 97.9899C101.257 96.3273 108.767 93.1687 108.767 93.1687C108.767 93.1687 113.208 91.1736 115.037 86.8512C116.866 82.5286 116.222 77.5411 116.222 77.5411L87.3997 82.6947Z" fill="#946D42"/>
<path d="M90.1749 49.2781L83.1938 74.2161C83.1938 74.2161 82.5287 78.5387 85.7707 79.5359C89.0125 80.5334 90.1762 79.8683 90.675 79.5359C91.1739 79.2036 111.789 66.9282 111.789 66.9282L107.383 58.5056L92.8362 65.6543" fill="#DEE5DC"/>
<path d="M88.7078 80.5397C87.9317 80.5397 86.9335 80.3927 85.6303 79.9917C82.7547 79.1069 82.4709 75.7795 82.7226 74.1437C82.7255 74.1246 82.7295 74.1061 82.7346 74.0876L89.7157 49.1496C89.7868 48.896 90.0504 48.7482 90.3032 48.8192C90.5568 48.8901 90.7048 49.1532 90.6337 49.4067L83.661 74.3149C83.6097 74.6865 83.1949 78.2451 85.9106 79.0804C89.0497 80.0462 90.0738 79.3636 90.4106 79.1396C90.8812 78.8257 108.236 68.4892 111.157 66.7496L107.176 59.1385L93.0464 66.0822C92.8099 66.1978 92.5243 66.1007 92.4083 65.8644C92.2922 65.6282 92.3896 65.3425 92.6259 65.2262L107.173 58.0775C107.405 57.9635 107.686 58.0554 107.806 58.2844L112.211 66.7073C112.329 66.9317 112.25 67.2084 112.033 67.338C104.91 71.5788 91.3361 79.6691 90.9393 79.9328C90.4971 80.2276 89.8381 80.5397 88.7078 80.5397Z" fill="#161616"/>
<path d="M109.627 35.3592H107.803C107.539 35.3592 107.326 35.1458 107.326 34.8825C107.326 34.6191 107.539 34.4058 107.803 34.4058H108.83L108.046 32.947C107.921 32.7152 108.008 32.4263 108.24 32.3014C108.472 32.1769 108.761 32.2635 108.886 32.4957L110.048 34.6569C110.127 34.8045 110.123 34.9832 110.037 35.1271C109.951 35.2711 109.795 35.3592 109.627 35.3592Z" fill="#161616"/>
<path d="M109.624 76.189L119.893 63.0886C119.893 63.0886 125.135 59.5583 127.812 61.9193C131.016 64.7454 130.875 69.8937 130.875 69.8937V96.4936C130.875 96.4936 135.006 100.484 135.006 103.643C135.006 103.643 132.957 105.139 127.849 103.643C122.741 102.146 118.29 96.3276 118.29 96.3276V84.1914L109.624 92.6743" fill="#946D42"/>
<path d="M93.2451 82.6497L103.557 69.5605C103.557 69.5605 108.863 66.0365 111.54 68.3971C114.744 71.2232 114.667 76.3774 114.667 76.3774V102.978C114.667 102.978 118.755 106.968 118.755 110.126C118.755 110.126 116.633 111.623 111.525 110.126C106.417 108.63 101.892 102.811 101.892 102.811V82.6484" fill="#946D42"/>
<path d="M101.987 88.4641C101.724 88.4641 101.51 88.2508 101.51 87.9874V82.6483C101.51 82.385 101.724 82.1716 101.987 82.1716C102.25 82.1716 102.464 82.385 102.464 82.6483V87.9874C102.464 88.2508 102.25 88.4641 101.987 88.4641Z" fill="#161616"/>
<path d="M114.572 88.4641C114.309 88.4641 114.095 88.2507 114.095 87.9874V76.3773C114.096 76.3182 114.158 71.4098 111.162 68.7675C109.953 67.7014 108.046 68.0674 106.658 68.5618C105.277 69.0539 104.129 69.7652 103.855 69.9412L91.7234 85.6328C91.5623 85.8409 91.2631 85.8796 91.0547 85.7182C90.8464 85.5573 90.8081 85.2579 90.969 85.0495L103.15 69.2942C103.181 69.2536 103.219 69.2185 103.261 69.1899C103.489 69.037 108.874 65.4781 111.793 68.0523C115.124 70.9913 115.049 76.1687 115.049 76.3876V87.9874C115.049 88.2507 114.835 88.4641 114.572 88.4641Z" fill="#161616"/>
<path d="M114.667 102.978V87.9874H101.892V102.811C101.892 102.811 106.445 108.63 111.553 110.126C116.662 111.623 118.734 110.126 118.734 110.126C118.734 106.968 114.667 102.978 114.667 102.978Z" fill="#FBFCFA"/>
<path d="M115.739 111.268C114.454 111.268 113.017 111.038 111.467 110.584C109.277 109.942 106.951 108.486 104.554 106.257C102.781 104.608 101.657 103.164 101.61 103.103C101.545 103.02 101.51 102.917 101.51 102.811V87.892C101.51 87.6287 101.724 87.4153 101.987 87.4153H114.763C115.026 87.4153 115.239 87.6287 115.239 87.892V102.782C115.983 103.548 119.282 107.116 119.282 110.126C119.282 110.28 119.208 110.425 119.082 110.514C119.039 110.545 118 111.268 115.739 111.268ZM102.464 102.644C103.148 103.488 107.245 108.353 111.735 109.669C113.198 110.097 114.545 110.315 115.739 110.315C117.127 110.315 117.958 110.019 118.317 109.851C118.092 106.965 114.465 103.354 114.428 103.317C114.337 103.227 114.286 103.105 114.286 102.977V88.3687H102.464V102.644Z" fill="#161616"/>
<path d="M114.781 103.454C114.649 103.454 114.517 103.399 114.423 103.291C113.331 102.044 110.065 102.73 108.899 103.099C108.648 103.18 108.38 103.04 108.3 102.789C108.221 102.538 108.36 102.27 108.611 102.191C108.658 102.175 109.795 101.819 111.143 101.679C113.05 101.481 114.395 101.812 115.14 102.663C115.313 102.861 115.293 103.163 115.095 103.336C115.005 103.415 114.893 103.454 114.781 103.454Z" fill="#161616"/>
<path d="M118.29 84.1914V96.3275C118.29 96.3275 122.791 102.146 127.899 103.642C133.007 105.139 135.011 103.642 135.011 103.642C135.011 100.484 130.875 96.4936 130.875 96.4936V81.3136H118.19L118.29 84.1914Z" fill="#FBFCFA"/>
<path d="M132.067 104.784C130.794 104.784 129.363 104.554 127.812 104.1C125.622 103.458 123.304 102.002 120.924 99.7717C119.164 98.1222 118.053 96.6779 118.007 96.6173C117.943 96.534 117.909 96.4321 117.909 96.3274V84.2069L117.714 81.2494C117.705 81.1181 117.751 80.9886 117.841 80.8923C117.931 80.796 118.058 80.7415 118.19 80.7415H130.971C131.234 80.7415 131.447 80.9548 131.447 81.2182V96.2956C132.204 97.0623 135.559 100.631 135.559 103.642C135.559 103.794 135.487 103.936 135.365 104.026C135.323 104.057 134.312 104.784 132.067 104.784ZM118.862 96.1619C119.538 97.0046 123.591 101.87 128.081 103.185C129.544 103.613 130.885 103.831 132.067 103.831C133.428 103.831 134.241 103.538 134.594 103.37C134.367 100.486 130.677 96.873 130.638 96.8356C130.546 96.7458 130.494 96.6224 130.494 96.4935V81.6949H118.698L118.861 84.16C118.862 84.1705 118.862 84.1808 118.862 84.1913V96.1619H118.862Z" fill="#161616"/>
<path d="M118.386 81.7903C118.122 81.7903 117.909 81.5769 117.909 81.3136V74.2583C117.909 73.995 118.122 73.7816 118.386 73.7816C118.649 73.7816 118.862 73.995 118.862 74.2583V81.3136C118.862 81.5769 118.649 81.7903 118.386 81.7903Z" fill="#161616"/>
<path d="M124.84 97.4809C124.651 97.4809 124.472 97.368 124.397 97.1823C124.299 96.9382 124.417 96.6607 124.661 96.5622C124.803 96.5048 128.173 95.1688 131.205 96.0351C131.458 96.1076 131.605 96.3715 131.532 96.6245C131.46 96.8779 131.196 97.0244 130.943 96.9521C128.23 96.1766 125.049 97.4336 125.017 97.4466C124.959 97.4698 124.899 97.4809 124.84 97.4809Z" fill="#161616"/>
<path d="M90.6413 22.9648H89.1158C88.8525 22.9648 88.6391 22.7514 88.6391 22.4881C88.6391 22.2247 88.8525 22.0114 89.1158 22.0114H90.6413C90.9046 22.0114 91.118 22.2247 91.118 22.4881C91.118 22.7514 90.9046 22.9648 90.6413 22.9648Z" fill="#161616"/>
<path d="M90.5919 21.3264C90.467 21.3264 90.3421 21.2776 90.2487 21.1805L89.5006 20.4048C89.318 20.2153 89.3233 19.9136 89.5128 19.7308C89.7024 19.5481 90.0042 19.5536 90.1869 19.743L90.9349 20.5187C91.1176 20.7082 91.1123 21.0099 90.9227 21.1927C90.8303 21.2822 90.7111 21.3264 90.5919 21.3264Z" fill="#161616"/>
<path d="M106.635 44.1028C106.388 44.1028 106.179 43.9127 106.16 43.6625L105.994 41.5011C105.973 41.2387 106.17 41.0095 106.432 40.9893C106.696 40.9657 106.924 41.1655 106.944 41.4281L107.111 43.5895C107.131 43.8519 106.934 44.0811 106.672 44.1013C106.659 44.1026 106.647 44.1028 106.635 44.1028Z" fill="#161616"/>
<path d="M108.613 60.2208L115.862 56.0119C115.862 56.0119 118.688 54.7648 120.351 56.0119C122.013 57.2588 124.008 60.2208 124.008 60.2208C124.008 60.2208 122.542 60.5227 121.987 60.2208L121.182 58.5888C121.182 58.5888 123.04 62.2424 122.319 62.9093C121.598 63.5761 119.519 61.0823 119.519 61.0823C119.519 61.0823 121.68 64.7995 120.85 65.518C120.018 66.2363 118.189 62.6394 118.189 62.6394C118.189 62.6394 116.527 65.1694 114.199 64.3243L111.623 65.6127" fill="#DEE5DC"/>
<path d="M111.623 66.0897C111.448 66.0897 111.28 65.993 111.196 65.8259C111.078 65.5905 111.174 65.3042 111.409 65.1864L113.986 63.898C114.103 63.8394 114.239 63.8316 114.362 63.8764C116.303 64.5798 117.732 62.4673 117.792 62.3771C117.885 62.2358 118.046 62.154 118.217 62.1643C118.386 62.174 118.538 62.2724 118.615 62.4234C119.282 63.7353 120.178 64.974 120.556 65.1227C120.72 64.7183 120.053 62.9487 119.107 61.322C118.983 61.1079 119.043 60.8341 119.246 60.6918C119.449 60.55 119.727 60.5869 119.886 60.7771C120.664 61.7095 121.665 62.547 121.994 62.5475C122.131 62.1812 121.658 60.6792 120.953 59.2024L120.755 58.7995C120.639 58.5644 120.734 58.2797 120.969 58.1624C121.203 58.0453 121.488 58.1388 121.607 58.3726C121.692 58.5398 121.782 58.7213 121.873 58.9128L122.332 59.8429C122.52 59.886 122.833 59.8875 123.169 59.8591C122.499 58.937 121.188 57.2353 120.065 56.3931C118.718 55.3823 116.329 56.3334 116.076 56.4388L108.852 60.6329C108.625 60.7654 108.333 60.6878 108.201 60.4599C108.068 60.2325 108.146 59.9405 108.374 59.8084L115.623 55.5995C115.638 55.5907 115.654 55.5827 115.67 55.5756C115.795 55.5203 118.773 54.2319 120.637 55.6303C122.344 56.9108 124.32 59.8307 124.404 59.9545C124.492 60.0862 124.51 60.2536 124.45 60.4008C124.39 60.548 124.26 60.6556 124.104 60.6876C123.927 60.724 123.273 60.8482 122.654 60.8291C122.985 61.8609 123.109 62.8282 122.643 63.2594C122.455 63.4323 122.213 63.5139 121.941 63.4969C121.669 63.4792 121.368 63.3494 121.066 63.1608C121.64 64.5972 121.667 65.4417 121.161 65.8786C120.956 66.0563 120.693 66.1247 120.421 66.0717C119.597 65.9098 118.654 64.4612 118.112 63.5025C117.297 64.3836 115.878 65.3223 114.237 64.8384L111.836 66.0391C111.767 66.0733 111.694 66.0897 111.623 66.0897Z" fill="#161616"/>
<path d="M125.088 54.4101C124.989 54.4101 124.889 54.379 124.803 54.3148L122.808 52.8187C122.597 52.6608 122.554 52.3618 122.713 52.1513C122.871 51.9408 123.169 51.8985 123.38 52.056L125.375 53.552C125.585 53.7099 125.628 54.0089 125.47 54.2194C125.377 54.3443 125.234 54.4101 125.088 54.4101Z" fill="#161616"/>
<path d="M127.749 17.1923C127.749 17.1923 124.784 16.6754 124.091 17.8204C123.399 18.9657 133.052 24.0084 133.052 24.0084C133.052 24.0084 142.463 28.7467 143.642 27.6238C144.647 26.6681 142.24 24.476 142.24 24.476C142.24 24.476 130.163 17.2329 127.749 17.1923Z" fill="#161616"/>
<path d="M102.793 36.3864C102.653 37.1329 104.719 39.3652 107.184 38.4372C108.513 37.9368 107.713 36.6989 106.166 36.6989C105.301 36.6987 103.217 34.1348 102.793 36.3864Z" fill="#161616"/>
<path d="M182.72 105.156C182.605 105.156 182.493 105.115 182.404 105.037L179.946 102.868C179.748 102.694 179.73 102.392 179.904 102.195C180.078 101.998 180.379 101.979 180.577 102.153L182.462 103.816L184.11 97.7926C184.18 97.539 184.44 97.3893 184.696 97.4588C184.95 97.5282 185.099 97.7903 185.03 98.0443L183.18 104.806C183.136 104.964 183.014 105.089 182.856 105.136C182.811 105.15 182.765 105.156 182.72 105.156Z" fill="#161616"/>
<path d="M182.72 105.156C182.688 105.156 182.654 105.153 182.621 105.146L179.731 104.535C179.473 104.481 179.309 104.228 179.363 103.97C179.418 103.712 179.672 103.549 179.928 103.602L182.818 104.213C183.076 104.267 183.241 104.52 183.186 104.778C183.139 105.002 182.941 105.156 182.72 105.156Z" fill="#161616"/>
<path d="M174.317 84.0479C174.317 84.0479 178.937 91.9542 179.589 93.7037C180.24 95.4534 187.656 105.53 196.173 100.124C196.173 100.124 200.802 98.3186 200.93 91.7618L185.117 84.6398C185.117 84.6396 178.303 76.9766 174.317 84.0479Z" fill="#EAEFE8"/>
<path d="M191.059 102.098C191.058 102.098 191.058 102.098 191.058 102.098C184.534 102.098 179.688 95.296 179.142 93.8299C178.512 92.1385 173.952 84.3472 173.906 84.2681C173.82 84.122 173.819 83.9516 173.902 83.8038C175.113 81.6546 176.706 80.5698 178.634 80.5698C181.863 80.5698 184.893 83.693 185.402 84.2431L201.126 91.3258C201.3 91.4042 201.41 91.5796 201.407 91.7705C201.279 98.2926 196.923 100.285 196.392 100.509C194.676 101.59 192.882 102.098 191.059 102.098ZM174.869 84.0481C175.663 85.4114 179.434 91.8824 180.035 93.4969C180.521 94.801 185.121 101.145 191.058 101.145C191.058 101.145 191.059 101.145 191.059 101.145C192.711 101.145 194.346 100.679 195.918 99.6813C195.944 99.6647 195.971 99.6709 196 99.6598C196.173 99.5913 200.191 97.9379 200.444 92.0554L184.921 85.0694C184.86 85.0419 184.805 85.0043 184.761 84.9542C184.73 84.9199 181.67 81.527 178.635 81.527C177.143 81.527 175.878 82.3756 174.869 84.0481Z" fill="#161616"/>
<path d="M200.93 91.7616L210.701 85.5906C210.701 85.5906 207.487 96.7756 200.93 91.7616Z" fill="#161616"/>
<path d="M200.745 92.1964L212.28 91.486C212.28 91.4862 204.082 99.7461 200.745 92.1964Z" fill="#161616"/>
<path d="M200.938 93.0817L212.045 96.2743C212.045 96.2743 201.554 101.313 200.938 93.0817Z" fill="#161616"/>
<path d="M177.181 81.3103C177.181 81.3103 175.416 76.9768 177.181 77.1053C178.945 77.2337 179.83 78.648 179.83 78.648C179.83 78.648 181.772 76.8359 182.416 77.5491C183.06 78.2624 181.275 81.7229 181.275 81.7229" fill="#946D42"/>
<path d="M193.988 106.865H190.749C190.486 106.865 190.273 106.652 190.273 106.388C190.273 106.125 190.486 105.912 190.749 105.912H193.225L190.493 100.303C190.378 100.067 190.476 99.7815 190.713 99.6661C190.95 99.5507 191.235 99.6491 191.35 99.8858L194.416 106.18C194.488 106.327 194.479 106.502 194.392 106.641C194.305 106.78 194.152 106.865 193.988 106.865Z" fill="#161616"/>
<path d="M191.417 108.445C191.251 108.445 191.089 108.358 191.002 108.203C190.872 107.974 190.953 107.683 191.182 107.554L193.753 106.099C193.982 105.97 194.273 106.05 194.402 106.28C194.532 106.509 194.451 106.8 194.222 106.929L191.651 108.383C191.577 108.426 191.496 108.445 191.417 108.445Z" fill="#161616"/>
<path d="M180.425 89.6675C180.425 89.6675 182.373 90.3709 183.366 89.2539C184.359 88.1369 183.476 86.1923 183.476 86.1923C183.476 86.1923 185.593 86.6125 186.812 85.4034L185.117 84.6397C185.117 84.6397 178.303 76.9766 174.317 84.0479C174.317 84.0479 177.378 89.2871 178.868 92.1795C179.458 91.9204 180.602 91.2127 180.425 89.6675Z" fill="#EAEFE8"/>
<path d="M178.868 92.6561C178.695 92.6561 178.528 92.5612 178.444 92.3978C176.977 89.5495 173.936 84.3407 173.906 84.2884C173.82 84.1422 173.819 83.9616 173.902 83.814C175.113 81.6648 176.705 80.5751 178.634 80.5751C181.863 80.5751 184.893 83.6958 185.402 84.2459L187.007 84.969C187.151 85.0334 187.253 85.1642 187.281 85.3187C187.309 85.4733 187.259 85.6316 187.147 85.7422C186.255 86.6271 184.985 86.7618 184.161 86.7373C184.36 87.5052 184.488 88.7088 183.722 89.5707C183.261 90.089 182.575 90.3628 181.737 90.3628C181.432 90.3628 181.145 90.3268 180.906 90.2821C180.765 91.7042 179.605 92.3764 179.06 92.6161C178.998 92.6434 178.933 92.6561 178.868 92.6561ZM174.869 84.048C175.454 85.0536 177.728 88.9819 179.07 91.5349C179.595 91.2016 180.057 90.6435 179.951 89.7217C179.932 89.5579 180 89.3958 180.129 89.2934C180.258 89.191 180.432 89.1632 180.587 89.2189C180.591 89.2206 181.128 89.4092 181.738 89.4092C182.303 89.4092 182.731 89.2504 183.01 88.9369C183.776 88.0756 183.049 86.4059 183.042 86.3894C182.968 86.2265 182.991 86.036 183.102 85.8961C183.213 85.7561 183.392 85.6894 183.568 85.7246C183.573 85.7254 184.841 85.9597 185.85 85.4931L184.921 85.0744C184.86 85.047 184.805 85.0069 184.76 84.9568C184.73 84.9224 181.67 81.5285 178.634 81.5285C177.143 81.5283 175.877 82.3757 174.869 84.048Z" fill="#161616"/>
<path d="M186.812 85.4033C186.812 85.4033 185.887 93.5924 190.709 95.4412C195.53 97.2899 197.331 90.2295 197.331 90.2295L186.812 85.4033Z" fill="#EAEFE8"/>
<path d="M192.264 96.1868H192.264C191.707 96.1868 191.127 96.0922 190.538 95.8665C188.399 95.0463 186.997 92.9538 186.482 89.7959C186.104 87.4793 186.328 85.431 186.338 85.3448C186.355 85.1928 186.444 85.0611 186.578 84.9858C186.711 84.9102 186.872 84.9047 187.011 84.9686L197.529 89.7953C197.738 89.8914 197.849 90.1235 197.792 90.3466C197.777 90.4057 197.414 91.7889 196.581 93.2108C195.432 95.1709 193.939 96.1868 192.264 96.1868ZM187.24 86.1241C187.151 88.0552 187.229 93.5966 190.88 94.9962C191.359 95.18 191.825 95.2731 192.264 95.2731C194.984 95.2736 196.37 91.6816 196.755 90.49L187.24 86.1241Z" fill="#161616"/>
<path d="M174.317 84.048C174.317 84.048 172.646 84.6833 172.26 86.6155L175.336 85.8084L174.317 84.048Z" fill="#161616"/>
<path d="M178.765 84.0978C179.158 84.0978 179.476 83.7793 179.476 83.3865C179.476 82.9937 179.158 82.6753 178.765 82.6753C178.372 82.6753 178.054 82.9937 178.054 83.3865C178.054 83.7793 178.372 84.0978 178.765 84.0978Z" fill="#161616"/>
<path d="M164.442 105.932C164.442 105.932 168.075 109.822 171.345 107.998C174.614 106.174 174.614 100.917 171.345 100.7C168.075 100.483 170.497 107.506 164.442 105.932Z" fill="#8DC73F"/>
<path d="M169.87 110.774C169.606 110.774 169.393 110.561 169.393 110.297V108.581C169.393 108.318 169.606 108.104 169.87 108.104C170.133 108.104 170.346 108.318 170.346 108.581V110.297C170.346 110.561 170.133 110.774 169.87 110.774Z" fill="#161616"/>
<path d="M171.395 110.011C171.132 110.011 170.918 109.798 170.918 109.535V108.009C170.918 107.746 171.132 107.532 171.395 107.532C171.659 107.532 171.872 107.746 171.872 108.009V109.535C171.872 109.798 171.659 110.011 171.395 110.011Z" fill="#161616"/>
<path d="M173.373 102.095C173.373 102.095 175.637 102.839 175.759 104.325L173.554 104.007L173.373 102.095Z" fill="#161616"/>
<path d="M171.398 103.247C171.768 103.247 172.068 102.947 172.068 102.577C172.068 102.207 171.768 101.907 171.398 101.907C171.028 101.907 170.728 102.207 170.728 102.577C170.728 102.947 171.028 103.247 171.398 103.247Z" fill="#161616"/>
<path d="M156.631 94.1251C156.631 94.1251 160.264 98.015 163.534 96.1911C166.803 94.3672 166.803 89.1103 163.534 88.8931C160.264 88.6758 162.686 95.6993 156.631 94.1251Z" fill="#8DC73F"/>
<path d="M162.052 98.9517C161.788 98.9517 161.575 98.7383 161.575 98.475V96.7588C161.575 96.4955 161.788 96.2821 162.052 96.2821C162.315 96.2821 162.528 96.4955 162.528 96.7588V98.475C162.528 98.7383 162.315 98.9517 162.052 98.9517Z" fill="#161616"/>
<path d="M163.577 98.3796C163.314 98.3796 163.1 98.1663 163.1 97.9029V96.1868C163.1 95.9235 163.314 95.7101 163.577 95.7101C163.841 95.7101 164.054 95.9235 164.054 96.1868V97.9029C164.054 98.1663 163.841 98.3796 163.577 98.3796Z" fill="#161616"/>
<path d="M165.562 90.2885C165.562 90.2885 167.827 91.0315 167.948 92.5177L165.743 92.2002L165.562 90.2885Z" fill="#161616"/>
<path d="M163.58 91.6158C163.95 91.6158 164.25 91.3158 164.25 90.9457C164.25 90.5756 163.95 90.2756 163.58 90.2756C163.21 90.2756 162.91 90.5756 162.91 90.9457C162.91 91.3158 163.21 91.6158 163.58 91.6158Z" fill="#161616"/>
<path d="M237.413 78.1696C237.512 78.7633 237.11 79.3247 236.516 79.4231C235.923 79.5217 235.361 79.1199 235.263 78.5263L226.848 27.8146C226.749 27.2208 227.15 26.6594 227.744 26.561C228.338 26.4624 228.899 26.864 228.998 27.4578L237.413 78.1696Z" fill="#DEE5DC"/>
<path d="M236.337 79.9148C235.568 79.9148 234.918 79.3636 234.792 78.6045L226.377 27.8927C226.309 27.4801 226.405 27.0651 226.648 26.7248C226.892 26.3844 227.253 26.1592 227.666 26.0909C227.751 26.0768 227.838 26.0696 227.924 26.0696C228.693 26.0696 229.342 26.6208 229.468 27.38L237.883 78.0917C238.025 78.9439 237.447 79.7522 236.594 79.8935C236.509 79.9076 236.422 79.9148 236.337 79.9148ZM227.924 27.0228C227.89 27.0228 227.856 27.0257 227.822 27.0312C227.661 27.0581 227.519 27.1464 227.424 27.2795C227.329 27.4126 227.291 27.575 227.318 27.7363L235.733 78.4483C235.788 78.7789 236.105 79.0091 236.438 78.9528C236.772 78.8973 236.998 78.581 236.943 78.2475L228.528 27.5357C228.478 27.2387 228.224 27.0228 227.924 27.0228Z" fill="#161616"/>
<path d="M227.747 36.284L230.824 35.6778C230.824 35.6778 230.939 21.2283 226.801 20.8427C222.663 20.4574 227.747 36.284 227.747 36.284Z" fill="#946D42"/>
<path d="M236.669 74.2423C236.669 74.2423 238.381 79.6987 241.921 79.8154C245.161 79.9222 247.027 95.0541 247.027 95.0541C247.027 95.0541 245.891 97.0841 245.504 95.307C245.118 93.5298 242.905 84.4882 241.702 84.4549C240.5 84.4215 242.715 95.6946 242.715 95.6946C242.715 95.6946 242.079 98.5165 241.106 96.5413C240.134 94.566 238.901 84.9196 237.543 85.053C236.184 85.1865 238.239 97.0899 238.239 97.0899C238.239 97.0899 237.575 99.117 236.801 97.7805C236.026 96.4442 234.7 85.1263 232.973 85.8112C231.687 86.3211 233.319 97.3286 233.319 97.3286C233.319 97.3286 232.837 101.083 231.795 97.5765C231.311 95.9486 228.561 86.0909 230.109 82.4199C230.901 80.539 234.932 80.9749 234.609 74.5842L236.669 74.2423Z" fill="white"/>
<path d="M232.623 99.5499C232.01 99.5499 231.666 98.8152 231.338 97.7122C230.992 96.5455 227.999 86.1985 229.67 82.2348C229.975 81.5084 230.628 81.092 231.318 80.6508C232.735 79.7456 234.341 78.7193 234.133 74.6084C234.121 74.3662 234.292 74.1536 234.531 74.114L236.592 73.7719C236.826 73.7324 237.053 73.8726 237.124 74.0991C237.141 74.1506 238.779 79.2348 241.937 79.3387C244.081 79.4094 245.371 83.9549 246.154 87.3679C247.021 91.1446 247.496 94.9575 247.501 94.9956C247.513 95.0961 247.493 95.2259 247.444 95.3144C247.237 95.683 246.685 96.5681 246.013 96.5681C246.013 96.5681 246.013 96.5681 246.013 96.5681C245.678 96.5681 245.238 96.3489 245.039 95.4359C243.909 90.2457 242.502 86.2389 241.836 85.1863C241.678 86.6124 242.361 91.4262 243.183 95.6092C243.195 95.6744 243.226 95.7381 243.211 95.8027C243.081 96.3801 242.615 97.721 241.852 97.7212V97.7204C241.09 97.7206 240.828 96.9915 240.71 96.7522C240.31 95.94 239.892 94.0918 239.426 91.9517C239 89.9921 238.227 86.4776 237.653 85.6621C237.312 86.9105 237.903 92.3165 238.713 97.0088C238.726 97.0853 238.718 97.1642 238.694 97.2382C238.581 97.5841 238.148 98.7129 237.349 98.7129C236.979 98.7129 236.655 98.4795 236.389 98.0192C236.099 97.5193 235.82 96.1902 235.352 93.8841C235.014 92.2156 234.631 90.3246 234.209 88.8133C233.674 86.8931 233.298 86.4109 233.158 86.2917C232.781 87.0436 232.908 91.3059 233.791 97.2586C233.797 97.3019 233.798 97.3458 233.792 97.3892C233.608 98.823 233.215 99.5499 232.623 99.5499ZM235.1 74.9858C235.196 79.3042 233.258 80.5426 231.831 81.4543C231.221 81.8442 230.739 82.1522 230.548 82.6049C229.94 84.0476 229.979 86.8403 230.66 90.681C231.259 94.0584 232.152 97.1045 232.252 97.4407C232.393 97.914 232.51 98.2038 232.596 98.3791C232.689 98.1169 232.784 97.7157 232.838 97.3314C232.774 96.891 232.414 94.3581 232.189 91.8028C231.704 86.2801 232.249 85.5856 232.798 85.368C232.904 85.3259 233.014 85.3047 233.124 85.3047C234.382 85.3047 235.087 87.7781 236.287 93.6948C236.631 95.3947 236.988 97.1524 237.213 97.5416C237.274 97.6474 237.323 97.7056 237.354 97.7363C237.467 97.636 237.637 97.3393 237.748 97.0483C237.287 94.362 235.986 86.1796 236.973 84.8829C237.146 84.6568 237.353 84.5927 237.496 84.5784C237.521 84.576 237.545 84.5748 237.57 84.5748C238.605 84.5748 239.17 86.3661 240.342 91.7487C240.756 93.6534 241.185 95.6229 241.533 96.3306C241.647 96.5609 241.735 96.6753 241.787 96.7297C241.925 96.5718 242.116 96.121 242.227 95.6836C242.13 95.1804 241.697 92.9059 241.349 90.5607C240.526 85.022 240.965 84.4879 241.177 84.2314C241.311 84.068 241.496 83.978 241.697 83.978C242.255 83.993 242.948 84.4017 244.366 89.0888C245.162 91.7223 245.807 94.4556 245.97 95.2053C246.004 95.3604 246.039 95.4572 246.066 95.5154C246.193 95.4168 246.384 95.1874 246.534 94.9514C246.434 94.1913 245.979 90.8671 245.223 87.575C243.682 80.8674 242.294 80.3043 241.905 80.2917C238.618 80.1834 236.838 76.0913 236.351 74.7783L235.1 74.9858Z" fill="#161616"/>
<path d="M39.4192 46.8467C43.9724 46.8467 47.6635 43.1556 47.6635 38.6024C47.6635 34.0491 43.9724 30.358 39.4192 30.358C34.866 30.358 31.1748 34.0491 31.1748 38.6024C31.1748 43.1556 34.866 46.8467 39.4192 46.8467Z" fill="#DEE5DC"/>
<path d="M39.7309 33.0417C43.0417 33.0417 45.7256 30.3578 45.7256 27.047C45.7256 23.7363 43.0417 21.0524 39.7309 21.0524C36.4202 21.0524 33.7363 23.7363 33.7363 27.047C33.7363 30.3578 36.4202 33.0417 39.7309 33.0417Z" fill="#DEE5DC"/>
<path d="M39.6444 58.0502C39.644 58.0502 39.6436 58.0502 39.6433 58.0502C39.3799 58.0502 39.1671 57.7947 39.1677 57.5314L39.2543 24.6476C39.2548 24.3849 39.4682 24.1088 39.731 24.1088C39.7314 24.1088 39.7317 24.1088 39.7321 24.1088C39.9954 24.1088 40.2082 24.3666 40.2077 24.6297L40.1211 57.5123C40.1205 57.7752 39.9072 58.0502 39.6444 58.0502Z" fill="#161616"/>
<path d="M39.644 40.8677C39.5681 40.8677 39.4911 40.8494 39.4194 40.8111L34.9647 38.4262C34.7326 38.3021 34.6453 38.013 34.7694 37.7809C34.8939 37.5487 35.1826 37.4615 35.4147 37.5857L39.8694 39.9705C40.1015 40.0947 40.1888 40.3838 40.0647 40.6158C39.9788 40.7762 39.8141 40.8677 39.644 40.8677Z" fill="#161616"/>
<path d="M39.7306 30.8345C39.6229 30.8345 39.5144 30.7983 39.4251 30.7235C39.223 30.5546 39.1963 30.2541 39.3653 30.0522L42.8696 25.861C43.0386 25.6588 43.3391 25.6318 43.541 25.8011C43.7431 25.97 43.7698 26.2705 43.6009 26.4725L40.0965 30.6637C40.0023 30.7766 39.8669 30.8345 39.7306 30.8345Z" fill="#161616"/>
<path d="M82.5963 172.256C82.5591 172.256 82.5213 172.251 82.4838 172.242C82.2279 172.181 82.0706 171.923 82.1325 171.667C82.167 171.524 83.0059 168.12 85.3608 163.79C87.5359 159.791 91.4676 154.241 97.8465 150.513C98.0738 150.38 98.3657 150.457 98.4984 150.684C98.6313 150.911 98.5547 151.204 98.3274 151.336C86.4747 158.263 83.0917 171.755 83.0589 171.891C83.0062 172.109 82.8112 172.256 82.5963 172.256Z" fill="#161616"/>
<path d="M75.435 170.482C75.4197 170.482 75.4043 170.482 75.3888 170.48C75.1266 170.455 74.9348 170.222 74.9598 169.96C74.9891 169.655 77.7947 139.368 69.557 130.271C69.3802 130.076 69.3951 129.775 69.5904 129.598C69.7856 129.421 70.0869 129.436 70.2637 129.631C73.8563 133.599 75.8964 141.619 76.3272 153.471C76.6462 162.245 75.9162 169.974 75.9088 170.051C75.8854 170.298 75.6777 170.482 75.435 170.482Z" fill="#161616"/>
<path d="M98.134 149.476C98.134 149.476 101.863 143.029 98.6557 141.466C96.0502 140.197 95.1799 147.853 98.134 149.476Z" fill="#8DC73F"/>
<path d="M98.0054 149.959C97.7432 149.959 97.5301 149.744 97.5287 149.481L97.4976 143.018C97.4963 142.755 97.7087 142.523 97.9721 142.523C97.9728 142.523 97.9736 142.523 97.9745 142.523C98.2367 142.523 98.4499 142.749 98.4513 143.012L98.4823 149.469C98.4837 149.733 98.2712 149.959 98.0079 149.959C98.007 149.959 98.0062 149.959 98.0054 149.959Z" fill="#161616"/>
<path d="M90.6188 156.044C90.6188 156.044 93.1219 149.03 89.6854 148.072C86.8936 147.294 87.4201 154.981 90.6188 156.044Z" fill="#8DC73F"/>
<path d="M90.4918 156.544C90.2672 156.544 90.067 156.385 90.0239 156.156L88.8291 149.821C88.7803 149.562 88.9504 149.313 89.2091 149.264C89.4677 149.216 89.7171 149.385 89.7659 149.644L90.9607 155.979C91.0095 156.238 90.8395 156.487 90.5807 156.536C90.551 156.542 90.5212 156.544 90.4918 156.544Z" fill="#161616"/>
<path d="M84.3843 164.838C84.3843 164.838 86.4326 157.677 82.9417 156.942C80.1057 156.345 81.1242 163.982 84.3843 164.838Z" fill="#8DC73F"/>
<path d="M84.2591 165.346C84.0465 165.346 83.8528 165.203 83.7977 164.987L82.1992 158.742C82.134 158.486 82.2877 158.227 82.5428 158.162C82.7977 158.095 83.0576 158.25 83.1229 158.505L84.7213 164.751C84.7866 165.006 84.6329 165.265 84.3777 165.331C84.3381 165.341 84.2984 165.346 84.2591 165.346Z" fill="#161616"/>
<path d="M100.753 149.896C100.753 149.896 108.163 150.637 108.265 147.071C108.348 144.174 101.014 146.536 100.753 149.896Z" fill="#8DC73F"/>
<path d="M100.7 150.256C100.519 150.256 100.346 150.153 100.266 149.978C100.157 149.739 100.262 149.456 100.501 149.346L106.362 146.661C106.601 146.551 106.884 146.657 106.994 146.896C107.104 147.135 106.998 147.418 106.759 147.528L100.898 150.213C100.834 150.242 100.766 150.256 100.7 150.256Z" fill="#161616"/>
<path d="M94.7812 154.198C94.7812 154.198 100.402 159.084 102.546 156.232C104.287 153.916 96.9361 151.606 94.7812 154.198Z" fill="#8DC73F"/>
<path d="M101.141 155.743C101.112 155.743 101.082 155.741 101.053 155.735L94.7173 154.54C94.4586 154.492 94.2885 154.242 94.3373 153.984C94.3859 153.725 94.6355 153.556 94.8941 153.603L101.229 154.798C101.488 154.847 101.658 155.096 101.609 155.355C101.566 155.584 101.366 155.743 101.141 155.743Z" fill="#161616"/>
<path d="M87.4635 163.185C87.4635 163.185 94.2206 166.316 95.4873 162.981C96.5164 160.272 88.8134 160.096 87.4635 163.185Z" fill="#8DC73F"/>
<path d="M87.4516 163.533C87.2088 163.533 87.0012 163.349 86.9775 163.102C86.9526 162.84 87.1446 162.607 87.4068 162.582L93.8244 161.969C94.0873 161.945 94.3192 162.136 94.3444 162.398C94.3693 162.66 94.1773 162.893 93.9151 162.918L87.4975 163.531C87.4821 163.533 87.4668 163.533 87.4516 163.533Z" fill="#161616"/>
<path d="M70.347 127.595C70.347 127.595 76.6622 119.879 72.7609 117.123C69.5913 114.885 66.7927 124.814 70.347 127.595Z" fill="#8DC73F"/>
<path d="M70.1777 128.044C70.1531 128.044 70.1279 128.042 70.1028 128.038C69.8427 127.997 69.6652 127.753 69.7063 127.493L71.0535 118.967C71.0945 118.707 71.3373 118.531 71.5987 118.571C71.8588 118.612 72.0363 118.856 71.9951 119.116L70.6479 127.642C70.6109 127.876 70.4082 128.044 70.1777 128.044Z" fill="#161616"/>
<path d="M75.8789 140.722C75.8789 140.722 84.4129 137.201 82.4408 133.243C80.8383 130.028 74.2007 136.895 75.8789 140.722Z" fill="#8DC73F"/>
<path d="M75.7521 141.101C75.6514 141.101 75.5499 141.07 75.4638 141.004C75.2542 140.844 75.2136 140.545 75.373 140.336L80.2116 133.976C80.3708 133.766 80.67 133.725 80.8795 133.885C81.0891 134.044 81.1297 134.343 80.9703 134.553L76.1317 140.913C76.0381 141.036 75.8958 141.101 75.7521 141.101Z" fill="#161616"/>
<path d="M77.3008 158.258C77.3008 158.258 85.8347 154.737 83.8627 150.779C82.2602 147.564 75.6226 154.432 77.3008 158.258Z" fill="#8DC73F"/>
<path d="M77.174 158.638C77.0733 158.638 76.9718 158.606 76.8856 158.54C76.6761 158.381 76.6355 158.082 76.7949 157.872L81.6335 151.512C81.7927 151.303 82.092 151.262 82.3014 151.422C82.511 151.581 82.5516 151.88 82.3922 152.09L77.5536 158.45C77.46 158.573 77.3177 158.638 77.174 158.638Z" fill="#161616"/>
<path d="M68.6509 128.918C68.6509 128.918 59.4785 127.873 60.2891 123.525C60.9483 119.994 69.2151 124.778 68.6509 128.918Z" fill="#8DC73F"/>
<path d="M68.7455 129.266C68.6462 129.266 68.5459 129.235 68.4603 129.171L62.0627 124.382C61.852 124.225 61.8089 123.926 61.9668 123.715C62.1247 123.504 62.4235 123.461 62.6342 123.619L69.0318 128.408C69.2425 128.566 69.2856 128.864 69.1277 129.075C69.0339 129.2 68.8907 129.266 68.7455 129.266Z" fill="#161616"/>
<path d="M72.2475 137.233C72.2475 137.233 63.1442 138.768 62.7199 134.366C62.3755 130.79 71.6434 133.098 72.2475 137.233Z" fill="#8DC73F"/>
<path d="M72.3028 137.56C72.2468 137.56 72.1897 137.55 72.1341 137.529L64.6608 134.698C64.4147 134.605 64.2907 134.33 64.384 134.083C64.4772 133.837 64.7522 133.713 64.9987 133.807L72.4719 136.637C72.7181 136.731 72.8421 137.006 72.7488 137.252C72.6765 137.442 72.4952 137.56 72.3028 137.56Z" fill="#161616"/>
<path d="M74.6172 149.082C74.6172 149.082 65.5138 150.616 65.0895 146.215C64.7452 142.639 74.0131 144.947 74.6172 149.082Z" fill="#8DC73F"/>
<path d="M74.6727 149.409C74.6166 149.409 74.5594 149.399 74.5039 149.378L67.0309 146.547C66.7847 146.454 66.6608 146.178 66.754 145.932C66.8473 145.686 67.1228 145.563 67.3688 145.655L74.8418 148.486C75.088 148.579 75.2119 148.855 75.1187 149.101C75.0464 149.291 74.8651 149.409 74.6727 149.409Z" fill="#161616"/>
<path d="M74.117 162.418C74.117 162.418 67.9688 163.455 67.682 160.482C67.4496 158.067 73.7089 159.626 74.117 162.418Z" fill="#8DC73F"/>
<path d="M74.1543 162.794C74.0982 162.794 74.041 162.784 73.9855 162.763L68.9384 160.851C68.6922 160.758 68.5682 160.482 68.6615 160.236C68.7549 159.99 69.0303 159.867 69.2762 159.959L74.3234 161.871C74.5696 161.965 74.6935 162.24 74.6003 162.486C74.5278 162.676 74.3467 162.794 74.1543 162.794Z" fill="#161616"/>
<path d="M214.547 119.49L239.614 119.853L241.532 143.653C241.532 143.653 241.805 147.649 238.535 147.649C235.266 147.649 214.547 147.74 214.547 147.74C214.547 147.74 210.472 146.377 211.017 143.38C211.562 140.384 214.547 119.49 214.547 119.49Z" fill="#EAEFE8"/>
<path d="M214.547 148.243C214.495 148.243 214.445 148.221 214.396 148.205C214.351 148.19 213.292 147.825 212.291 147.072C210.894 146.02 210.291 144.713 210.548 143.299C211.085 140.345 214.045 119.661 214.075 119.452C214.109 119.217 214.31 119.069 214.547 119.069C214.549 119.069 214.552 119.069 214.554 119.069L239.621 119.404C239.867 119.408 240.069 119.584 240.089 119.829L242.007 143.621C242.014 143.718 242.145 145.861 240.927 147.165C240.329 147.805 239.525 148.141 238.535 148.141C235.304 148.141 214.756 148.243 214.549 148.243C214.548 148.243 214.548 148.243 214.547 148.243ZM214.959 119.972C214.536 122.932 211.984 140.729 211.487 143.466C211.057 145.829 214.124 147.075 214.629 147.263C216.073 147.256 235.408 147.172 238.535 147.172C239.259 147.172 239.812 146.957 240.227 146.514C241.164 145.515 241.058 143.703 241.057 143.684L239.174 120.323L214.959 119.972Z" fill="#161616"/>
<path d="M211.017 143.38C210.472 146.377 214.547 147.739 214.547 147.739C214.547 147.739 235.266 147.649 238.535 147.649C241.805 147.649 241.532 143.653 241.532 143.653C226.208 133.576 211.017 143.38 211.017 143.38Z" fill="#B2BCAF"/>
<path d="M214.547 148.243C214.495 148.243 214.445 148.221 214.396 148.205C214.351 148.19 213.292 147.825 212.291 147.072C210.894 146.02 210.291 144.713 210.548 143.299C210.595 143.04 210.843 142.866 211.103 142.913C211.362 142.96 211.534 143.208 211.487 143.467C211.058 145.822 214.125 147.074 214.629 147.263C216.078 147.257 235.408 147.173 238.535 147.173C239.258 147.173 239.812 146.957 240.227 146.514C241.163 145.515 241.058 143.703 241.057 143.685C241.039 143.422 241.238 143.195 241.5 143.178C241.765 143.161 241.99 143.358 242.008 143.62C242.014 143.711 242.145 145.857 240.927 147.162C240.329 147.801 239.524 148.139 238.535 148.139C235.304 148.139 214.756 148.243 214.549 148.243C214.548 148.243 214.548 148.243 214.547 148.243Z" fill="#161616"/>
<path d="M248.878 140.234H241.249C241.001 140.234 240.795 140.045 240.774 139.799L240.477 136.366C240.466 136.233 240.511 136.101 240.601 136.003C240.691 135.905 240.819 135.849 240.952 135.849H244.946L240.048 130.04C239.984 129.964 239.945 129.87 239.937 129.771L239.49 124.267C239.473 124.059 239.593 123.864 239.787 123.787C239.981 123.708 240.203 123.766 240.334 123.928L249.244 134.862C249.255 134.876 249.267 134.892 249.277 134.908C249.334 134.998 250.672 137.141 250.232 138.786C250.067 139.403 249.686 139.872 249.099 140.18C249.031 140.215 248.955 140.234 248.878 140.234ZM241.686 139.281H248.753C249.042 139.103 249.225 138.86 249.311 138.541C249.584 137.526 248.821 135.982 248.486 135.441L240.565 125.719L240.875 129.542L246.336 136.018C246.456 136.16 246.482 136.358 246.404 136.526C246.326 136.695 246.157 136.802 245.971 136.802H241.472L241.686 139.281Z" fill="#161616"/>
<path d="M230.529 134.741C230.383 134.741 230.239 134.674 230.145 134.547C229.989 134.335 230.034 134.036 230.246 133.88C235.117 130.292 236.777 121.568 235.737 117.372C235.547 116.604 235.088 115.294 234.154 115.153C230.685 114.633 227.264 119.702 227.229 119.754C227.083 119.973 226.787 120.032 226.569 119.886C226.349 119.74 226.29 119.445 226.436 119.225C226.589 118.995 230.23 113.601 234.296 114.21C235.073 114.327 236.115 114.93 236.663 117.142C237.79 121.692 236.071 130.773 230.811 134.648C230.726 134.711 230.627 134.741 230.529 134.741Z" fill="#161616"/>
<path d="M200.61 126.005C199.389 126.005 197.953 125.673 196.215 124.886C195.975 124.778 195.869 124.495 195.978 124.255C196.086 124.015 196.369 123.909 196.609 124.018C202.168 126.534 204.093 124.029 206.53 120.859C207.649 119.404 208.805 117.9 210.422 116.733C211.872 115.687 213.406 115.289 214.982 115.55C218.195 116.084 220.412 119.164 220.504 119.295C220.657 119.51 220.606 119.807 220.391 119.959C220.176 120.112 219.879 120.061 219.727 119.847C219.707 119.818 217.64 116.955 214.822 116.49C213.507 116.274 212.215 116.615 210.98 117.506C209.476 118.591 208.363 120.04 207.286 121.44C205.496 123.769 203.777 126.005 200.61 126.005Z" fill="#161616"/>
<path d="M232.753 131.072C232.753 131.072 226.706 135.29 229.338 142.081C229.338 142.081 236.277 139.842 232.753 131.072Z" fill="#8DC73F"/>
<path d="M194.851 118.262C194.851 118.262 198.951 124.39 205.792 121.89C205.792 121.89 203.689 114.909 194.851 118.262Z" fill="#8DC73F"/>
<path d="M209.53 118.402C209.53 118.402 203.746 122.975 206.78 129.597C206.78 129.597 213.572 126.946 209.53 118.402Z" fill="#8DC73F"/>
<path d="M223.819 126.168C223.819 126.168 230.018 130.16 235.301 125.145C235.301 125.145 230.594 119.577 223.819 126.168Z" fill="#8DC73F"/>
<path d="M236.087 121.917C236.087 121.917 233.088 128.653 238.85 133.108C238.85 133.109 243.636 127.607 236.087 121.917Z" fill="#8DC73F"/>
<path d="M215.328 115.884C215.328 115.884 212.656 110.724 207.079 112.08C207.079 112.08 208.112 117.732 215.328 115.884Z" fill="#8DC73F"/>
<path d="M240.929 117.913C240.929 117.913 239.272 113.993 235.123 114.665C235.123 114.665 235.555 118.851 240.929 117.913Z" fill="#8DC73F"/>
<path d="M227.616 118.202C229.248 118.202 230.571 116.878 230.571 115.246C230.571 113.613 229.248 112.29 227.616 112.29C225.983 112.29 224.66 113.613 224.66 115.246C224.66 116.878 225.983 118.202 227.616 118.202Z" fill="#946D42"/>
<path d="M233.717 112.324C235.368 112.324 236.707 110.985 236.707 109.334C236.707 107.683 235.368 106.345 233.717 106.345C232.066 106.345 230.728 107.683 230.728 109.334C230.728 110.985 232.066 112.324 233.717 112.324Z" fill="#946D42"/>
</svg>
