<svg width="176" height="189" viewBox="0 0 176 189" fill="none" xmlns="http://www.w3.org/2000/svg">
<path d="M15.9413 137.627L94.919 116.24C94.919 116.24 108.527 118.673 105.388 142.395L26.3529 170.588" fill="#161616"/>
<path d="M26.3528 171.255C26.0788 171.255 25.8219 171.085 25.7248 170.812C25.6011 170.465 25.7819 170.084 26.129 169.96L104.779 141.904C105.604 135.312 105.542 126.457 100.821 120.851C98.3295 117.893 95.5698 117.08 94.936 116.926L16.1154 138.271C15.7598 138.368 15.3938 138.157 15.2975 137.801C15.2012 137.446 15.4114 137.08 15.767 136.983L94.7448 115.596C94.8395 115.57 94.9392 115.566 95.0363 115.583C95.1849 115.61 98.7117 116.277 101.841 119.992C106.972 126.085 106.961 135.585 106.049 142.482C106.016 142.73 105.847 142.939 105.612 143.023L26.5769 171.216C26.503 171.243 26.4272 171.255 26.3528 171.255Z" fill="#161616"/>
<path d="M18.3094 172.549C27.9527 172.549 35.7701 164.731 35.7701 155.088C35.7701 145.445 27.9527 137.627 18.3094 137.627C8.66615 137.627 0.848755 145.445 0.848755 155.088C0.848755 164.731 8.66615 172.549 18.3094 172.549Z" fill="#DEE5DC"/>
<path d="M18.3094 173.215C8.31374 173.215 0.181885 165.084 0.181885 155.088C0.181885 145.092 8.31374 136.96 18.3094 136.96C28.3051 136.96 36.437 145.092 36.437 155.088C36.437 165.084 28.3051 173.215 18.3094 173.215ZM18.3094 138.294C9.04946 138.294 1.51568 145.828 1.51568 155.088C1.51568 164.348 9.04946 171.882 18.3094 171.882C27.5694 171.882 35.1032 164.348 35.1032 155.088C35.1032 145.828 27.5694 138.294 18.3094 138.294Z" fill="#161616"/>
<path d="M18.3094 160.057C21.0538 160.057 23.2786 157.832 23.2786 155.088C23.2786 152.343 21.0538 150.119 18.3094 150.119C15.565 150.119 13.3402 152.343 13.3402 155.088C13.3402 157.832 15.565 160.057 18.3094 160.057Z" fill="#EAEFE8"/>
<path d="M18.3095 160.724C15.2018 160.724 12.6735 158.195 12.6735 155.088C12.6735 151.98 15.2018 149.452 18.3095 149.452C21.4173 149.452 23.9456 151.98 23.9456 155.088C23.9456 158.195 21.4173 160.724 18.3095 160.724ZM18.3095 150.785C15.9372 150.785 14.0073 152.715 14.0073 155.088C14.0073 157.46 15.9372 159.39 18.3095 159.39C20.6818 159.39 22.6118 157.46 22.6118 155.088C22.6118 152.715 20.6818 150.785 18.3095 150.785Z" fill="#161616"/>
<path d="M49.8977 148.558L128.875 127.171C128.875 127.171 142.484 129.604 139.344 153.326L60.3095 181.519" fill="#161616"/>
<path d="M60.3096 182.187C60.0356 182.187 59.7788 182.016 59.6817 181.744C59.5579 181.396 59.7387 181.015 60.0858 180.891L138.735 152.835C139.56 146.243 139.499 137.388 134.778 131.782C132.286 128.824 129.527 128.011 128.893 127.857L50.0722 149.202C49.7169 149.299 49.3504 149.088 49.2543 148.732C49.1583 148.377 49.3683 148.011 49.7238 147.915L128.702 126.527C128.797 126.501 128.896 126.497 128.993 126.514C129.142 126.541 132.669 127.208 135.798 130.923C140.929 137.016 140.918 146.517 140.006 153.414C139.973 153.661 139.804 153.87 139.569 153.954L60.5337 182.147C60.4595 182.174 60.384 182.187 60.3096 182.187Z" fill="#161616"/>
<path d="M52.2659 183.479C61.9092 183.479 69.7266 175.662 69.7266 166.019C69.7266 156.375 61.9092 148.558 52.2659 148.558C42.6227 148.558 34.8053 156.375 34.8053 166.019C34.8053 175.662 42.6227 183.479 52.2659 183.479Z" fill="#DEE5DC"/>
<path d="M52.266 184.146C42.2703 184.146 34.1384 176.015 34.1384 166.019C34.1384 156.023 42.2703 147.891 52.266 147.891C62.2617 147.891 70.3935 156.023 70.3935 166.019C70.3935 176.015 62.2617 184.146 52.266 184.146ZM52.266 149.225C43.006 149.225 35.4722 156.758 35.4722 166.019C35.4722 175.279 43.006 182.812 52.266 182.812C61.5259 182.812 69.0597 175.279 69.0597 166.019C69.0597 156.758 61.5259 149.225 52.266 149.225Z" fill="#161616"/>
<path d="M52.266 170.988C55.0104 170.988 57.2352 168.763 57.2352 166.019C57.2352 163.274 55.0104 161.049 52.266 161.049C49.5216 161.049 47.2969 163.274 47.2969 166.019C47.2969 168.763 49.5216 170.988 52.266 170.988Z" fill="#EAEFE8"/>
<path d="M52.2661 171.655C49.1583 171.655 46.63 169.126 46.63 166.019C46.63 162.911 49.1583 160.383 52.2661 160.383C55.3738 160.383 57.9021 162.911 57.9021 166.019C57.9021 169.126 55.3738 171.655 52.2661 171.655ZM52.2661 161.717C49.8938 161.717 47.9638 163.647 47.9638 166.019C47.9638 168.391 49.8938 170.321 52.2661 170.321C54.6383 170.321 56.5683 168.391 56.5683 166.019C56.5683 163.647 54.6383 161.717 52.2661 161.717Z" fill="#161616"/>
<path d="M84.552 152.977L163.53 131.59C163.53 131.59 177.138 134.023 173.998 157.745L94.9638 185.938" fill="#161616"/>
<path d="M94.9639 186.606C94.6899 186.606 94.433 186.435 94.3359 186.162C94.2121 185.815 94.393 185.434 94.74 185.31L173.39 157.254C174.551 147.992 173.206 140.743 169.493 136.275C167.003 133.277 164.187 132.436 163.545 132.277L84.7267 153.621C84.3709 153.718 84.0052 153.507 83.9089 153.152C83.8126 152.796 84.0228 152.43 84.3784 152.334L163.356 130.946C163.451 130.921 163.551 130.916 163.648 130.934C163.796 130.96 167.323 131.627 170.452 135.342C175.584 141.436 175.573 150.936 174.66 157.833C174.627 158.081 174.459 158.289 174.223 158.373L95.1877 186.567C95.1138 186.593 95.038 186.606 94.9639 186.606Z" fill="#161616"/>
<path d="M86.9202 187.898C96.5635 187.898 104.381 180.081 104.381 170.438C104.381 160.795 96.5635 152.977 86.9202 152.977C77.277 152.977 69.4596 160.795 69.4596 170.438C69.4596 180.081 77.277 187.898 86.9202 187.898Z" fill="#DEE5DC"/>
<path d="M86.9203 188.565C76.9246 188.565 68.7927 180.434 68.7927 170.438C68.7927 160.442 76.9246 152.31 86.9203 152.31C96.916 152.31 105.048 160.442 105.048 170.438C105.048 180.434 96.9157 188.565 86.9203 188.565ZM86.9203 153.644C77.6603 153.644 70.1265 161.178 70.1265 170.438C70.1265 179.698 77.6603 187.232 86.9203 187.232C96.1805 187.232 103.714 179.698 103.714 170.438C103.714 161.178 96.1805 153.644 86.9203 153.644Z" fill="#161616"/>
<path d="M86.9203 175.407C89.6647 175.407 91.8895 173.182 91.8895 170.438C91.8895 167.693 89.6647 165.469 86.9203 165.469C84.1759 165.469 81.9512 167.693 81.9512 170.438C81.9512 173.182 84.1759 175.407 86.9203 175.407Z" fill="#EAEFE8"/>
<path d="M86.9202 176.074C83.8125 176.074 81.2842 173.546 81.2842 170.438C81.2842 167.33 83.8125 164.802 86.9202 164.802C90.028 164.802 92.5563 167.33 92.5563 170.438C92.5563 173.546 90.028 176.074 86.9202 176.074ZM86.9202 166.136C84.548 166.136 82.618 168.066 82.618 170.438C82.618 172.81 84.548 174.74 86.9202 174.74C89.2925 174.74 91.2225 172.81 91.2225 170.438C91.2225 168.066 89.2925 166.136 86.9202 166.136Z" fill="#161616"/>
<path d="M43.869 110.495L124.387 95.9432C124.387 95.9432 137.737 99.5322 132.579 122.898L51.4223 144.226" fill="#161616"/>
<path d="M51.422 144.893C51.1262 144.893 50.856 144.695 50.7773 144.396C50.6836 144.04 50.8965 143.675 51.2529 143.581L132.015 122.357C133.964 113.229 133.244 105.892 129.927 101.121C127.703 97.9219 124.969 96.8426 124.343 96.6292L43.9877 111.151C43.626 111.218 43.2784 110.976 43.2128 110.613C43.1472 110.251 43.3881 109.904 43.7503 109.839L124.268 95.2871C124.365 95.2698 124.465 95.2735 124.56 95.2994C124.706 95.3383 128.162 96.3051 130.962 100.274C135.554 106.784 134.73 116.249 133.231 123.042C133.177 123.286 132.991 123.48 132.749 123.543L51.5919 144.871C51.5351 144.886 51.478 144.893 51.422 144.893Z" fill="#161616"/>
<path d="M44.7349 145.555C54.3782 145.555 62.1956 137.738 62.1956 128.094C62.1956 118.451 54.3782 110.634 44.7349 110.634C35.0917 110.634 27.2743 118.451 27.2743 128.094C27.2743 137.738 35.0917 145.555 44.7349 145.555Z" fill="#DEE5DC"/>
<path d="M44.7547 146.223C44.234 146.223 43.7056 146.2 43.1841 146.155C33.2252 145.3 25.8189 136.502 26.6739 126.543C27.0647 121.992 29.1363 117.79 32.5073 114.711C35.8586 111.651 40.194 109.965 44.7152 109.965C45.236 109.965 45.7644 109.988 46.2859 110.033C56.2448 110.888 63.6513 119.686 62.7961 129.645C62.4053 134.196 60.3337 138.398 56.9624 141.477C53.6114 144.537 49.2757 146.223 44.7547 146.223ZM44.7152 111.3C40.5279 111.3 36.5119 112.861 33.4068 115.697C30.2839 118.548 28.3648 122.441 28.0026 126.658C27.2103 135.884 34.0719 144.034 43.298 144.826C43.7816 144.868 44.2716 144.889 44.7545 144.889C48.9418 144.889 52.9578 143.328 56.0629 140.492C59.1858 137.64 61.1049 133.747 61.4671 129.531C62.2594 120.305 55.3981 112.154 46.1717 111.362C45.6881 111.321 45.1981 111.3 44.7152 111.3Z" fill="#161616"/>
<path d="M44.7349 133.064C47.4793 133.064 49.7041 130.839 49.7041 128.094C49.7041 125.35 47.4793 123.125 44.7349 123.125C41.9905 123.125 39.7657 125.35 39.7657 128.094C39.7657 130.839 41.9905 133.064 44.7349 133.064Z" fill="#EAEFE8"/>
<path d="M44.7408 133.73C44.5789 133.73 44.4145 133.723 44.2526 133.71C42.7526 133.581 41.3927 132.876 40.4233 131.724C39.4539 130.572 38.9906 129.112 39.1194 127.612C39.3675 124.722 41.8315 122.458 44.7291 122.458C44.891 122.458 45.0553 122.465 45.2172 122.479C46.7172 122.608 48.0769 123.313 49.0465 124.465C50.0162 125.616 50.4793 127.077 50.3504 128.576C50.1021 131.466 47.6381 133.73 44.7408 133.73ZM44.7291 123.792C42.5182 123.792 40.6378 125.52 40.4484 127.726C40.3502 128.871 40.7037 129.986 41.4437 130.865C42.1839 131.744 43.2221 132.282 44.3668 132.381C44.4911 132.392 44.617 132.397 44.7408 132.397C46.9517 132.397 48.8318 130.669 49.0215 128.463C49.1196 127.318 48.7662 126.203 48.0262 125.324C47.2859 124.445 46.248 123.907 45.1031 123.808C44.9787 123.797 44.8528 123.792 44.7291 123.792Z" fill="#161616"/>
<path d="M68.5481 86.7351L149.842 77.4447C149.842 77.4447 162.93 81.8932 156.266 104.874L73.8945 120.885" fill="#161616"/>
<path d="M73.8934 121.552C73.5808 121.552 73.3015 121.331 73.2396 121.013C73.1694 120.652 73.4055 120.301 73.767 120.231L155.737 104.298C158.275 95.3155 158.033 87.9471 155.033 82.9712C153.022 79.6341 150.364 78.3795 149.754 78.1261L68.6239 87.3975C68.2587 87.4429 67.9274 87.1767 67.8855 86.8109C67.8436 86.4449 68.1064 86.1144 68.4724 86.0726L149.766 76.7824C149.863 76.7712 149.963 76.7816 150.056 76.8134C150.199 76.8622 153.586 78.0509 156.121 82.1936C160.28 88.9882 158.844 98.3789 156.906 105.06C156.836 105.3 156.638 105.482 156.393 105.529L74.0212 121.54C73.9785 121.548 73.9356 121.552 73.8934 121.552Z" fill="#161616"/>
<path d="M68.2689 121.814C77.9121 121.814 85.7295 113.997 85.7295 104.353C85.7295 94.7102 77.9121 86.8928 68.2689 86.8928C58.6256 86.8928 50.8082 94.7102 50.8082 104.353C50.8082 113.997 58.6256 121.814 68.2689 121.814Z" fill="#DEE5DC"/>
<path d="M68.2904 122.483C67.3788 122.483 66.4559 122.413 65.5478 122.276C60.7608 121.549 56.5431 119.002 53.6717 115.102C50.8004 111.203 49.6197 106.42 50.3466 101.633C51.0015 97.3199 53.1884 93.3881 56.5045 90.5616C59.7869 87.7641 63.9574 86.2233 68.2474 86.2233C69.1589 86.2233 70.0816 86.2932 70.9897 86.4308C80.872 87.9313 87.6911 97.1921 86.1906 107.074C85.536 111.387 83.3491 115.318 80.033 118.145C76.7506 120.943 72.5804 122.483 68.2904 122.483ZM68.2474 87.5573C64.274 87.5573 60.4111 88.985 57.3695 91.5768C54.2976 94.1951 52.2718 97.8374 51.6652 101.833C50.9919 106.268 52.0859 110.699 54.7457 114.312C57.4056 117.924 61.313 120.284 65.7479 120.957C66.59 121.085 67.4453 121.15 68.2904 121.15C72.2635 121.15 76.1266 119.722 79.168 117.13C82.2397 114.512 84.2654 110.87 84.872 106.874C86.2621 97.7192 79.9448 89.14 70.7893 87.7499C69.9475 87.6219 69.0922 87.5573 68.2474 87.5573Z" fill="#161616"/>
<path d="M68.2689 109.323C71.0134 109.323 73.2383 107.098 73.2383 104.353C73.2383 101.609 71.0134 99.384 68.2689 99.384C65.5243 99.384 63.2994 101.609 63.2994 104.353C63.2994 107.098 65.5243 109.323 68.2689 109.323Z" fill="#EAEFE8"/>
<path d="M68.2757 109.99C67.9922 109.99 67.7051 109.968 67.4226 109.925C64.3504 109.459 62.2302 106.58 62.6965 103.507C63.1116 100.776 65.5047 98.7169 68.2632 98.7169C68.5465 98.7169 68.833 98.7385 69.1147 98.7812C72.1872 99.248 74.3074 102.127 73.8411 105.2C73.4266 107.931 71.0338 109.99 68.2757 109.99ZM68.2632 100.051C66.1582 100.051 64.332 101.623 64.0151 103.708C63.6592 106.053 65.2776 108.251 67.6227 108.607C67.8393 108.64 68.0586 108.656 68.2755 108.656C70.3802 108.656 72.2059 107.084 72.5223 105C72.8781 102.655 71.2597 100.457 68.9144 100.1C68.6988 100.067 68.4795 100.051 68.2632 100.051Z" fill="#161616"/>
<path d="M77.5929 119.1L158.111 104.549C158.111 104.549 171.461 108.138 166.304 131.504L85.1467 152.832" fill="#161616"/>
<path d="M85.1462 153.499C84.8503 153.499 84.5801 153.301 84.5014 153.002C84.4078 152.645 84.6207 152.281 84.9771 152.187L165.738 130.963C167.124 124.465 167.821 115.638 163.596 109.649C161.367 106.488 158.687 105.442 158.069 105.234L77.7114 119.757C77.3496 119.823 77.0021 119.582 76.9364 119.219C76.8708 118.857 77.1117 118.51 77.4742 118.444L157.992 103.893C158.089 103.876 158.189 103.879 158.284 103.905C158.43 103.944 161.887 104.911 164.686 108.88C169.278 115.39 168.454 124.854 166.955 131.648C166.901 131.892 166.715 132.085 166.473 132.149L85.3158 153.477C85.2593 153.492 85.2022 153.499 85.1462 153.499Z" fill="#161616"/>
<path d="M78.4587 154.16C88.1019 154.16 95.9193 146.343 95.9193 136.7C95.9193 127.057 88.1019 119.239 78.4587 119.239C68.8154 119.239 60.998 127.057 60.998 136.7C60.998 146.343 68.8154 154.16 78.4587 154.16Z" fill="#DEE5DC"/>
<path d="M78.4787 154.829C77.9577 154.829 77.4293 154.806 76.9075 154.761C72.0832 154.346 67.7091 152.078 64.5907 148.375C61.4723 144.67 59.9833 139.973 60.3976 135.149C60.7884 130.598 62.86 126.396 66.231 123.317C69.5821 120.257 73.9177 118.571 78.4387 118.571C78.9594 118.571 79.4879 118.594 80.0094 118.639C84.8337 119.053 89.208 121.321 92.3261 125.025C95.4445 128.73 96.9336 133.427 96.5193 138.251C96.1285 142.802 94.0568 147.004 90.6861 150.083C87.3353 153.143 82.9997 154.829 78.4787 154.829ZM78.439 119.905C74.2514 119.905 70.2356 121.467 67.1305 124.302C64.0076 127.154 62.0886 131.046 61.7266 135.263C61.3427 139.732 62.7224 144.083 65.6111 147.515C68.4998 150.947 72.5524 153.048 77.0217 153.432C77.5056 153.474 77.9956 153.495 78.4787 153.495C82.666 153.495 86.682 151.933 89.7868 149.098C92.9095 146.246 94.8286 142.353 95.1908 138.137C95.5747 133.667 94.195 129.316 91.3063 125.884C88.4176 122.453 84.365 120.352 79.8957 119.968C79.4118 119.926 78.9218 119.905 78.439 119.905Z" fill="#161616"/>
<path d="M78.4588 141.669C81.2032 141.669 83.428 139.444 83.428 136.7C83.428 133.955 81.2032 131.731 78.4588 131.731C75.7144 131.731 73.4896 133.955 73.4896 136.7C73.4896 139.444 75.7144 141.669 78.4588 141.669Z" fill="#EAEFE8"/>
<path d="M78.4647 142.336C78.3028 142.336 78.1384 142.329 77.9765 142.315C76.4765 142.186 75.1166 141.481 74.1472 140.33C73.1778 139.178 72.7144 137.718 72.8433 136.218C73.0916 133.328 75.5554 131.064 78.4529 131.064C78.6149 131.064 78.7789 131.071 78.9411 131.085C82.0374 131.351 84.3403 134.086 84.0743 137.182C83.8262 140.072 81.3622 142.336 78.4647 142.336ZM78.4529 132.397C76.242 132.397 74.3617 134.126 74.1723 136.332C74.0741 137.477 74.4276 138.591 75.1675 139.47C75.9078 140.35 76.946 140.888 78.0907 140.986C78.215 140.997 78.3409 141.002 78.4647 141.002C80.6756 141.002 82.5557 139.274 82.7453 137.068C82.9481 134.705 81.1904 132.617 78.8269 132.414C78.7026 132.403 78.5767 132.397 78.4529 132.397Z" fill="#161616"/>
<path d="M99.8811 156.155C99.6477 156.155 99.4335 156.001 99.3676 155.765C99.2881 155.481 99.4537 155.187 99.7376 155.107L167.345 136.186C167.629 136.106 167.923 136.272 168.002 136.556C168.082 136.839 167.916 137.134 167.632 137.213L100.025 156.135C99.9771 156.149 99.9286 156.155 99.8811 156.155Z" fill="#AFB7AC"/>
<path d="M103.349 160.957C103.115 160.957 102.901 160.803 102.835 160.567C102.756 160.283 102.922 159.989 103.205 159.909L170.813 140.988C171.097 140.908 171.391 141.074 171.47 141.358C171.55 141.641 171.384 141.936 171.1 142.015L103.493 160.937C103.445 160.95 103.396 160.957 103.349 160.957Z" fill="#AFB7AC"/>
<path d="M106.817 167.626C106.587 167.626 106.374 167.476 106.306 167.244C106.222 166.961 106.383 166.664 106.665 166.58L172.138 147.125C172.42 147.041 172.718 147.202 172.801 147.485C172.885 147.767 172.725 148.064 172.442 148.148L106.969 167.603C106.918 167.618 106.867 167.626 106.817 167.626Z" fill="#AFB7AC"/>
<path d="M106.017 175.362C105.793 175.362 105.585 175.22 105.511 174.996C105.418 174.717 105.569 174.414 105.849 174.322L172.389 152.199C172.668 152.105 172.971 152.258 173.063 152.537C173.156 152.817 173.005 153.119 172.725 153.211L106.185 175.334C106.129 175.353 106.073 175.362 106.017 175.362Z" fill="#AFB7AC"/>
<path d="M93.2574 121.938C93.0069 121.938 92.7837 121.761 92.7343 121.506C92.6783 121.216 92.8674 120.937 93.1566 120.88L159.472 108.022C159.762 107.967 160.042 108.154 160.098 108.444C160.154 108.733 159.965 109.013 159.676 109.069L93.3599 121.928C93.3252 121.935 93.291 121.938 93.2574 121.938Z" fill="#AFB7AC"/>
<path d="M96.2075 126.814C95.9573 126.814 95.734 126.637 95.6844 126.382C95.6284 126.093 95.8172 125.813 96.1067 125.757L162.422 112.898C162.712 112.842 162.992 113.03 163.048 113.32C163.104 113.609 162.915 113.889 162.626 113.945L96.3099 126.805C96.2755 126.811 96.2414 126.814 96.2075 126.814Z" fill="#AFB7AC"/>
<path d="M99.0116 133.481C98.7646 133.481 98.5429 133.308 98.4901 133.057C98.4293 132.769 98.6139 132.486 98.9022 132.425L163.213 118.888C163.5 118.827 163.784 119.012 163.845 119.3C163.906 119.588 163.721 119.871 163.433 119.932L99.1221 133.469C99.085 133.477 99.0482 133.481 99.0116 133.481Z" fill="#AFB7AC"/>
<path d="M97.6395 140.837C97.3994 140.837 97.1812 140.674 97.1217 140.43C97.0518 140.144 97.227 139.855 97.5133 139.785L163.056 123.773C163.342 123.704 163.631 123.879 163.7 124.165C163.771 124.451 163.595 124.74 163.309 124.81L97.7664 140.822C97.724 140.832 97.6816 140.837 97.6395 140.837Z" fill="#AFB7AC"/>
<path d="M87.6526 91.9119C87.3861 91.9119 87.1558 91.7126 87.1236 91.4413C87.0886 91.1487 87.2975 90.8832 87.5904 90.8483L149.587 83.4631C149.878 83.4305 150.145 83.637 150.18 83.9299C150.215 84.2226 150.006 84.488 149.713 84.5229L87.7163 91.9081C87.695 91.9105 87.6734 91.9119 87.6526 91.9119Z" fill="#AFB7AC"/>
<path d="M110.682 94.7941C110.419 94.7941 110.19 94.5997 110.154 94.3321C110.115 94.04 110.319 93.7711 110.612 93.7319L151.97 88.158C152.262 88.1206 152.53 88.3234 152.57 88.6155C152.609 88.9076 152.404 89.1765 152.112 89.2157L110.754 94.7896C110.73 94.7925 110.706 94.7941 110.682 94.7941Z" fill="#AFB7AC"/>
<path d="M92.1791 102.94C91.9164 102.94 91.6873 102.745 91.6512 102.478C91.6118 102.186 91.8164 101.917 92.1085 101.878L152.303 93.7322C152.594 93.6922 152.864 93.897 152.903 94.1891C152.943 94.4812 152.738 94.7501 152.446 94.7896L92.2514 102.935C92.2272 102.938 92.2029 102.94 92.1791 102.94Z" fill="#AFB7AC"/>
<path d="M90.4182 109.628C90.1627 109.628 89.9365 109.444 89.8927 109.183C89.8439 108.893 90.0397 108.618 90.3305 108.568L151.827 98.2247C152.116 98.1756 152.393 98.3719 152.442 98.6624C152.491 98.9532 152.295 99.2282 152.004 99.2773L90.5073 109.621C90.4774 109.626 90.4478 109.628 90.4182 109.628Z" fill="#AFB7AC"/>
<path d="M146.133 76.1142C145.443 76.1142 144.7 76.0001 143.924 75.7747C143.878 75.7611 143.833 75.7426 143.79 75.7192L131.888 69.2007C131.491 68.9987 121.759 63.8194 121.672 44.8249C121.671 44.5722 121.813 44.3407 122.039 44.2265C122.264 44.1126 122.535 44.1358 122.738 44.2868L138.24 55.8212V32.7276C138.24 32.451 138.411 32.2029 138.67 32.1045C138.929 32.0061 139.221 32.0773 139.405 32.284C141.366 34.484 147.153 40.1937 150.331 40.1937C150.822 40.1937 151.212 40.0523 151.522 39.7615C151.716 39.5791 151.999 39.5297 152.243 39.6356C152.487 39.7412 152.645 39.9816 152.645 40.2475V66.9167C152.589 70.1058 151.156 76.1142 146.133 76.1142ZM144.366 74.5137C144.994 74.6908 145.589 74.7804 146.133 74.7804C151.115 74.7804 151.311 66.9834 151.311 66.905V41.3877C151.045 41.4808 150.681 41.5275 150.331 41.5275C146.914 41.5275 141.845 36.7464 139.574 34.4122V57.1483C139.574 57.4004 139.432 57.6311 139.207 57.7442C138.981 57.8571 138.711 57.8336 138.509 57.6831L123.03 46.1669C123.192 51.2823 124.207 57.9952 127.801 63.3125C130.135 66.7657 132.49 68.0099 132.513 68.0221L144.366 74.5137Z" fill="#161616"/>
<path d="M141.308 35.5238C140.94 35.5238 140.641 35.2253 140.641 34.8569V24.9772C140.046 23.7712 137.243 17.7481 139.356 15.4033C141.449 13.0809 144.539 12.3393 144.669 12.3086C144.894 12.2564 145.129 12.3238 145.292 12.4868C145.455 12.6498 145.523 12.8856 145.47 13.1102C145.453 13.1841 145.11 14.615 144.3 15.848C145.109 16.2716 146.101 17.2549 146.337 19.5362C146.374 19.9024 146.108 20.2303 145.742 20.2679C145.375 20.3068 145.048 20.0398 145.01 19.6733C144.725 16.9206 143.181 16.8609 143.165 16.8606C142.899 16.8555 142.661 16.6928 142.56 16.4461C142.459 16.1993 142.515 15.9165 142.702 15.7263C143.156 15.2641 143.511 14.6065 143.761 14.0162C142.782 14.4131 141.397 15.1304 140.347 16.2964C139.131 17.6451 140.656 22.0554 141.903 24.5184C141.95 24.6121 141.975 24.715 141.975 24.8199V34.8569C141.975 35.2253 141.677 35.5238 141.308 35.5238Z" fill="#161616"/>
<path d="M149.578 38.9916C149.209 38.9916 148.911 38.6931 148.911 38.3247V28.3082C148.911 28.1343 148.979 27.9673 149.1 27.8427L153.287 23.5479C153.543 23.2841 153.966 23.279 154.23 23.5359C154.493 23.793 154.499 24.2153 154.242 24.4789L150.244 28.5795V38.3247C150.244 38.6931 149.946 38.9916 149.578 38.9916Z" fill="#161616"/>
<path d="M167.006 27.1914C163.402 27.1914 158.962 24.9263 158.57 24.7225L145.332 18.8002C144.995 18.6498 144.845 18.2552 144.995 17.9191C145.146 17.583 145.54 17.4323 145.876 17.5825L159.133 23.513C159.146 23.5187 159.158 23.5248 159.17 23.5312C159.232 23.5627 165.274 26.6971 168.51 25.6519C169.213 25.4246 169.704 25.017 170.01 24.4051C170.16 24.1042 170.164 23.7523 170.022 23.3295C168.805 19.7096 158.318 13.8719 154.379 11.9283C147.99 8.52124 138.261 4.62951 136.577 6.61339C136.107 7.16664 135.92 7.76552 136.004 8.44442C136.293 10.7631 139.522 13.0892 139.555 13.1124C139.855 13.3261 139.925 13.7425 139.711 14.0423C139.497 14.3424 139.082 14.4123 138.782 14.1995C138.629 14.0912 135.044 11.5129 134.681 8.61194C134.548 7.55558 134.844 6.59285 135.559 5.74989C136.941 4.12293 140.573 4.49933 146.662 6.90255C150.951 8.59513 154.948 10.7204 154.988 10.7415C155.568 11.0272 169.644 18.0221 171.286 22.9043C171.543 23.6702 171.515 24.3757 171.202 25.0016C170.734 25.9376 169.966 26.5834 168.918 26.9214C168.332 27.1111 167.684 27.1911 167.006 27.1914Z" fill="#161616"/>
<path d="M170.793 23.7427C170.541 23.7427 170.3 23.5987 170.187 23.3546C166.546 15.4508 160.059 10.1386 150.906 7.56517C144.033 5.63304 138.156 6.06012 138.097 6.06439C137.726 6.0924 137.409 5.81844 137.381 5.45138C137.352 5.08432 137.626 4.76341 137.993 4.7346C138.241 4.7154 144.129 4.28325 151.224 6.269C157.803 8.11069 166.643 12.473 171.398 22.7965C171.553 23.131 171.406 23.5272 171.072 23.6811C170.981 23.723 170.887 23.7427 170.793 23.7427Z" fill="#161616"/>
<path d="M166.589 17.0249C166.461 17.0249 166.331 16.9878 166.216 16.9105C165.911 16.7043 165.831 16.2895 166.037 15.9843C166.058 15.9539 168.138 12.8005 167.34 9.34015C166.827 7.11298 165.236 5.2102 162.611 3.68434C158.744 1.4361 155.131 1.13787 151.872 2.7979C149.436 4.03886 148.129 5.93978 148.115 5.95899C147.909 6.26389 147.494 6.34312 147.189 6.13665C146.884 5.92991 146.805 5.5151 147.012 5.2102C147.071 5.12323 153.033 -3.42583 163.281 2.53141C166.243 4.2528 168.047 6.44796 168.643 9.05472C169.565 13.0862 167.242 16.5848 167.142 16.7315C167.013 16.9225 166.803 17.0249 166.589 17.0249Z" fill="#161616"/>
<path d="M167.839 14.1597C167.617 14.1597 167.4 14.049 167.273 13.8468C162.371 6.01928 149.376 4.38859 149.245 4.37285C148.879 4.32937 148.618 3.99779 148.662 3.63206C148.705 3.2666 149.037 3.00571 149.402 3.0484C149.542 3.06493 152.868 3.46961 156.88 4.89916C162.239 6.80888 166.224 9.65813 168.404 13.1385C168.599 13.4506 168.505 13.8622 168.193 14.0578C168.082 14.1269 167.96 14.1597 167.839 14.1597Z" fill="#161616"/>
<path d="M151.884 40.9145C151.71 40.9145 151.536 40.8467 151.405 40.712C151.149 40.4479 151.155 40.0256 151.419 39.769C151.855 39.3462 152.044 38.8975 151.997 38.3973C151.864 36.9729 149.926 35.3987 149.191 34.9124C148.884 34.7091 148.799 34.2957 149.002 33.9884C149.204 33.6813 149.618 33.5968 149.925 33.7987C150.25 34.0129 153.106 35.9576 153.325 38.2709C153.41 39.1741 153.072 40.023 152.349 40.7261C152.219 40.852 152.051 40.9145 151.884 40.9145Z" fill="#161616"/>
<path d="M111.844 31.1361C110.973 31.1361 110.252 30.6783 110.157 30.6159C109.85 30.4124 109.767 29.9986 109.97 29.6916C110.173 29.3853 110.585 29.3013 110.892 29.5024C111.071 29.6182 111.636 29.8919 112.091 29.7719C112.351 29.7036 112.562 29.5075 112.737 29.1727C112.908 28.8462 113.31 28.7203 113.637 28.8905C113.963 29.0612 114.09 29.464 113.919 29.7905C113.476 30.6388 112.859 30.9517 112.419 31.0646C112.223 31.1153 112.03 31.1361 111.844 31.1361Z" fill="#161616"/>
<path d="M121.612 29.5079C120.741 29.5079 120.02 29.0501 119.926 28.9877C119.619 28.7842 119.535 28.3704 119.738 28.0634C119.942 27.7572 120.353 27.6731 120.66 27.8743C120.84 27.9906 121.404 28.264 121.86 28.1437C122.119 28.0754 122.33 27.8793 122.505 27.5446C122.676 27.218 123.079 27.0919 123.405 27.2623C123.732 27.4331 123.858 27.8359 123.688 28.1624C123.244 29.0107 122.627 29.3236 122.187 29.4367C121.992 29.4871 121.798 29.5079 121.612 29.5079Z" fill="#161616"/>
<path d="M116.31 42.5321C114.794 42.5321 113.136 42.3497 111.34 41.985C108.173 41.3413 105.794 40.3623 105.694 40.321C105.354 40.1799 105.192 39.7899 105.333 39.4495C105.474 39.1096 105.864 38.9474 106.204 39.0886C106.297 39.127 115.543 42.8968 121.251 40.2503C125.727 38.1754 122.53 28.1272 120.92 24.4302C120.773 24.0925 120.928 23.6995 121.265 23.5526C121.603 23.4048 121.996 23.5598 122.143 23.8977C122.4 24.4892 128.375 38.4182 121.812 41.4606C120.273 42.1749 118.432 42.5321 116.31 42.5321Z" fill="#161616"/>
<path d="M102.925 43.6279C102.597 43.6279 102.312 43.3865 102.265 43.0525L101.185 35.2533C99.7365 35.2413 98.4532 34.7371 97.6716 33.852C97.105 33.2104 96.5154 32.0476 96.9249 30.1513C97.1735 29.0005 97.842 28.4675 98.359 28.2234C100.2 27.3546 102.927 28.7078 103.232 28.8652C103.559 29.0341 103.687 29.4361 103.519 29.7634C103.35 30.0904 102.949 30.2185 102.621 30.051C101.953 29.7082 99.9867 28.9284 98.9275 29.43C98.6967 29.5391 98.3734 29.7618 98.2288 30.4324C97.9946 31.5176 98.1434 32.3712 98.6714 32.9688C99.2865 33.6655 100.422 34.0129 101.704 33.8984C102.057 33.8643 102.375 34.1188 102.424 34.4711L103.587 42.8692C103.637 43.2339 103.382 43.5708 103.017 43.6212C102.986 43.6257 102.955 43.6279 102.925 43.6279Z" fill="#161616"/>
<path d="M105.949 32.4561H107.112L105.949 24.2031L95.4832 16.1841C95.4832 16.1841 90.1339 21.0911 92.925 28.8908C95.7158 36.6911 102.001 36.2867 102.001 36.2867C102.001 36.2867 103.256 34.6555 101.763 34.5616C100.238 34.4663 97.4543 33.987 97.5765 30.3332C97.6917 26.8854 104.321 28.7214 105.949 32.4561Z" fill="#161616"/>
<path d="M96.4135 15.2841L107.112 24.1644C107.112 24.1644 118.625 24.0057 122.346 22.2614L123.625 25.5177C123.625 25.5177 129.091 16.9121 122.346 11.2139C115.601 5.51591 103.391 2.14329 96.4135 15.2841Z" fill="#161616"/>
<path d="M89.2036 100.082C89.0398 100.082 88.8805 100.022 88.7568 99.9104C88.6039 99.7725 88.5234 99.5716 88.5386 99.3665L91.6308 57.1152C91.6487 56.4827 92.1558 44.1676 102.896 43.6901C102.989 43.6855 103.077 43.701 103.159 43.7309C103.335 43.6655 103.535 43.6759 103.709 43.7698L112.536 48.5504L119.001 42.9231C119.191 42.7572 119.459 42.7132 119.693 42.8095L121.949 43.7394C121.971 43.7485 121.993 43.7586 122.014 43.7698C122.325 43.9387 129.627 48.0067 130.106 57.1133C130.567 65.8731 130.111 92.0165 130.106 92.2793C130.101 92.598 129.87 92.8683 129.556 92.9243L89.3204 100.072C89.2815 100.079 89.2425 100.082 89.2036 100.082ZM102.993 45.0199C102.98 45.0212 102.968 45.022 102.955 45.0225C98.9048 45.2028 95.9974 47.2662 94.3141 51.1556C93.0228 54.1392 92.9641 57.128 92.9635 57.1579C92.9635 57.171 92.963 57.1843 92.9619 57.1971L89.9313 98.6086L128.782 91.707C128.845 87.8828 129.195 65.1918 128.774 57.1835C128.349 49.1077 121.88 45.2311 121.403 44.9572L119.566 44.1998L119.514 44.2447C119.66 44.3972 119.731 44.6162 119.686 44.8385L117.767 54.2582C117.719 54.4932 117.549 54.6842 117.321 54.7589C117.093 54.8336 116.843 54.7803 116.665 54.6191L112.755 51.0726L109.823 55.5376C109.694 55.7337 109.469 55.8444 109.238 55.838C109.003 55.8281 108.791 55.696 108.679 55.4898L102.993 45.0199ZM105.05 46.013L109.319 53.8738L112.007 49.7807L105.05 46.013ZM113.236 49.7089L116.693 52.8441L118.215 45.376L113.236 49.7089Z" fill="#161616"/>
<path d="M105.696 95.1442H100.361V44.7269H103.644L105.696 48.6387V95.1442Z" fill="#946D42"/>
<path d="M113.854 79.9878C113.499 79.9878 113.203 79.7074 113.188 79.3487L111.958 50.0824C111.943 49.7145 112.229 49.4037 112.597 49.388C112.961 49.3835 113.275 49.6585 113.291 50.0266L114.521 79.2929C114.536 79.6608 114.25 79.9715 113.883 79.9873C113.873 79.9875 113.864 79.9878 113.854 79.9878Z" fill="#161616"/>
<path d="M124.636 95.1443H119.034V44.8217L120.248 43.4263L124.636 46.6823V95.1443Z" fill="#946D42"/>
<path d="M89.1569 99.4774V113.665C89.1569 113.665 90.9361 123.201 99.7392 120.875C108.542 118.549 119.049 114.13 119.049 114.13C119.049 114.13 125.262 111.339 127.82 105.292C130.379 99.245 129.479 92.2677 129.479 92.2677L89.1569 99.4774Z" fill="#946D42"/>
<path d="M93.0392 52.7285L83.273 87.6159C83.273 87.6159 82.3425 93.6631 86.8779 95.0582C91.4131 96.4536 93.0411 95.5232 93.739 95.0582C94.4368 94.5933 123.277 77.4204 123.277 77.4204L117.113 65.6375L96.7624 75.6382" fill="#DEE5DC"/>
<path d="M90.9868 96.4625C89.9011 96.4625 88.5046 96.2568 86.6816 95.6959C82.6586 94.4581 82.2617 89.8032 82.6138 87.5146C82.6178 87.488 82.6234 87.4621 82.6306 87.4362L92.3969 52.5488C92.4964 52.194 92.8651 51.9873 93.2188 52.0865C93.5736 52.1857 93.7806 52.5539 93.6811 52.9084L83.9265 87.7542C83.8548 88.2741 83.2746 93.2523 87.0737 94.421C91.4651 95.7721 92.8979 94.8172 93.369 94.5037C94.0273 94.0646 118.307 79.6042 122.393 77.1706L116.823 66.5229L97.0564 76.2369C96.7256 76.3986 96.326 76.2628 96.1638 75.9323C96.0013 75.6018 96.1376 75.2022 96.4682 75.0394L116.819 65.0387C117.144 64.8792 117.536 65.0077 117.704 65.3281L123.867 77.1113C124.031 77.4253 123.922 77.8124 123.617 77.9938C113.654 83.9265 94.6638 95.2445 94.1087 95.6134C93.4901 96.0258 92.5682 96.4625 90.9868 96.4625Z" fill="#161616"/>
<path d="M120.253 33.2564H117.7C117.332 33.2564 117.033 32.9579 117.033 32.5895C117.033 32.2211 117.332 31.9226 117.7 31.9226H119.137L118.04 29.8819C117.866 29.5575 117.987 29.1534 118.312 28.9786C118.636 28.8044 119.04 28.9256 119.215 29.2505L120.841 32.2739C120.952 32.4804 120.946 32.7303 120.826 32.9317C120.705 33.1331 120.488 33.2564 120.253 33.2564Z" fill="#161616"/>
<path d="M120.247 90.376L134.613 72.0489C134.613 72.0489 141.948 67.1101 145.692 70.4131C150.175 74.3668 149.978 81.569 149.978 81.569V118.781C149.978 118.781 155.757 124.364 155.757 128.782C155.757 128.782 152.891 130.876 145.745 128.782C138.599 126.689 132.372 118.549 132.372 118.549V101.571L120.248 113.438" fill="#946D42"/>
<path d="M97.3344 99.4142L111.76 81.1029C111.76 81.1029 119.184 76.1729 122.928 79.4754C127.411 83.429 127.303 90.6395 127.303 90.6395V127.852C127.303 127.852 133.023 133.434 133.023 137.853C133.023 137.853 130.053 139.946 122.907 137.853C115.761 135.76 109.43 127.62 109.43 127.62V99.4123" fill="#946D42"/>
<path d="M109.564 107.549C109.195 107.549 108.897 107.25 108.897 106.882V99.4124C108.897 99.044 109.195 98.7455 109.564 98.7455C109.932 98.7455 110.231 99.044 110.231 99.4124V106.882C110.231 107.25 109.932 107.549 109.564 107.549Z" fill="#161616"/>
<path d="M127.17 107.548C126.802 107.548 126.503 107.25 126.503 106.882V90.6395C126.505 90.5568 126.591 83.6901 122.399 79.9937C120.709 78.5022 118.04 79.0141 116.099 79.7059C114.167 80.3944 112.561 81.3894 112.177 81.6356L95.2056 103.588C94.9802 103.879 94.5617 103.933 94.2701 103.707C93.9788 103.482 93.9252 103.063 94.1503 102.772L111.191 80.7305C111.235 80.6736 111.287 80.6246 111.347 80.5846C111.666 80.3706 119.198 75.3918 123.282 78.9931C127.943 83.1046 127.837 90.3476 127.837 90.6539V106.882C127.837 107.25 127.538 107.548 127.17 107.548Z" fill="#161616"/>
<path d="M127.303 127.852V106.882H109.431V127.62C109.431 127.62 115.801 135.76 122.947 137.853C130.093 139.946 132.992 137.853 132.992 137.853C132.992 133.434 127.303 127.852 127.303 127.852Z" fill="#FBFCFA"/>
<path d="M128.803 139.45C127.005 139.45 124.995 139.128 122.827 138.493C119.763 137.596 116.508 135.559 113.155 132.44C110.675 130.133 109.102 128.113 109.037 128.028C108.946 127.911 108.897 127.767 108.897 127.62V106.748C108.897 106.38 109.196 106.081 109.564 106.081H127.437C127.805 106.081 128.104 106.38 128.104 106.748V127.579C129.143 128.65 133.759 133.642 133.759 137.853C133.759 138.069 133.655 138.271 133.48 138.396C133.419 138.439 131.966 139.45 128.803 139.45ZM110.231 127.386C111.188 128.567 116.92 135.373 123.201 137.213C125.248 137.812 127.132 138.117 128.803 138.117C130.745 138.117 131.907 137.703 132.41 137.468C132.095 133.431 127.021 128.379 126.968 128.327C126.841 128.201 126.77 128.031 126.77 127.852V107.415H110.231V127.386Z" fill="#161616"/>
<path d="M127.463 128.519C127.277 128.519 127.093 128.442 126.961 128.291C125.434 126.546 120.865 127.506 119.233 128.023C118.882 128.135 118.508 127.94 118.396 127.588C118.285 127.237 118.48 126.863 118.831 126.751C118.897 126.73 120.488 126.231 122.373 126.035C125.042 125.759 126.923 126.222 127.965 127.413C128.207 127.69 128.179 128.111 127.902 128.354C127.776 128.465 127.619 128.519 127.463 128.519Z" fill="#161616"/>
<path d="M132.372 101.571V118.549C132.372 118.549 138.668 126.69 145.814 128.783C152.96 130.876 155.763 128.783 155.763 128.783C155.763 124.364 149.978 118.782 149.978 118.782V97.5452H132.231L132.372 101.571Z" fill="#FBFCFA"/>
<path d="M151.645 130.38C149.864 130.38 147.862 130.058 145.693 129.423C142.628 128.525 139.386 126.487 136.057 123.367C133.595 121.06 132.04 119.039 131.975 118.954C131.886 118.838 131.838 118.695 131.838 118.549V101.593L131.565 97.4554C131.553 97.2716 131.618 97.0905 131.743 96.9558C131.869 96.821 132.046 96.7448 132.231 96.7448H150.111C150.479 96.7448 150.778 97.0433 150.778 97.4116V118.504C151.837 119.577 156.53 124.569 156.53 128.782C156.53 128.994 156.429 129.193 156.259 129.319C156.2 129.362 154.786 130.38 151.645 130.38ZM133.172 118.317C134.117 119.496 139.788 126.303 146.068 128.142C148.115 128.742 149.991 129.046 151.645 129.046C153.55 129.046 154.687 128.636 155.181 128.401C154.863 124.366 149.7 119.312 149.646 119.26C149.517 119.134 149.444 118.962 149.444 118.781V98.0785H132.943L133.17 101.527C133.171 101.542 133.172 101.556 133.172 101.571V118.317H133.172Z" fill="#161616"/>
<path d="M132.505 98.212C132.137 98.212 131.838 97.9135 131.838 97.5451V87.6751C131.838 87.3067 132.137 87.0082 132.505 87.0082C132.873 87.0082 133.172 87.3067 133.172 87.6751V97.5451C133.172 97.9135 132.873 98.212 132.505 98.212Z" fill="#161616"/>
<path d="M141.534 120.163C141.27 120.163 141.02 120.005 140.915 119.745C140.778 119.403 140.943 119.015 141.284 118.877C141.483 118.797 146.197 116.928 150.439 118.14C150.793 118.241 150.998 118.611 150.897 118.965C150.796 119.319 150.427 119.524 150.072 119.423C146.278 118.338 141.827 120.097 141.783 120.115C141.702 120.147 141.617 120.163 141.534 120.163Z" fill="#161616"/>
<path d="M93.6918 15.9172H91.5578C91.1894 15.9172 90.8909 15.6187 90.8909 15.2503C90.8909 14.8819 91.1894 14.5834 91.5578 14.5834H93.6918C94.0602 14.5834 94.3587 14.8819 94.3587 15.2503C94.3587 15.6187 94.0602 15.9172 93.6918 15.9172Z" fill="#161616"/>
<path d="M93.6227 13.625C93.4479 13.625 93.2732 13.5567 93.1425 13.421L92.096 12.3358C91.8405 12.0706 91.8479 11.6486 92.1131 11.3928C92.3782 11.1372 92.8005 11.145 93.0561 11.4099L94.1026 12.495C94.3581 12.7602 94.3507 13.1822 94.0855 13.438C93.9561 13.5631 93.7894 13.625 93.6227 13.625Z" fill="#161616"/>
<path d="M116.066 45.4885C115.721 45.4885 115.429 45.2226 115.402 44.8726L115.169 41.8489C115.141 41.4818 115.415 41.1612 115.783 41.1329C116.151 41.0998 116.471 41.3794 116.499 41.7467L116.732 44.7704C116.76 45.1375 116.485 45.4581 116.118 45.4864C116.1 45.4883 116.083 45.4885 116.066 45.4885Z" fill="#161616"/>
<path d="M118.833 68.0371L128.975 62.1489C128.975 62.1489 132.928 60.4043 135.255 62.1489C137.58 63.8932 140.371 68.0371 140.371 68.0371C140.371 68.0371 138.319 68.4593 137.543 68.0371L136.417 65.7539C136.417 65.7539 139.017 70.8652 138.008 71.7981C136.999 72.7309 134.091 69.2423 134.091 69.2423C134.091 69.2423 137.115 74.4425 135.952 75.4476C134.789 76.4525 132.231 71.4206 132.231 71.4206C132.231 71.4206 129.906 74.96 126.649 73.7777L123.044 75.5802" fill="#DEE5DC"/>
<path d="M123.044 76.2473C122.8 76.2473 122.564 76.1121 122.447 75.8784C122.283 75.549 122.416 75.1486 122.746 74.9837L126.351 73.1812C126.514 73.0993 126.704 73.0884 126.876 73.1511C129.591 74.1351 131.591 71.1797 131.674 71.0536C131.805 70.8559 132.031 70.7414 132.269 70.7559C132.506 70.7695 132.718 70.9071 132.825 71.1184C133.759 72.9537 135.013 74.6865 135.542 74.8946C135.771 74.3288 134.838 71.8533 133.515 69.5776C133.341 69.278 133.425 68.8949 133.709 68.6959C133.993 68.4975 134.382 68.5492 134.604 68.8152C135.692 70.1196 137.094 71.2912 137.554 71.292C137.745 70.7796 137.084 68.6783 136.097 66.6123L135.819 66.0486C135.657 65.7197 135.791 65.3215 136.119 65.1574C136.446 64.9936 136.845 65.1243 137.012 65.4514C137.131 65.6853 137.257 65.9393 137.384 66.2071L138.026 67.5083C138.289 67.5686 138.727 67.5708 139.197 67.531C138.26 66.241 136.425 63.8604 134.854 62.6821C132.97 61.2681 129.628 62.5987 129.274 62.7462L119.168 68.6135C118.85 68.7989 118.441 68.6903 118.257 68.3716C118.072 68.0533 118.18 67.6449 118.499 67.4601L128.64 61.5719C128.661 61.5596 128.683 61.5484 128.706 61.5386C128.882 61.4612 133.047 59.6587 135.655 61.6151C138.043 63.4064 140.808 67.4913 140.924 67.6644C141.048 67.8487 141.073 68.0829 140.989 68.2889C140.904 68.4948 140.723 68.6453 140.505 68.6901C140.257 68.741 139.342 68.9147 138.477 68.888C138.94 70.3314 139.113 71.6847 138.46 72.2878C138.199 72.5298 137.859 72.644 137.479 72.6202C137.099 72.5954 136.677 72.4138 136.255 72.1499C137.058 74.1594 137.095 75.3409 136.389 75.952C136.101 76.2006 135.733 76.2964 135.353 76.2223C134.2 75.9958 132.881 73.9692 132.123 72.628C130.982 73.8606 128.997 75.1739 126.702 74.4969L123.342 76.1766C123.246 76.2244 123.145 76.2473 123.044 76.2473Z" fill="#161616"/>
<path d="M141.882 59.9082C141.743 59.9082 141.603 59.8647 141.483 59.7748L138.692 57.6818C138.397 57.4609 138.337 57.0427 138.558 56.7482C138.78 56.4537 139.198 56.3944 139.492 56.6148L142.283 58.7078C142.577 58.9286 142.637 59.3469 142.416 59.6414C142.285 59.8162 142.085 59.9082 141.882 59.9082Z" fill="#161616"/>
<path d="M145.604 7.84165C145.604 7.84165 141.456 7.11847 140.487 8.72035C139.518 10.3225 153.024 17.3772 153.024 17.3772C153.024 17.3772 166.188 24.0059 167.838 22.4349C169.244 21.0979 165.877 18.0313 165.877 18.0313C165.877 18.0313 148.981 7.89847 145.604 7.84165Z" fill="#161616"/>
<path d="M110.692 34.6933C110.496 35.7377 113.385 38.8606 116.834 37.5623C118.694 36.8623 117.574 35.1305 115.41 35.1305C114.201 35.1303 111.285 31.5434 110.692 34.6933Z" fill="#161616"/>
</svg>
