<svg width="85" height="82" viewBox="0 0 85 82" fill="none" xmlns="http://www.w3.org/2000/svg">
<path fill-rule="evenodd" clip-rule="evenodd" d="M42.5 13.6218C34.676 13.6218 28.3333 19.7205 28.3333 27.2436C28.3333 34.7667 34.676 40.8654 42.5 40.8654C50.324 40.8654 56.6667 34.7667 56.6667 27.2436C56.6667 19.7205 50.324 13.6218 42.5 13.6218ZM55.3952 43.4855C60.4739 39.7518 63.75 33.8655 63.75 27.2436C63.75 15.9589 54.236 6.8109 42.5 6.8109C30.7639 6.8109 21.25 15.9589 21.25 27.2436C21.25 33.8655 24.5261 39.7518 29.6048 43.4855C26.0438 45.0001 22.7676 47.1436 19.961 49.8423C17.7937 51.9262 15.9706 54.2795 14.5271 56.8203C11.8634 61.5089 12.9497 66.2895 15.9495 69.67C18.8374 72.9242 23.4636 74.9199 28.3333 74.9199H56.6667C61.5364 74.9199 66.1626 72.9242 69.0505 69.67C72.0503 66.2895 73.1366 61.5089 70.4729 56.8203C69.0294 54.2795 67.2063 51.9262 65.039 49.8423C62.2324 47.1436 58.9562 45.0001 55.3952 43.4855ZM42.5 47.6763C35.9248 47.6763 29.619 50.1878 24.9696 54.6583C23.2838 56.2793 21.866 58.1095 20.7434 60.0855C19.6562 61.9991 20.0069 63.7492 21.3379 65.249C22.7807 66.875 25.379 68.109 28.3333 68.109H56.6667C59.621 68.109 62.2193 66.875 63.6621 65.249C64.9931 63.7492 65.3438 61.9991 64.2566 60.0855C63.134 58.1095 61.7162 56.2793 60.0304 54.6583C55.381 50.1878 49.0752 47.6763 42.5 47.6763Z" fill="#397A4A"/>
</svg>
